<svg width="28" height="28" viewBox="0 0 28 28" fill="none" xmlns="http://www.w3.org/2000/svg">
<circle cx="13.6131" cy="13.6131" r="13.1269" stroke="#EAE7D8" stroke-width="0.972366"/>
<path d="M13.2373 8.52234C14.8955 8.52234 15.0918 8.52855 15.7469 8.55842C16.1407 8.56324 16.5308 8.63556 16.9002 8.77223C17.1681 8.87554 17.4113 9.0338 17.6144 9.23682C17.8174 9.43983 17.9756 9.68311 18.0789 9.95099C18.2156 10.3204 18.2879 10.7105 18.2928 11.1043C18.3223 11.7594 18.3288 11.9557 18.3288 13.6138C18.3288 15.272 18.3226 15.4683 18.2928 16.1234C18.2879 16.5172 18.2156 16.9073 18.0789 17.2767C17.9756 17.5446 17.8174 17.7879 17.6144 17.9909C17.4113 18.1939 17.1681 18.3521 16.9002 18.4555C16.5308 18.5921 16.1407 18.6644 15.7469 18.6693C15.0921 18.6988 14.8958 18.7053 13.2373 18.7053C11.5789 18.7053 11.3825 18.6991 10.7278 18.6693C10.334 18.6644 9.94387 18.5921 9.57448 18.4555C9.3066 18.3521 9.06332 18.1939 8.8603 17.9909C8.65728 17.7879 8.49903 17.5446 8.39572 17.2767C8.25904 16.9073 8.18673 16.5172 8.18191 16.1234C8.15233 15.4683 8.14583 15.272 8.14583 13.6138C8.14583 11.9557 8.15204 11.7594 8.18191 11.1043C8.18673 10.7105 8.25904 10.3204 8.39572 9.95099C8.49903 9.68311 8.65728 9.43983 8.8603 9.23682C9.06332 9.0338 9.3066 8.87554 9.57448 8.77223C9.94387 8.63556 10.334 8.56324 10.7278 8.55842C11.3828 8.52885 11.5792 8.52234 13.2373 8.52234ZM13.2373 7.40332C11.5517 7.40332 11.3394 7.41042 10.6769 7.44058C10.1615 7.45083 9.65154 7.54843 9.16874 7.72921C8.75458 7.88525 8.37945 8.12979 8.06953 8.44575C7.75328 8.75578 7.50854 9.13112 7.3524 9.54555C7.17161 10.0284 7.07402 10.5383 7.06377 11.0538C7.0342 11.7156 7.0271 11.9279 7.0271 13.6136C7.0271 15.2992 7.0342 15.5115 7.06436 16.1739C7.07461 16.6894 7.17221 17.1993 7.35299 17.6821C7.50896 18.0965 7.7535 18.4719 8.06953 18.7819C8.37962 19.098 8.75496 19.3425 9.16933 19.4985C9.65213 19.6793 10.1621 19.7769 10.6775 19.7871C11.34 19.8167 11.5514 19.8244 13.2379 19.8244C14.9244 19.8244 15.1359 19.8173 15.7983 19.7871C16.3137 19.7769 16.8237 19.6793 17.3065 19.4985C17.7189 19.3386 18.0934 19.0945 18.4061 18.7816C18.7187 18.4687 18.9627 18.0941 19.1223 17.6815C19.303 17.1987 19.4006 16.6888 19.4109 16.1733C19.4405 15.5115 19.4476 15.2992 19.4476 13.6136C19.4476 11.9279 19.4405 11.7156 19.4103 11.0532C19.4 10.5377 19.3025 10.0278 19.1217 9.54496C18.9657 9.13059 18.7212 8.75525 18.4051 8.44516C18.095 8.12913 17.7197 7.88459 17.3053 7.72862C16.8225 7.54784 16.3126 7.45024 15.7971 7.43999C15.1353 7.41042 14.923 7.40332 13.2373 7.40332Z" fill="#EAE7D8"/>
<path d="M13.2389 10.4258C12.6082 10.4258 11.9916 10.6128 11.4671 10.9632C10.9427 11.3137 10.5339 11.8117 10.2926 12.3945C10.0512 12.9772 9.98803 13.6184 10.1111 14.237C10.2341 14.8557 10.5379 15.4239 10.9839 15.8699C11.4299 16.3159 11.9981 16.6197 12.6167 16.7427C13.2354 16.8658 13.8766 16.8026 14.4593 16.5612C15.0421 16.3199 15.5401 15.9111 15.8905 15.3867C16.241 14.8622 16.428 14.2456 16.428 13.6149C16.428 12.7691 16.092 11.9579 15.4939 11.3598C14.8959 10.7618 14.0847 10.4258 13.2389 10.4258ZM13.2389 15.685C12.8295 15.685 12.4293 15.5636 12.0888 15.3361C11.7484 15.1086 11.4831 14.7853 11.3264 14.4071C11.1697 14.0288 11.1287 13.6126 11.2086 13.211C11.2885 12.8095 11.4856 12.4406 11.7751 12.1511C12.0646 11.8616 12.4335 11.6645 12.8351 11.5846C13.2366 11.5047 13.6528 11.5457 14.0311 11.7024C14.4093 11.8591 14.7327 12.1244 14.9601 12.4648C15.1876 12.8052 15.309 13.2055 15.309 13.6149C15.309 14.1639 15.0909 14.6904 14.7027 15.0786C14.3145 15.4669 13.7879 15.685 13.2389 15.685Z" fill="#EAE7D8"/>
<path d="M16.5526 11.0442C16.9642 11.0442 17.2978 10.7105 17.2978 10.2989C17.2978 9.88736 16.9642 9.55371 16.5526 9.55371C16.141 9.55371 15.8074 9.88736 15.8074 10.2989C15.8074 10.7105 16.141 11.0442 16.5526 11.0442Z" fill="#EAE7D8"/>
</svg>
