<svg xmlns="http://www.w3.org/2000/svg" fill="none" viewBox="54.95 47.49 227.93 40.78">
<path d="M102.542 88.2713C102.118 88.2739 101.698 88.192 101.306 88.0304C100.93 87.8749 100.588 87.6476 100.299 87.361C100.01 87.0769 99.7812 86.7375 99.6262 86.3632C99.3051 85.574 99.3051 84.6905 99.6262 83.9013C99.782 83.5274 100.011 83.1882 100.299 82.9035C100.588 82.617 100.93 82.3896 101.306 82.2341C101.698 82.0735 102.118 81.9926 102.542 81.9964C102.851 81.9945 103.159 82.0334 103.458 82.1121C103.744 82.187 104.019 82.3007 104.275 82.4499C104.525 82.5977 104.753 82.781 104.95 82.9942L104.506 83.4634C104.265 83.1904 103.964 82.9764 103.627 82.8378C103.284 82.6898 102.915 82.6142 102.542 82.6157C102.205 82.6118 101.87 82.6768 101.559 82.8065C101.265 82.9306 100.998 83.1125 100.774 83.3414C100.549 83.5711 100.371 83.8433 100.252 84.1422C100.001 84.7796 100.001 85.4881 100.252 86.1254C100.372 86.4258 100.55 86.6992 100.777 86.9293C101.003 87.1605 101.273 87.3425 101.572 87.4642C101.885 87.5941 102.221 87.6591 102.56 87.655C102.93 87.6568 103.297 87.5823 103.636 87.4361C103.965 87.2926 104.259 87.0791 104.497 86.8105L104.931 87.2609C104.729 87.4692 104.499 87.6501 104.25 87.7989C103.996 87.9515 103.722 88.0674 103.436 88.143C103.145 88.2249 102.844 88.268 102.542 88.2713Z" fill="#413326"/>
<path d="M106.13 88.1743L108.651 82.0902H109.461L111.963 88.1743H111.231L110.468 86.2631H107.606L106.833 88.1743H106.13ZM107.834 85.6718H110.234L109.032 82.6908L107.834 85.6718Z" fill="#413326"/>
<path d="M113.484 88.1743V82.0902H116.127C116.485 82.0812 116.841 82.1562 117.165 82.3092C117.449 82.447 117.686 82.6644 117.847 82.9348C118.007 83.2167 118.091 83.5352 118.091 83.8591C118.091 84.1831 118.007 84.5015 117.847 84.7835C117.682 85.0535 117.444 85.2706 117.159 85.4091C116.837 85.5618 116.483 85.6368 116.127 85.628H114.153V88.1931L113.484 88.1743ZM114.153 85.0275H116.074C116.428 85.0478 116.778 84.9364 117.056 84.7147C117.177 84.6082 117.273 84.476 117.336 84.3276C117.4 84.1793 117.429 84.0187 117.422 83.8576C117.429 83.6973 117.4 83.5374 117.337 83.3901C117.273 83.2427 117.177 83.1116 117.056 83.0067C116.778 82.7863 116.428 82.6751 116.074 82.6939H114.153V85.0275Z" fill="#413326"/>
<path d="M121.513 88.1743V82.6908H119.324V82.0902H124.391V82.6908H122.202V88.1743H121.513Z" fill="#413326"/>
<path d="M128.408 88.2713C127.94 88.2835 127.478 88.1701 127.069 87.9428C126.694 87.7277 126.392 87.4067 126.199 87.0201C125.984 86.5792 125.877 86.0935 125.886 85.603V82.0902H126.556V85.603C126.547 85.9773 126.624 86.3487 126.781 86.6885C126.921 86.9838 127.143 87.2317 127.422 87.4017C127.721 87.566 128.057 87.6521 128.398 87.6521C128.74 87.6521 129.075 87.566 129.374 87.4017C129.647 87.2288 129.864 86.9813 130 86.6885C130.16 86.3494 130.238 85.9777 130.228 85.603V82.0902H130.898V85.603C130.909 86.0936 130.801 86.5797 130.585 87.0201C130.391 87.4059 130.089 87.7267 129.715 87.9428C129.316 88.1658 128.865 88.2791 128.408 88.2713Z" fill="#413326"/>
<path d="M132.943 88.1743V82.0902H135.549C135.91 82.0812 136.267 82.1562 136.594 82.3091C136.876 82.443 137.116 82.6532 137.285 82.916C137.454 83.1938 137.539 83.5139 137.532 83.8388C137.54 84.2129 137.415 84.5776 137.179 84.8679C136.936 85.161 136.608 85.3719 136.24 85.4716L137.604 88.1743H136.866L135.562 85.5592H133.616V88.1743H132.943ZM133.613 84.993H135.505C135.862 85.012 136.213 84.9008 136.494 84.6802C136.61 84.5738 136.703 84.4443 136.767 84.3C136.83 84.1557 136.863 83.9997 136.863 83.8419C136.863 83.6842 136.83 83.5282 136.767 83.3838C136.703 83.2395 136.61 83.11 136.494 83.0036C136.213 82.783 135.862 82.6718 135.505 82.6908H133.613V84.993Z" fill="#413326"/>
<path d="M139.375 88.1743V82.0902H140.044V88.1743H139.375Z" fill="#413326"/>
<path d="M142.199 88.1743V82.0902H142.869L146.529 87.0263V82.0902H147.154V88.1743H146.563L142.825 83.1068V88.1743H142.199Z" fill="#413326"/>
<path d="M152.178 88.2713C151.756 88.275 151.337 88.192 150.949 88.0273C150.193 87.7101 149.592 87.1093 149.275 86.3538C149.111 85.9681 149.028 85.5529 149.031 85.1338C149.029 84.7223 149.108 84.3145 149.264 83.9338C149.42 83.5532 149.651 83.2073 149.942 82.9164C150.233 82.6254 150.579 82.3951 150.959 82.2388C151.34 82.0825 151.748 82.0032 152.159 82.0057C152.615 82.002 153.067 82.0903 153.489 82.2654C153.894 82.4321 154.259 82.6838 154.558 83.0036L154.105 83.4634C153.869 83.1915 153.573 82.9774 153.241 82.8378C152.9 82.6894 152.531 82.6138 152.159 82.6157C151.833 82.6115 151.51 82.6737 151.209 82.7984C150.908 82.9232 150.635 83.1079 150.407 83.3414C150.183 83.572 150.006 83.8439 149.885 84.1422C149.639 84.7804 149.639 85.4873 149.885 86.1254C150.005 86.425 150.182 86.6982 150.407 86.9293C150.629 87.1594 150.895 87.3415 151.189 87.4642C151.496 87.5937 151.826 87.6586 152.159 87.655C152.548 87.6612 152.932 87.5686 153.276 87.386C153.603 87.2122 153.881 86.9582 154.083 86.6478C154.291 86.3306 154.416 85.9658 154.446 85.5874H152.256V84.9962H155.115V85.2652C155.119 85.6704 155.043 86.0722 154.89 86.4476C154.745 86.8042 154.533 87.1293 154.264 87.4048C153.996 87.6734 153.677 87.886 153.326 88.0304C152.963 88.1871 152.573 88.269 152.178 88.2713Z" fill="#413326"/>
<path d="M161.346 88.1743V82.6908H159.156V82.0902H164.224V82.6908H162.034V88.1743H161.346Z" fill="#413326"/>
<path d="M165.848 88.1743V82.0902H166.517V88.1743H165.848Z" fill="#413326"/>
<path d="M168.672 88.1743V82.0902H169.611L171.688 86.4101L173.759 82.0902H174.697V88.1743H174.071V82.8566L171.691 87.7395L169.307 82.8628V88.1806L168.672 88.1743Z" fill="#413326"/>
<path d="M176.852 88.1743V82.0902H181.207V82.6814H177.522V84.8116H179.927V85.3966H177.522V87.5862H181.241V88.1774L176.852 88.1743Z" fill="#413326"/>
<path d="M183.021 88.1743V82.0902H183.69V87.5862H187.316V88.1868L183.021 88.1743Z" fill="#413326"/>
<path d="M189.089 88.1743V82.0902H193.444V82.6814H189.759V84.8116H192.164V85.3966H189.759V87.5862H193.478V88.1774L189.089 88.1743Z" fill="#413326"/>
<path d="M197.232 88.2619C196.756 88.2633 196.286 88.1642 195.852 87.971C195.41 87.7747 195.012 87.4893 194.685 87.1327L195.129 86.6697C195.412 86.9842 195.753 87.2412 196.134 87.4267C196.485 87.5945 196.87 87.6811 197.26 87.6801C197.55 87.6856 197.838 87.6335 198.107 87.5268C198.334 87.4394 198.533 87.2925 198.683 87.1014C198.822 86.9229 198.896 86.7021 198.893 86.4758C198.902 86.3396 198.878 86.2032 198.824 86.078C198.769 85.9528 198.686 85.8425 198.58 85.7563C198.257 85.5486 197.889 85.42 197.507 85.3809L196.628 85.2433C196.156 85.192 195.708 85.0112 195.333 84.7209C195.193 84.5923 195.084 84.4346 195.012 84.2589C194.94 84.0832 194.907 83.8939 194.917 83.7043C194.91 83.3881 195.004 83.0779 195.186 82.8191C195.376 82.5541 195.636 82.3473 195.937 82.2216C196.29 82.0742 196.67 82.0018 197.053 82.0089C197.479 82.0099 197.902 82.0807 198.304 82.2185C198.714 82.3528 199.098 82.5559 199.44 82.8191L199.058 83.3383C198.48 82.8672 197.761 82.602 197.016 82.5844C196.754 82.5789 196.494 82.6246 196.249 82.7189C196.048 82.794 195.87 82.9227 195.736 83.0912C195.615 83.2521 195.551 83.4494 195.555 83.6511C195.548 83.7751 195.57 83.899 195.62 84.0126C195.67 84.1263 195.746 84.2264 195.843 84.3049C196.125 84.4882 196.446 84.6008 196.781 84.6333L197.648 84.7741C198.173 84.8267 198.674 85.0202 199.099 85.334C199.253 85.473 199.373 85.6446 199.451 85.8362C199.53 86.0278 199.565 86.2346 199.553 86.4414C199.551 86.7795 199.441 87.1083 199.24 87.3798C199.028 87.6589 198.745 87.8752 198.42 88.0054C198.046 88.1712 197.641 88.2584 197.232 88.2619Z" fill="#413326"/>
<path d="M203.35 88.2619C202.874 88.263 202.403 88.1639 201.968 87.971C201.527 87.7738 201.131 87.4886 200.804 87.1327L201.248 86.6697C201.531 86.9842 201.872 87.2412 202.252 87.4267C202.604 87.5945 202.989 87.6811 203.378 87.6801C203.667 87.6859 203.954 87.6338 204.223 87.5268C204.451 87.4402 204.651 87.2931 204.802 87.1014C204.941 86.9229 205.015 86.7021 205.011 86.4758C205.02 86.3396 204.997 86.2032 204.942 86.078C204.888 85.9528 204.804 85.8425 204.698 85.7563C204.375 85.5486 204.008 85.42 203.625 85.3809L202.746 85.2433C202.275 85.192 201.827 85.0112 201.451 84.7209C201.312 84.5923 201.202 84.4346 201.13 84.2589C201.058 84.0832 201.026 83.8939 201.035 83.7043C201.028 83.3881 201.123 83.0779 201.304 82.8191C201.494 82.5541 201.754 82.3473 202.055 82.2216C202.409 82.0742 202.789 82.0018 203.172 82.0089C203.598 82.0099 204.02 82.0807 204.423 82.2185C204.833 82.3528 205.217 82.5559 205.559 82.8191L205.177 83.3383C204.599 82.8672 203.88 82.602 203.134 82.5844C202.873 82.5789 202.612 82.6246 202.368 82.7189C202.166 82.794 201.989 82.9227 201.855 83.0912C201.733 83.2521 201.669 83.4494 201.674 83.6511C201.666 83.7751 201.689 83.899 201.739 84.0126C201.789 84.1263 201.865 84.2264 201.961 84.3049C202.243 84.4882 202.565 84.6008 202.9 84.6333L203.766 84.7741C204.292 84.8267 204.793 85.0202 205.218 85.334C205.371 85.473 205.492 85.6446 205.57 85.8362C205.649 86.0278 205.683 86.2346 205.671 86.4414C205.674 86.7778 205.57 87.1064 205.374 87.3798C205.163 87.6589 204.879 87.8752 204.555 88.0054C204.175 88.1733 203.765 88.2606 203.35 88.2619Z" fill="#413326"/>
<path d="M211.771 88.1743V82.6908H209.581V82.0902H214.646V82.6908H212.456V88.1743H211.771Z" fill="#413326"/>
<path d="M214.555 88.1743L217.089 82.0902H217.899L220.401 88.1743H219.672L218.906 86.2631H216.038L215.265 88.1743H214.555ZM216.257 85.6718H218.653L217.455 82.6908L216.257 85.6718Z" fill="#413326"/>
<path d="M221.906 88.1743V82.0902H222.575V87.5862H226.201V88.1868L221.906 88.1743Z" fill="#413326"/>
<path d="M227.974 88.1743V82.0902H232.329V82.6814H228.641V84.8116H231.049V85.3966H228.641V87.5862H232.363V88.1774L227.974 88.1743Z" fill="#413326"/>
<path d="M236.117 88.2619C235.641 88.263 235.17 88.1639 234.734 87.971C234.292 87.7754 233.896 87.4899 233.571 87.1327L234.015 86.6697C234.298 86.9842 234.639 87.2412 235.019 87.4267C235.369 87.5948 235.753 87.6815 236.142 87.6801C236.432 87.6862 236.72 87.6341 236.99 87.5268C237.218 87.4402 237.418 87.2931 237.568 87.1014C237.707 86.9229 237.781 86.7021 237.778 86.4758C237.787 86.3396 237.763 86.2032 237.709 86.078C237.654 85.9528 237.571 85.8425 237.465 85.7563C237.141 85.5481 236.772 85.4195 236.389 85.3809L235.513 85.2433C235.042 85.192 234.593 85.0112 234.218 84.7209C234.078 84.5925 233.968 84.4348 233.896 84.2592C233.823 84.0835 233.79 83.8941 233.799 83.7043C233.793 83.3878 233.888 83.0776 234.071 82.8191C234.261 82.5541 234.521 82.3473 234.822 82.2216C235.175 82.0742 235.556 82.0018 235.939 82.0089C236.364 82.0099 236.787 82.0807 237.19 82.2185C237.599 82.3535 237.983 82.5565 238.325 82.8191L237.944 83.3383C237.365 82.8672 236.647 82.602 235.901 82.5844C235.639 82.5786 235.379 82.6243 235.135 82.7189C234.933 82.794 234.756 82.9227 234.622 83.0912C234.5 83.2521 234.436 83.4494 234.44 83.6511C234.432 83.7748 234.454 83.8987 234.504 84.0123C234.553 84.126 234.629 84.2263 234.725 84.3049C235.007 84.4872 235.329 84.5998 235.663 84.6333L236.533 84.7741C237.058 84.8267 237.56 85.0202 237.984 85.334C238.137 85.4734 238.257 85.6451 238.336 85.8366C238.414 86.0281 238.449 86.2347 238.438 86.4414C238.441 86.7778 238.337 87.1064 238.141 87.3798C237.929 87.6589 237.646 87.8752 237.321 88.0054C236.942 88.173 236.532 88.2603 236.117 88.2619Z" fill="#413326"/>
<path d="M73.3441 50.3245V67.2693C73.3441 68.5018 73.6569 69.118 74.7924 69.2088V69.5779H69.8344V69.2088C70.973 69.118 71.2827 68.5018 71.2827 67.2693V58.9518H58.4576V67.2693C58.4576 68.5018 58.7704 69.118 59.9059 69.2088V69.5779H54.9541V69.2088C56.0927 69.118 56.4024 68.5018 56.4024 67.2693V50.3245C56.4024 49.1234 56.0896 48.5071 54.9541 48.4133V48.0129H59.9121V48.4133C58.7735 48.5071 58.4638 49.1234 58.4638 50.3245V58.3668H71.2889V50.3245C71.2889 49.1234 70.9761 48.5071 69.8406 48.4133V48.0129H74.7924V48.4133C73.6538 48.5071 73.3441 49.1109 73.3441 50.3245Z" fill="#413326"/>
<path d="M99.9015 58.8079C99.9015 65.3081 94.8183 69.9001 88.5622 69.9001C82.306 69.9001 77.2635 65.2956 77.2635 58.8079C77.2635 52.3203 82.3467 47.7189 88.5684 47.7189C94.7902 47.7189 99.9015 52.3265 99.9015 58.8079ZM97.7431 58.8079C97.7431 52.1545 93.3387 48.2725 88.5622 48.2725C83.7856 48.2725 79.3844 52.142 79.3844 58.8079C79.3844 65.4739 83.7887 69.3777 88.5622 69.3777C93.3356 69.3777 97.7431 65.4832 97.7431 58.8079Z" fill="#413326"/>
<path d="M121.804 48.0129V48.3851C120.666 48.5071 120.356 49.1234 120.356 50.3245V61.2916C120.356 64.867 118.479 69.8875 112.749 69.8875C107.509 69.8875 103.812 66.6844 103.812 61.2916V50.3245C103.812 49.1234 103.499 48.5071 102.366 48.3851V48.0129H107.356V48.3851C106.186 48.5071 105.876 49.1234 105.876 50.3245V61.2916C105.876 66.2214 108.494 69.1775 112.777 69.1775C118.094 69.1775 119.771 64.6511 119.771 61.2916V50.3245C119.771 49.1234 119.458 48.5071 118.323 48.3851V48.0129H121.804Z" fill="#413326"/>
<path d="M138.686 64.867C138.039 68.408 135.174 69.9501 131.508 69.8719C129.168 69.8094 125.877 69.0711 123.959 67.7167V63.6502H124.329C125.267 67.504 128.583 69.2588 131.523 69.3214C134.026 69.3808 136.215 68.3642 136.731 65.8805C138.023 59.4085 123.669 60.1186 125.301 51.923C125.855 49.1077 128.135 47.672 131.307 47.672C133.556 47.672 135.621 48.4727 137.592 49.9836V53.8343H137.254C136.3 49.9836 134.235 48.2256 131.31 48.2256C129.186 48.2256 127.185 49.3361 126.931 51.6477C126.24 57.7193 139.95 57.9946 138.686 64.867Z" fill="#413326"/>
<path d="M156.864 65.7898L156.276 69.5779H141.552V69.2088C142.69 69.118 143 68.5018 143 67.2693V50.3245C143 49.1234 142.687 48.5071 141.552 48.4133V48.0129H155.465L156.05 51.8041H155.681C155.221 50.5529 154.264 48.5978 151.74 48.5978H145.061V58.3356H149.869C151.993 58.3356 152.394 57.5942 152.61 56.3023H152.982V60.9225H152.61C152.394 59.6275 151.984 58.8892 149.869 58.8892H145.061V69.0242H152.55C155.074 69.0242 156.032 67.0535 156.491 65.7898H156.864Z" fill="#413326"/>
<path d="M178.401 58.7829C178.401 62.4271 175.551 64.9984 172.044 64.9984C168.538 64.9984 165.707 62.4271 165.707 58.7829C165.707 55.1387 168.556 52.5517 172.044 52.5517C175.532 52.5517 178.401 55.1543 178.401 58.7829ZM177.193 58.7829C177.193 55.0542 174.722 52.8646 172.044 52.8646C169.367 52.8646 166.899 55.0542 166.899 58.7704C166.899 62.4865 169.37 64.6918 172.044 64.6918C174.719 64.6918 177.193 62.5303 177.193 58.7829Z" fill="#413326"/>
<path d="M187.813 54.8634H187.607C187.328 54.1533 186.793 53.0648 185.395 53.0648H181.741V58.8517H184.316C185.523 58.8517 185.73 58.4544 185.852 57.7287H186.058V60.3031H185.852C185.73 59.5774 185.539 59.1801 184.316 59.1801H181.741V63.5313C181.741 64.2226 181.914 64.5667 182.552 64.6199V64.8263H179.774V64.6199C180.4 64.5667 180.584 64.2226 180.584 63.5313V54.0345C180.584 53.3588 180.412 53.0147 179.774 52.9615V52.7394H187.466L187.813 54.8634Z" fill="#413326"/>
<path d="M210.833 51.9042H210.457C209.985 50.5279 209.078 48.4289 206.447 48.4289H202.915V67.4101C202.915 68.6613 203.228 69.2869 204.389 69.3839V69.7562H199.343V69.3777C200.504 69.2838 200.816 68.6582 200.816 67.4038V48.4289H197.275C194.645 48.4289 193.738 50.5279 193.268 51.9042H192.89L193.487 47.8377H210.244L210.833 51.9042Z" fill="#413326"/>
<path d="M229.914 69.3839V69.7562H224.249V69.3777C225.406 69.2838 225.973 68.5331 225.5 67.4039L223.345 62.3051H213.786L211.812 67.4101C211.343 68.6958 211.906 69.287 213.063 69.3839V69.7562H208.956V69.3777C210.144 69.2838 210.773 68.4705 211.18 67.4039L217.633 50.4903C218.134 49.1734 217.696 48.3601 216.723 48.235V47.8252H219.451L227.63 67.4101C228.072 68.4768 228.728 69.2901 229.914 69.3839ZM223.082 61.7108L218.359 50.3621H218.34L214.017 61.7014L223.082 61.7108Z" fill="#413326"/>
<path d="M247.713 65.9086L247.087 69.7624H232.104V69.3839C233.264 69.2901 233.577 68.6645 233.577 67.4101V50.1838C233.577 48.9607 233.264 48.3351 232.104 48.2412V47.8315H237.149V48.2412C235.989 48.3351 235.676 48.9607 235.676 50.1838V69.1962H243.321C245.858 69.1962 246.827 67.1911 247.297 65.9086H247.713Z" fill="#413326"/>
<path d="M265.63 65.9086L265.033 69.7562H250.062V69.3777C251.219 69.2838 251.532 68.6582 251.532 67.4038V50.1838C251.532 48.9607 251.219 48.3351 250.062 48.2412V47.8315H264.219L264.814 51.6852H264.438C263.969 50.4027 262.999 48.4289 260.428 48.4289H253.631V58.3262H258.517C260.678 58.3262 261.088 57.5754 261.307 56.2585H261.682V60.9506H261.307C261.088 59.6368 260.681 58.8861 258.517 58.8861H253.631V69.19H261.244C263.813 69.19 264.782 67.1849 265.255 65.9024L265.63 65.9086Z" fill="#413326"/>
<path d="M282.797 64.9671C282.153 68.5707 279.225 70.1378 275.496 70.069C273.116 70.0064 269.766 69.2526 267.823 67.8793V63.7471H268.198C269.137 67.6635 272.521 69.4465 275.496 69.5091C278.033 69.5716 280.257 68.5394 280.792 66.0025C282.106 59.4335 267.507 60.1436 269.168 51.8104C269.734 48.9607 272.052 47.4874 275.277 47.4874C277.564 47.4874 279.657 48.3038 281.668 49.8366V53.7529H281.324C280.351 49.8366 278.252 48.0536 275.277 48.0536C273.116 48.0536 271.079 49.1797 270.829 51.5289C270.141 57.7006 284.08 57.9821 282.797 64.9671Z" fill="#413326"/>
</svg>