<svg width="24" height="24" viewBox="0 0 24 24" fill="none" xmlns="http://www.w3.org/2000/svg">
<circle cx="11.6684" cy="11.6684" r="11.2517" stroke="#34291E" stroke-width="0.833457"/>
<path d="M11.3462 7.30516C12.7675 7.30516 12.9358 7.31048 13.4973 7.33608C13.8348 7.34021 14.1692 7.4022 14.4858 7.51935C14.7154 7.6079 14.924 7.74355 15.098 7.91756C15.272 8.09158 15.4077 8.3001 15.4962 8.52971C15.6133 8.84634 15.6753 9.1807 15.6795 9.51828C15.7048 10.0797 15.7104 10.248 15.7104 11.6693C15.7104 13.0906 15.7051 13.2589 15.6795 13.8203C15.6753 14.1579 15.6133 14.4923 15.4962 14.8089C15.4077 15.0385 15.272 15.247 15.098 15.421C14.924 15.5951 14.7154 15.7307 14.4858 15.8193C14.1692 15.9364 13.8348 15.9984 13.4973 16.0025C12.9361 16.0279 12.7678 16.0334 11.3462 16.0334C9.92474 16.0334 9.75643 16.0281 9.19523 16.0025C8.85765 15.9984 8.52328 15.9364 8.20666 15.8193C7.97705 15.7307 7.76852 15.5951 7.59451 15.421C7.42049 15.247 7.28484 15.0385 7.19629 14.8089C7.07915 14.4923 7.01716 14.1579 7.01303 13.8203C6.98768 13.2589 6.9821 13.0906 6.9821 11.6693C6.9821 10.248 6.98743 10.0797 7.01303 9.51828C7.01716 9.1807 7.07915 8.84634 7.19629 8.52971C7.28484 8.3001 7.42049 8.09158 7.59451 7.91756C7.76852 7.74355 7.97705 7.6079 8.20666 7.51935C8.52328 7.4022 8.85765 7.34021 9.19523 7.33608C9.75668 7.31073 9.92499 7.30516 11.3462 7.30516ZM11.3462 6.34599C9.90142 6.34599 9.71942 6.35208 9.15163 6.37793C8.70983 6.38672 8.27272 6.47037 7.85889 6.62533C7.50389 6.75908 7.18235 6.96868 6.91671 7.23951C6.64564 7.50525 6.43586 7.82697 6.30202 8.18219C6.14706 8.59602 6.06341 9.03313 6.05462 9.47493C6.02928 10.0422 6.02319 10.2242 6.02319 11.669C6.02319 13.1139 6.02928 13.2959 6.05513 13.8637C6.06392 14.3055 6.14757 14.7426 6.30253 15.1564C6.43621 15.5116 6.64582 15.8333 6.91671 16.0991C7.1825 16.37 7.50421 16.5796 7.85939 16.7133C8.27322 16.8682 8.71033 16.9519 9.15214 16.9607C9.71993 16.986 9.90117 16.9926 11.3468 16.9926C12.7923 16.9926 12.9736 16.9865 13.5414 16.9607C13.9832 16.9519 14.4203 16.8682 14.8341 16.7133C15.1876 16.5763 15.5086 16.367 15.7766 16.0988C16.0446 15.8306 16.2537 15.5095 16.3905 15.1559C16.5454 14.7421 16.6291 14.305 16.6379 13.8632C16.6632 13.2959 16.6693 13.1139 16.6693 11.669C16.6693 10.2242 16.6632 10.0422 16.6374 9.47443C16.6286 9.03263 16.5449 8.59551 16.39 8.18169C16.2563 7.82651 16.0467 7.50479 15.7758 7.239C15.51 6.96811 15.1883 6.75851 14.8331 6.62482C14.4193 6.46986 13.9822 6.38621 13.5404 6.37742C12.9731 6.35208 12.7911 6.34599 11.3462 6.34599Z" fill="#34291E"/>
<path d="M11.3473 8.93671C10.8066 8.93671 10.2782 9.09702 9.82863 9.39739C9.3791 9.69775 9.02874 10.1247 8.82185 10.6242C8.61495 11.1236 8.56082 11.6733 8.66629 12.2035C8.77177 12.7338 9.03211 13.2208 9.4144 13.6031C9.79669 13.9854 10.2838 14.2457 10.814 14.3512C11.3443 14.4567 11.8939 14.4026 12.3934 14.1957C12.8928 13.9888 13.3198 13.6384 13.6201 13.1889C13.9205 12.7394 14.0808 12.2109 14.0808 11.6702C14.0808 10.9452 13.7928 10.25 13.2802 9.73733C12.7675 9.2247 12.0723 8.93671 11.3473 8.93671ZM11.3473 13.4446C10.9964 13.4446 10.6533 13.3405 10.3615 13.1455C10.0697 12.9506 9.8423 12.6735 9.708 12.3492C9.5737 12.025 9.53856 11.6683 9.60703 11.3241C9.67549 10.9799 9.84448 10.6637 10.0926 10.4156C10.3408 10.1674 10.6569 9.99843 11.0011 9.92996C11.3453 9.8615 11.7021 9.89664 12.0263 10.0309C12.3505 10.1652 12.6276 10.3927 12.8226 10.6844C13.0176 10.9762 13.1216 11.3193 13.1216 11.6702C13.1216 12.1408 12.9347 12.5921 12.6019 12.9249C12.2692 13.2576 11.8179 13.4446 11.3473 13.4446Z" fill="#34291E"/>
<path d="M14.1878 9.46625C14.5406 9.46625 14.8266 9.18027 14.8266 8.82749C14.8266 8.47471 14.5406 8.18872 14.1878 8.18872C13.8351 8.18872 13.5491 8.47471 13.5491 8.82749C13.5491 9.18027 13.8351 9.46625 14.1878 9.46625Z" fill="#34291E"/>
</svg>
