<svg width="156" height="26" viewBox="0 0 156 26" fill="none" xmlns="http://www.w3.org/2000/svg">
<path d="M7.854 19.978C7.686 20.034 7.518 19.992 7.35 19.852C7.196 19.712 7.119 19.551 7.119 19.369C7.119 19.285 7.266 18.76 7.56 17.794C7.868 16.842 8.218 15.778 8.61 14.602C9.618 11.62 10.22 9.751 10.416 8.995C10.626 8.155 10.731 7.532 10.731 7.126C10.731 6.86 10.689 6.727 10.605 6.727C10.465 6.727 10.108 6.972 9.534 7.462C8.96 7.952 8.477 8.428 8.085 8.89C6.965 10.178 5.894 11.592 4.872 13.132C3.864 14.658 2.849 16.394 1.827 18.34C1.491 18.984 1.239 19.418 1.071 19.642C0.903 19.866 0.742 19.978 0.588 19.978C0.49 19.978 0.378 19.936 0.252 19.852C0.196 19.81 0.14 19.747 0.084 19.663C0.028 19.593 0 19.53 0 19.474C0 19.404 0.077 19.201 0.231 18.865C0.385 18.529 0.567 18.158 0.777 17.752C1.911 15.596 3.129 13.58 4.431 11.704C5.747 9.814 6.972 8.309 8.106 7.189C9.24 6.055 10.122 5.488 10.752 5.488C11.088 5.488 11.375 5.649 11.613 5.971C11.851 6.279 11.97 6.657 11.97 7.105C11.97 7.539 11.872 8.155 11.676 8.953C11.48 9.737 11.165 10.794 10.731 12.124C10.171 13.846 9.898 14.707 9.912 14.707C10.01 14.595 10.199 14.336 10.479 13.93C10.773 13.524 11.123 13.027 11.529 12.439C14.469 8.113 16.107 5.887 16.443 5.761C16.611 5.705 16.737 5.677 16.821 5.677C16.947 5.677 17.052 5.733 17.136 5.845C17.22 5.957 17.262 6.083 17.262 6.223C17.262 6.321 17.248 6.391 17.22 6.433C17.192 6.503 16.45 7.56 14.994 9.604L14.742 9.961C12.25 13.461 10.297 16.359 8.883 18.655C8.659 19.019 8.449 19.32 8.253 19.558C8.057 19.81 7.924 19.95 7.854 19.978ZM14.9587 17.122C14.6367 16.982 14.3847 16.765 14.2027 16.471C14.0207 16.163 13.9297 15.827 13.9297 15.463C13.9297 15.155 13.9927 14.854 14.1187 14.56C14.2587 14.238 14.6297 13.79 15.2317 13.216C15.8477 12.642 16.4357 12.187 16.9957 11.851C18.0317 11.235 18.9347 10.927 19.7047 10.927C20.0827 10.927 20.3767 11.011 20.5867 11.179C20.8107 11.347 20.9227 11.585 20.9227 11.893C20.9227 12.173 20.8387 12.446 20.6707 12.712C20.5167 12.964 20.2647 13.23 19.9147 13.51C19.4527 13.86 18.7947 14.245 17.9407 14.665C17.0867 15.071 16.4287 15.316 15.9667 15.4C15.6867 15.456 15.4907 15.512 15.3787 15.568C15.2667 15.61 15.2107 15.666 15.2107 15.736C15.2107 15.876 15.3717 15.995 15.6937 16.093C16.0297 16.177 16.3797 16.205 16.7437 16.177C17.5837 16.079 18.4797 15.848 19.4317 15.484C20.3977 15.106 21.6017 14.511 23.0437 13.699C23.5477 13.419 24.0167 13.174 24.4507 12.964C24.8847 12.74 25.1297 12.628 25.1857 12.628C25.3397 12.628 25.4727 12.726 25.5847 12.922C25.6967 13.104 25.7247 13.272 25.6687 13.426C25.6127 13.566 25.2137 13.86 24.4717 14.308C23.7297 14.742 22.7357 15.267 21.4897 15.883C20.4957 16.373 19.5577 16.744 18.6757 16.996C17.8077 17.248 17.0377 17.374 16.3657 17.374C15.8057 17.374 15.3367 17.29 14.9587 17.122ZM16.3027 14.077C16.6107 13.965 17.0097 13.79 17.4997 13.552C17.9617 13.314 18.4237 13.041 18.8857 12.733C19.3617 12.411 19.5717 12.222 19.5157 12.166C19.4457 12.096 19.1727 12.166 18.6967 12.376C18.2207 12.586 17.7237 12.852 17.2057 13.174C16.6877 13.482 16.3447 13.734 16.1767 13.93C16.1067 14.028 16.0717 14.084 16.0717 14.098C16.0717 14.112 16.0787 14.119 16.0927 14.119L16.3027 14.077ZM22.8183 18.088C22.6503 17.962 22.5663 17.801 22.5663 17.605C22.5663 17.465 22.6083 17.311 22.6923 17.143C22.9583 16.639 23.6583 15.449 24.7923 13.573C25.9403 11.683 26.7453 10.388 27.2073 9.688C28.7613 7.378 30.2243 5.474 31.5963 3.976C32.9823 2.478 34.1863 1.491 35.2083 1.015C35.6423 0.818999 35.9853 0.720999 36.2373 0.720999C36.5173 0.720999 36.7693 0.818999 36.9933 1.015C37.2173 1.197 37.3293 1.449 37.3293 1.771C37.3293 2.387 36.9373 3.178 36.1533 4.144C35.6633 4.746 34.8723 5.572 33.7803 6.622C32.6883 7.672 31.5753 8.68 30.4413 9.646C29.3073 10.598 28.4533 11.249 27.8793 11.599C27.5153 11.823 27.1793 12.131 26.8713 12.523C26.5633 12.915 26.2273 13.461 25.8633 14.161C25.7933 14.301 25.7583 14.385 25.7583 14.413C25.7583 14.455 25.8353 14.427 25.9893 14.329C26.1433 14.231 26.3603 14.084 26.6403 13.888C27.6203 13.216 28.5023 12.705 29.2863 12.355C30.0703 11.991 30.7213 11.809 31.2393 11.809C31.5893 11.809 31.8693 11.893 32.0793 12.061C32.3453 12.271 32.5133 12.502 32.5833 12.754C32.6673 12.992 32.7303 13.461 32.7723 14.161C32.8003 14.679 32.8353 15.036 32.8773 15.232C32.9193 15.428 32.9753 15.547 33.0453 15.589C33.0873 15.617 33.1573 15.631 33.2553 15.631C33.6753 15.631 34.4243 15.155 35.5023 14.203C35.8943 13.853 36.2023 13.601 36.4263 13.447C36.6503 13.293 36.8323 13.216 36.9723 13.216C37.1123 13.216 37.2243 13.293 37.3083 13.447C37.3503 13.503 37.3713 13.608 37.3713 13.762C37.3713 13.846 37.3643 13.909 37.3503 13.951C37.2943 14.147 36.9163 14.56 36.2163 15.19C35.5303 15.82 34.9703 16.247 34.5363 16.471C34.1163 16.709 33.6613 16.828 33.1713 16.828C32.8493 16.828 32.5833 16.765 32.3733 16.639C32.0653 16.443 31.8623 16.205 31.7643 15.925C31.6663 15.645 31.5963 15.148 31.5543 14.434L31.4703 13.111L30.9453 13.132C30.5673 13.146 30.0003 13.349 29.2443 13.741C28.4883 14.119 27.6763 14.623 26.8083 15.253C25.9543 15.869 25.1703 16.52 24.4563 17.206C24.0223 17.612 23.7213 17.878 23.5533 18.004C23.3853 18.144 23.2453 18.214 23.1333 18.214C23.0213 18.214 22.9163 18.172 22.8183 18.088ZM29.0973 9.058C29.0133 9.198 29.0763 9.198 29.2863 9.058C29.4963 8.904 29.9373 8.533 30.6093 7.945C31.4353 7.231 32.2683 6.454 33.1083 5.614C33.9623 4.76 34.6623 4.004 35.2083 3.346C35.7543 2.674 36.0273 2.247 36.0273 2.065C36.0273 1.953 35.7753 2.051 35.2713 2.359C34.7813 2.667 34.3123 3.024 33.8643 3.43C32.7303 4.452 31.5193 5.81 30.2313 7.504C29.5593 8.4 29.1813 8.918 29.0973 9.058ZM35.3322 17.689C35.1082 17.605 34.9262 17.465 34.7862 17.269C34.6462 17.073 34.5762 16.856 34.5762 16.618C34.5762 16.254 34.6952 15.876 34.9332 15.484C35.1712 15.092 35.5912 14.602 36.1932 14.014C36.8372 13.37 37.5092 12.873 38.2092 12.523C38.9232 12.173 39.6232 11.998 40.3092 11.998C40.8972 11.998 41.4502 12.131 41.9682 12.397L42.7032 12.775L43.2702 12.439L44.1312 11.914C44.2572 11.83 44.3622 11.788 44.4462 11.788C44.5022 11.788 44.5652 11.809 44.6352 11.851C44.8872 12.019 45.0132 12.194 45.0132 12.376C45.0132 12.516 44.9502 12.712 44.8242 12.964C44.6842 13.258 44.5722 13.58 44.4882 13.93C44.4042 14.28 44.3622 14.609 44.3622 14.917C44.3622 15.197 44.3902 15.421 44.4462 15.589C44.5862 16.051 44.7892 16.282 45.0552 16.282C45.2652 16.282 45.5242 16.163 45.8322 15.925C46.1542 15.673 46.5812 15.274 47.1132 14.728C47.4912 14.35 47.8342 14.021 48.1422 13.741C48.4502 13.447 48.6392 13.286 48.7092 13.258C48.8772 13.188 49.0382 13.237 49.1922 13.405C49.3602 13.559 49.4232 13.734 49.3812 13.93C49.3252 14.154 48.8912 14.693 48.0792 15.547C47.2672 16.387 46.6792 16.912 46.3152 17.122C45.9232 17.346 45.4962 17.458 45.0342 17.458C44.6562 17.458 44.3412 17.374 44.0892 17.206C43.4872 16.758 43.1862 16.002 43.1862 14.938C43.1862 14.7 43.1792 14.49 43.1652 14.308C43.1512 14.126 43.1302 14.035 43.1022 14.035C42.9902 14.077 42.7802 14.189 42.4722 14.371C42.1782 14.539 41.8212 14.756 41.4012 15.022C39.3712 16.226 37.9712 16.996 37.2012 17.332C36.5852 17.598 36.0462 17.731 35.5842 17.731C35.5002 17.731 35.4162 17.717 35.3322 17.689ZM35.8152 16.429C35.8152 16.513 35.9202 16.52 36.1302 16.45C36.3542 16.38 36.7252 16.219 37.2432 15.967C37.8172 15.687 38.6572 15.225 39.7632 14.581C40.8832 13.923 41.4432 13.566 41.4432 13.51C41.4432 13.426 41.2402 13.349 40.8342 13.279C40.4422 13.195 40.1272 13.174 39.8892 13.216C39.2872 13.314 38.6642 13.58 38.0202 14.014C37.3902 14.434 36.8442 14.952 36.3822 15.568C36.2282 15.764 36.0952 15.953 35.9832 16.135C35.8712 16.303 35.8152 16.401 35.8152 16.429ZM57.4719 19.558C56.8839 19.292 56.4359 18.879 56.1279 18.319C55.8339 17.773 55.6869 17.122 55.6869 16.366C55.6869 15.106 56.0719 13.713 56.8419 12.187C57.5139 10.843 58.3469 9.639 59.3409 8.575C60.3489 7.497 61.4129 6.657 62.5329 6.055C63.6529 5.453 64.7309 5.152 65.7669 5.152C66.3549 5.152 66.8799 5.25 67.3419 5.446C67.8039 5.642 68.1609 5.922 68.4129 6.286C68.6929 6.692 68.8329 7.084 68.8329 7.462C68.8329 7.644 68.7909 7.791 68.7069 7.903C68.6369 8.001 68.5249 8.05 68.3709 8.05C68.2029 8.05 68.0699 8.008 67.9719 7.924C67.8879 7.84 67.7829 7.665 67.6569 7.399C67.3069 6.685 66.7119 6.328 65.8719 6.328C65.4239 6.328 64.8919 6.433 64.2759 6.643C63.0999 7.035 61.9379 7.784 60.7899 8.89C59.6559 9.982 58.7249 11.214 57.9969 12.586C57.2689 13.958 56.9049 15.218 56.9049 16.366C56.9049 17.864 57.5139 18.613 58.7319 18.613C59.6559 18.613 60.9299 18.151 62.5539 17.227C63.3099 16.793 63.8279 16.576 64.1079 16.576C64.3319 16.576 64.4649 16.604 64.5069 16.66C64.5489 16.702 64.5699 16.828 64.5699 17.038C64.5699 17.206 64.5419 17.332 64.4859 17.416C64.4439 17.486 64.3039 17.598 64.0659 17.752C63.8279 17.906 63.4989 18.095 63.0789 18.319C61.2869 19.313 59.8309 19.81 58.7109 19.81C58.2489 19.81 57.8359 19.726 57.4719 19.558ZM66.0471 18.088C65.8791 17.962 65.7951 17.801 65.7951 17.605C65.7951 17.465 65.8371 17.311 65.9211 17.143C66.1871 16.639 66.8871 15.449 68.0211 13.573C69.1691 11.683 69.9741 10.388 70.4361 9.688C71.9901 7.378 73.4531 5.474 74.8251 3.976C76.2111 2.478 77.4151 1.491 78.4371 1.015C78.8711 0.818999 79.2141 0.720999 79.4661 0.720999C79.7461 0.720999 79.9981 0.818999 80.2221 1.015C80.4461 1.197 80.5581 1.449 80.5581 1.771C80.5581 2.387 80.1661 3.178 79.3821 4.144C78.8921 4.746 78.1011 5.572 77.0091 6.622C75.9171 7.672 74.8041 8.68 73.6701 9.646C72.5361 10.598 71.6821 11.249 71.1081 11.599C70.7441 11.823 70.4081 12.131 70.1001 12.523C69.7921 12.915 69.4561 13.461 69.0921 14.161C69.0221 14.301 68.9871 14.385 68.9871 14.413C68.9871 14.455 69.0641 14.427 69.2181 14.329C69.3721 14.231 69.5891 14.084 69.8691 13.888C70.8491 13.216 71.7311 12.705 72.5151 12.355C73.2991 11.991 73.9501 11.809 74.4681 11.809C74.8181 11.809 75.0981 11.893 75.3081 12.061C75.5741 12.271 75.7421 12.502 75.8121 12.754C75.8961 12.992 75.9591 13.461 76.0011 14.161C76.0291 14.679 76.0641 15.036 76.1061 15.232C76.1481 15.428 76.2041 15.547 76.2741 15.589C76.3161 15.617 76.3861 15.631 76.4841 15.631C76.9041 15.631 77.6531 15.155 78.7311 14.203C79.1231 13.853 79.4311 13.601 79.6551 13.447C79.8791 13.293 80.0611 13.216 80.2011 13.216C80.3411 13.216 80.4531 13.293 80.5371 13.447C80.5791 13.503 80.6001 13.608 80.6001 13.762C80.6001 13.846 80.5931 13.909 80.5791 13.951C80.5231 14.147 80.1451 14.56 79.4451 15.19C78.7591 15.82 78.1991 16.247 77.7651 16.471C77.3451 16.709 76.8901 16.828 76.4001 16.828C76.0781 16.828 75.8121 16.765 75.6021 16.639C75.2941 16.443 75.0911 16.205 74.9931 15.925C74.8951 15.645 74.8251 15.148 74.7831 14.434L74.6991 13.111L74.1741 13.132C73.7961 13.146 73.2291 13.349 72.4731 13.741C71.7171 14.119 70.9051 14.623 70.0371 15.253C69.1831 15.869 68.3991 16.52 67.6851 17.206C67.2511 17.612 66.9501 17.878 66.7821 18.004C66.6141 18.144 66.4741 18.214 66.3621 18.214C66.2501 18.214 66.1451 18.172 66.0471 18.088ZM72.3261 9.058C72.2421 9.198 72.3051 9.198 72.5151 9.058C72.7251 8.904 73.1661 8.533 73.8381 7.945C74.6641 7.231 75.4971 6.454 76.3371 5.614C77.1911 4.76 77.8911 4.004 78.4371 3.346C78.9831 2.674 79.2561 2.247 79.2561 2.065C79.2561 1.953 79.0041 2.051 78.5001 2.359C78.0101 2.667 77.5411 3.024 77.0931 3.43C75.9591 4.452 74.7481 5.81 73.4601 7.504C72.7881 8.4 72.4101 8.918 72.3261 9.058ZM80.535 17.92C79.933 17.78 79.471 17.521 79.149 17.143C78.827 16.765 78.666 16.324 78.666 15.82C78.666 15.344 78.82 14.861 79.128 14.371C79.352 14.021 79.73 13.594 80.262 13.09C80.808 12.586 81.333 12.166 81.837 11.83C82.397 11.452 83.041 11.158 83.769 10.948C84.511 10.724 85.197 10.612 85.827 10.612C86.373 10.612 86.814 10.696 87.15 10.864C87.486 11.032 87.745 11.277 87.927 11.599C88.123 11.921 88.221 12.278 88.221 12.67C88.221 12.978 88.158 13.293 88.032 13.615L87.864 14.035L88.242 13.972C88.396 13.944 89.075 13.734 90.279 13.342C90.755 13.188 91.154 13.062 91.476 12.964C91.812 12.866 92.05 12.817 92.19 12.817C92.302 12.817 92.386 12.845 92.442 12.901C92.512 12.943 92.568 13.013 92.61 13.111C92.666 13.251 92.694 13.335 92.694 13.363C92.694 13.405 92.666 13.461 92.61 13.531C92.568 13.587 92.512 13.65 92.442 13.72C92.232 13.93 91.609 14.21 90.573 14.56C89.551 14.896 88.697 15.106 88.011 15.19C87.521 15.26 87.178 15.33 86.982 15.4C86.8 15.456 86.583 15.582 86.331 15.778C85.435 16.492 84.553 17.045 83.685 17.437C82.817 17.815 82.026 18.004 81.312 18.004C81.018 18.004 80.759 17.976 80.535 17.92ZM86.331 13.888C86.387 13.874 86.464 13.804 86.562 13.678C86.66 13.552 86.751 13.405 86.835 13.237C86.989 12.943 87.066 12.74 87.066 12.628C87.066 12.558 87.031 12.453 86.961 12.313C86.877 12.159 86.751 12.04 86.583 11.956C86.429 11.872 86.254 11.83 86.058 11.83C85.862 11.83 85.638 11.886 85.386 11.998C85.26 12.068 85.127 12.159 84.987 12.271C84.847 12.383 84.756 12.481 84.714 12.565C84.644 12.705 84.609 12.803 84.609 12.859C84.609 12.943 84.686 13.062 84.84 13.216C84.994 13.384 85.239 13.545 85.575 13.699C85.911 13.853 86.163 13.916 86.331 13.888ZM80.598 16.639C80.808 16.723 81.039 16.765 81.291 16.765C81.641 16.765 82.082 16.688 82.614 16.534C83.02 16.422 83.489 16.219 84.021 15.925C84.553 15.631 84.924 15.379 85.134 15.169C85.246 15.057 85.302 14.987 85.302 14.959C85.302 14.903 85.19 14.833 84.966 14.749C84.49 14.567 84.098 14.287 83.79 13.909C83.496 13.517 83.349 13.125 83.349 12.733V12.418L82.719 12.754C82.341 12.95 81.858 13.314 81.27 13.846C80.682 14.378 80.297 14.791 80.115 15.085C79.947 15.351 79.863 15.589 79.863 15.799C79.863 16.163 80.108 16.443 80.598 16.639ZM92.5224 19.369C92.4104 19.341 92.2704 19.271 92.1024 19.159C91.9344 19.061 91.7944 18.956 91.6824 18.844C91.2344 18.396 91.0104 17.815 91.0104 17.101C91.0104 16.555 91.1504 15.897 91.4304 15.127C91.5844 14.707 91.6614 14.434 91.6614 14.308C91.6614 14.224 91.6264 14.161 91.5564 14.119C91.5004 14.091 91.4514 14.035 91.4094 13.951C91.3674 13.853 91.3464 13.748 91.3464 13.636C91.3464 13.482 91.3814 13.37 91.4514 13.3C91.5214 13.216 91.6684 13.125 91.8924 13.027C92.1304 12.929 92.3124 12.803 92.4384 12.649C92.5784 12.495 92.7954 12.159 93.0894 11.641C93.9854 10.059 94.9724 8.582 96.0504 7.21C97.1284 5.838 98.1854 4.69 99.2214 3.766C100.271 2.842 101.188 2.24 101.972 1.96C102.224 1.876 102.448 1.834 102.644 1.834C102.994 1.834 103.274 1.946 103.484 2.17C103.694 2.394 103.799 2.695 103.799 3.073C103.799 3.451 103.701 3.836 103.505 4.228C103.127 4.984 102.308 6.083 101.048 7.525C99.8024 8.953 98.5564 10.213 97.3104 11.305L96.3444 12.145H97.2684C97.6744 12.145 97.9544 12.159 98.1084 12.187C98.2624 12.215 98.3814 12.285 98.4654 12.397C98.6334 12.593 98.7174 12.719 98.7174 12.775C98.7174 12.859 98.6334 12.985 98.4654 13.153C98.3534 13.265 98.2134 13.335 98.0454 13.363C97.8914 13.391 97.5834 13.405 97.1214 13.405C96.0434 13.405 95.1404 13.489 94.4124 13.657C93.6984 13.825 93.2504 14.049 93.0684 14.329C92.9004 14.595 92.7184 15.064 92.5224 15.736C92.3264 16.394 92.2284 16.87 92.2284 17.164C92.2284 17.514 92.3334 17.787 92.5434 17.983C92.7674 18.179 93.0824 18.277 93.4884 18.277C93.9084 18.277 94.4124 18.172 95.0004 17.962C95.6164 17.738 96.2184 17.451 96.8064 17.101C97.3944 16.751 98.1714 16.205 99.1374 15.463C99.8094 14.945 100.278 14.602 100.544 14.434C100.824 14.266 101.048 14.182 101.216 14.182C101.398 14.182 101.51 14.21 101.552 14.266C101.608 14.308 101.65 14.42 101.678 14.602C101.706 14.756 101.678 14.889 101.594 15.001C101.524 15.113 101.286 15.337 100.88 15.673C100.474 15.995 99.9214 16.415 99.2214 16.933C98.1154 17.759 97.0584 18.389 96.0504 18.823C95.0564 19.257 94.1674 19.474 93.3834 19.474C93.1174 19.474 92.8304 19.439 92.5224 19.369ZM94.2864 12.145C94.3144 12.145 94.4264 12.075 94.6224 11.935C94.8324 11.795 95.0494 11.634 95.2734 11.452C96.3234 10.584 97.5554 9.415 98.9694 7.945C100.397 6.475 101.37 5.348 101.888 4.564C102.154 4.172 102.35 3.822 102.476 3.514C102.602 3.206 102.616 3.052 102.518 3.052C102.448 3.052 102.175 3.178 101.699 3.43C101.069 3.766 100.292 4.389 99.3684 5.299C98.4584 6.195 97.5834 7.203 96.7434 8.323C96.1554 9.093 95.5744 9.926 95.0004 10.822C94.4404 11.704 94.2024 12.145 94.2864 12.145ZM100.483 17.689C100.259 17.605 100.077 17.465 99.937 17.269C99.797 17.073 99.727 16.856 99.727 16.618C99.727 16.254 99.846 15.876 100.084 15.484C100.322 15.092 100.742 14.602 101.344 14.014C101.988 13.37 102.66 12.873 103.36 12.523C104.074 12.173 104.774 11.998 105.46 11.998C106.048 11.998 106.601 12.131 107.119 12.397L107.854 12.775L108.421 12.439L109.282 11.914C109.408 11.83 109.513 11.788 109.597 11.788C109.653 11.788 109.716 11.809 109.786 11.851C110.038 12.019 110.164 12.194 110.164 12.376C110.164 12.516 110.101 12.712 109.975 12.964C109.835 13.258 109.723 13.58 109.639 13.93C109.555 14.28 109.513 14.609 109.513 14.917C109.513 15.197 109.541 15.421 109.597 15.589C109.737 16.051 109.94 16.282 110.206 16.282C110.416 16.282 110.675 16.163 110.983 15.925C111.305 15.673 111.732 15.274 112.264 14.728C112.642 14.35 112.985 14.021 113.293 13.741C113.601 13.447 113.79 13.286 113.86 13.258C114.028 13.188 114.189 13.237 114.343 13.405C114.511 13.559 114.574 13.734 114.532 13.93C114.476 14.154 114.042 14.693 113.23 15.547C112.418 16.387 111.83 16.912 111.466 17.122C111.074 17.346 110.647 17.458 110.185 17.458C109.807 17.458 109.492 17.374 109.24 17.206C108.638 16.758 108.337 16.002 108.337 14.938C108.337 14.7 108.33 14.49 108.316 14.308C108.302 14.126 108.281 14.035 108.253 14.035C108.141 14.077 107.931 14.189 107.623 14.371C107.329 14.539 106.972 14.756 106.552 15.022C104.522 16.226 103.122 16.996 102.352 17.332C101.736 17.598 101.197 17.731 100.735 17.731C100.651 17.731 100.567 17.717 100.483 17.689ZM100.966 16.429C100.966 16.513 101.071 16.52 101.281 16.45C101.505 16.38 101.876 16.219 102.394 15.967C102.968 15.687 103.808 15.225 104.914 14.581C106.034 13.923 106.594 13.566 106.594 13.51C106.594 13.426 106.391 13.349 105.985 13.279C105.593 13.195 105.278 13.174 105.04 13.216C104.438 13.314 103.815 13.58 103.171 14.014C102.541 14.434 101.995 14.952 101.533 15.568C101.379 15.764 101.246 15.953 101.134 16.135C101.022 16.303 100.966 16.401 100.966 16.429ZM113.711 19.054C112.983 18.704 112.619 18.081 112.619 17.185C112.619 16.499 112.829 15.708 113.249 14.812C113.529 14.224 114.019 13.398 114.719 12.334C115.433 11.27 116.147 10.29 116.861 9.394C118.471 7.406 120.004 5.754 121.46 4.438C122.93 3.108 124.169 2.261 125.177 1.897C125.541 1.771 125.8 1.708 125.954 1.708C126.094 1.708 126.248 1.736 126.416 1.792C126.668 1.862 126.864 1.995 127.004 2.191C127.144 2.387 127.214 2.625 127.214 2.905C127.214 3.339 127.06 3.815 126.752 4.333C126.262 5.159 125.352 6.202 124.022 7.462C122.692 8.722 121.285 9.884 119.801 10.948C118.331 11.998 117.148 12.67 116.252 12.964C115.93 13.062 115.706 13.167 115.58 13.279C115.468 13.377 115.314 13.587 115.118 13.909C114.264 15.337 113.837 16.408 113.837 17.122C113.837 17.374 113.886 17.57 113.984 17.71C114.068 17.836 114.145 17.913 114.215 17.941C114.285 17.983 114.397 18.004 114.551 18.004C114.957 18.004 115.314 17.969 115.622 17.899C115.93 17.829 116.28 17.696 116.672 17.5C117.204 17.248 118.023 16.758 119.129 16.03C120.249 15.302 121.194 14.637 121.964 14.035C122.608 13.531 123.063 13.279 123.329 13.279C123.455 13.279 123.56 13.328 123.644 13.426C123.742 13.552 123.791 13.664 123.791 13.762C123.791 13.986 123.616 14.252 123.266 14.56C122.86 14.896 122.055 15.491 120.851 16.345C119.647 17.185 118.772 17.759 118.226 18.067C116.826 18.865 115.65 19.264 114.698 19.264C114.306 19.264 113.977 19.194 113.711 19.054ZM117.092 11.242C117.26 11.172 117.701 10.892 118.415 10.402C119.493 9.66 120.62 8.778 121.796 7.756C122.972 6.734 123.952 5.789 124.736 4.921C125.52 4.053 125.912 3.458 125.912 3.136C125.912 3.01 125.87 2.947 125.786 2.947L125.618 2.989C125.184 3.101 124.603 3.43 123.875 3.976C123.161 4.508 122.391 5.173 121.565 5.971C121.019 6.503 120.354 7.21 119.57 8.092C118.786 8.96 118.135 9.716 117.617 10.36C117.113 11.004 116.938 11.298 117.092 11.242ZM126.491 10.318C126.337 10.43 126.204 10.486 126.092 10.486C125.98 10.486 125.861 10.416 125.735 10.276C125.609 10.122 125.546 9.989 125.546 9.877C125.546 9.737 125.609 9.583 125.735 9.415C125.791 9.317 125.868 9.247 125.966 9.205C126.078 9.149 126.183 9.121 126.281 9.121C126.393 9.121 126.491 9.149 126.575 9.205C126.673 9.247 126.736 9.317 126.764 9.415C126.806 9.513 126.827 9.618 126.827 9.73C126.827 9.982 126.715 10.178 126.491 10.318ZM123.257 16.786C123.061 16.66 122.893 16.471 122.753 16.219C122.613 15.953 122.543 15.708 122.543 15.484C122.543 15.232 122.655 14.819 122.879 14.245C123.103 13.657 123.355 13.111 123.635 12.607C123.957 12.061 124.23 11.662 124.454 11.41C124.678 11.144 124.881 11.011 125.063 11.011C125.217 11.011 125.357 11.109 125.483 11.305C125.553 11.417 125.588 11.508 125.588 11.578C125.588 11.662 125.532 11.802 125.42 11.998C125.322 12.194 125.175 12.446 124.979 12.754C124.657 13.286 124.377 13.818 124.139 14.35C123.901 14.882 123.782 15.239 123.782 15.421C123.782 15.687 123.978 15.82 124.37 15.82C124.902 15.82 125.714 15.589 126.806 15.127C127.912 14.651 129.151 14 130.523 13.174C130.943 12.922 131.265 12.747 131.489 12.649C131.713 12.537 131.888 12.481 132.014 12.481C132.168 12.481 132.301 12.579 132.413 12.775C132.441 12.817 132.455 12.887 132.455 12.985C132.455 13.139 132.35 13.314 132.14 13.51C131.93 13.706 131.587 13.951 131.111 14.245C130.537 14.609 129.697 15.071 128.591 15.631C127.485 16.177 126.694 16.534 126.218 16.702C125.644 16.884 125.028 16.975 124.37 16.975C123.81 16.975 123.439 16.912 123.257 16.786ZM130.337 25.375C130.197 25.375 130.043 25.34 129.875 25.27C129.511 25.116 129.329 24.808 129.329 24.346C129.329 23.954 129.455 23.485 129.707 22.939C129.959 22.393 130.323 21.798 130.799 21.154C131.275 20.51 132.052 19.642 133.13 18.55C134.222 17.458 135.223 16.527 136.133 15.757L137.036 15.001C137.428 14.651 137.631 14.476 137.645 14.476C137.673 14.434 137.708 14.371 137.75 14.287C137.792 14.189 137.834 14.084 137.876 13.972C137.974 13.776 138.023 13.65 138.023 13.594C138.023 13.58 138.016 13.573 138.002 13.573C137.988 13.573 137.932 13.608 137.834 13.678C135.342 15.54 133.557 16.471 132.479 16.471C132.311 16.471 132.164 16.45 132.038 16.408C131.492 16.226 131.219 15.806 131.219 15.148C131.219 14.77 131.317 14.329 131.513 13.825C131.709 13.321 131.996 12.796 132.374 12.25C132.528 12.026 132.689 11.823 132.857 11.641C133.025 11.445 133.151 11.312 133.235 11.242C133.403 11.116 133.606 11.053 133.844 11.053C134.04 11.053 134.187 11.102 134.285 11.2C134.383 11.298 134.432 11.403 134.432 11.515C134.432 11.725 134.236 12.019 133.844 12.397C133.564 12.663 133.27 13.055 132.962 13.573C132.668 14.077 132.472 14.511 132.374 14.875C132.304 15.113 132.374 15.232 132.584 15.232C132.766 15.232 133.116 15.113 133.634 14.875C134.236 14.595 134.831 14.259 135.419 13.867C136.021 13.475 136.735 12.957 137.561 12.313C138.023 11.949 138.387 11.69 138.653 11.536C138.919 11.368 139.129 11.284 139.283 11.284C139.465 11.284 139.605 11.396 139.703 11.62C139.745 11.718 139.766 11.83 139.766 11.956C139.766 12.082 139.745 12.25 139.703 12.46C139.619 12.824 139.584 13.006 139.598 13.006C139.668 12.964 139.808 12.873 140.018 12.733C140.242 12.579 140.501 12.39 140.795 12.166C141.103 11.928 141.39 11.725 141.656 11.557C141.922 11.375 142.076 11.284 142.118 11.284C142.216 11.284 142.328 11.368 142.454 11.536C142.594 11.69 142.664 11.823 142.664 11.935C142.664 12.075 142.489 12.299 142.139 12.607C141.789 12.901 141.18 13.37 140.312 14.014L138.758 15.148L137.876 16.87C137.134 18.312 136.364 19.579 135.566 20.671C134.768 21.763 133.879 22.778 132.899 23.716C132.409 24.178 131.912 24.57 131.408 24.892C130.918 25.214 130.561 25.375 130.337 25.375ZM130.568 23.947C130.568 24.059 130.729 23.989 131.051 23.737C131.387 23.485 131.807 23.107 132.311 22.603C132.619 22.295 132.969 21.917 133.361 21.469C133.753 21.021 134.068 20.643 134.306 20.335C134.74 19.761 135.181 19.117 135.629 18.403C136.077 17.703 136.28 17.332 136.238 17.29C136.182 17.234 135.839 17.507 135.209 18.109C134.593 18.725 133.921 19.432 133.193 20.23C132.465 21.028 131.933 21.651 131.597 22.099C131.415 22.337 131.198 22.687 130.946 23.149C130.694 23.611 130.568 23.877 130.568 23.947ZM140.923 17.689C140.699 17.605 140.517 17.465 140.377 17.269C140.237 17.073 140.167 16.856 140.167 16.618C140.167 16.254 140.286 15.876 140.524 15.484C140.762 15.092 141.182 14.602 141.784 14.014C142.428 13.37 143.1 12.873 143.8 12.523C144.514 12.173 145.214 11.998 145.9 11.998C146.488 11.998 147.041 12.131 147.559 12.397L148.294 12.775L148.861 12.439L149.722 11.914C149.848 11.83 149.953 11.788 150.037 11.788C150.093 11.788 150.156 11.809 150.226 11.851C150.478 12.019 150.604 12.194 150.604 12.376C150.604 12.516 150.541 12.712 150.415 12.964C150.275 13.258 150.163 13.58 150.079 13.93C149.995 14.28 149.953 14.609 149.953 14.917C149.953 15.197 149.981 15.421 150.037 15.589C150.177 16.051 150.38 16.282 150.646 16.282C150.856 16.282 151.115 16.163 151.423 15.925C151.745 15.673 152.172 15.274 152.704 14.728C153.082 14.35 153.425 14.021 153.733 13.741C154.041 13.447 154.23 13.286 154.3 13.258C154.468 13.188 154.629 13.237 154.783 13.405C154.951 13.559 155.014 13.734 154.972 13.93C154.916 14.154 154.482 14.693 153.67 15.547C152.858 16.387 152.27 16.912 151.906 17.122C151.514 17.346 151.087 17.458 150.625 17.458C150.247 17.458 149.932 17.374 149.68 17.206C149.078 16.758 148.777 16.002 148.777 14.938C148.777 14.7 148.77 14.49 148.756 14.308C148.742 14.126 148.721 14.035 148.693 14.035C148.581 14.077 148.371 14.189 148.063 14.371C147.769 14.539 147.412 14.756 146.992 15.022C144.962 16.226 143.562 16.996 142.792 17.332C142.176 17.598 141.637 17.731 141.175 17.731C141.091 17.731 141.007 17.717 140.923 17.689ZM141.406 16.429C141.406 16.513 141.511 16.52 141.721 16.45C141.945 16.38 142.316 16.219 142.834 15.967C143.408 15.687 144.248 15.225 145.354 14.581C146.474 13.923 147.034 13.566 147.034 13.51C147.034 13.426 146.831 13.349 146.425 13.279C146.033 13.195 145.718 13.174 145.48 13.216C144.878 13.314 144.255 13.58 143.611 14.014C142.981 14.434 142.435 14.952 141.973 15.568C141.819 15.764 141.686 15.953 141.574 16.135C141.462 16.303 141.406 16.401 141.406 16.429Z" fill="#47463A"/>
</svg>
