<svg width="135" height="21" viewBox="0 0 135 21" fill="none" xmlns="http://www.w3.org/2000/svg">
<path d="M0.929 19.915C0.873 19.859 0.831 19.789 0.803 19.705C0.761 19.635 0.74 19.572 0.74 19.516C0.74 19.446 1.195 18.522 2.105 16.744C3.015 14.952 3.603 13.832 3.869 13.384C5.353 10.864 6.403 9.163 7.019 8.281C7.271 7.931 7.488 7.616 7.67 7.336C7.852 7.042 7.929 6.895 7.901 6.895C7.831 6.895 7.663 6.979 7.397 7.147C7.215 7.273 7.061 7.336 6.935 7.336C6.851 7.336 6.76 7.315 6.662 7.273C6.452 7.189 6.347 7.028 6.347 6.79C6.347 6.538 6.459 6.328 6.683 6.16C7.103 5.852 7.775 5.586 8.699 5.362C9.623 5.138 10.533 5.026 11.429 5.026C12.339 5.026 13.109 5.131 13.739 5.341C14.369 5.537 14.901 5.852 15.335 6.286C15.825 6.776 16.07 7.308 16.07 7.882C16.07 8.582 15.706 9.289 14.978 10.003C14.264 10.717 13.235 11.389 11.891 12.019C11.163 12.355 10.225 12.712 9.077 13.09C7.943 13.468 6.984 13.734 6.2 13.888L4.856 14.161L3.407 16.912C2.427 18.76 1.881 19.754 1.769 19.894C1.643 20.034 1.503 20.104 1.349 20.104C1.195 20.104 1.055 20.041 0.929 19.915ZM5.738 12.691C5.738 12.719 5.85 12.712 6.074 12.67C6.298 12.628 6.648 12.544 7.124 12.418C7.768 12.264 8.531 12.026 9.413 11.704C10.309 11.368 11.114 11.025 11.828 10.675C12.78 10.213 13.515 9.737 14.033 9.247C14.565 8.743 14.831 8.281 14.831 7.861C14.831 7.693 14.775 7.518 14.663 7.336C14.453 7.014 14.019 6.741 13.361 6.517C12.703 6.293 12.024 6.181 11.324 6.181C11.072 6.181 10.883 6.188 10.757 6.202L9.98 6.286L9.182 7.378C8.566 8.218 7.838 9.289 6.998 10.591C6.158 11.879 5.738 12.579 5.738 12.691ZM12.7886 17.29C12.7046 17.29 12.5926 17.22 12.4526 17.08C12.3266 16.954 12.2636 16.814 12.2636 16.66C12.2636 16.408 12.4666 15.946 12.8726 15.274C13.3626 14.476 13.9086 13.636 14.5106 12.754C15.1126 11.872 15.4976 11.347 15.6656 11.179C15.8476 10.997 16.0436 10.906 16.2536 10.906C16.3796 10.906 16.4846 10.948 16.5686 11.032C16.6666 11.116 16.7156 11.228 16.7156 11.368C16.7156 11.494 16.6526 11.669 16.5266 11.893C16.4006 12.117 16.1836 12.446 15.8756 12.88C15.2876 13.692 14.9936 14.133 14.9936 14.203C14.9936 14.245 15.2736 14.091 15.8336 13.741C16.9816 13.013 18.1366 12.341 19.2986 11.725C20.4746 11.109 21.1746 10.801 21.3986 10.801C21.5946 10.801 21.7486 10.878 21.8606 11.032C21.9866 11.172 22.0496 11.375 22.0496 11.641C22.0496 11.795 22.0426 11.914 22.0286 11.998C22.0006 12.25 21.9866 12.397 21.9866 12.439C21.9866 12.621 22.0636 12.782 22.2176 12.922C22.3576 13.062 22.5256 13.132 22.7216 13.132C22.8476 13.132 22.9596 13.125 23.0576 13.111C23.3796 13.069 23.7926 12.936 24.2966 12.712C24.8006 12.474 25.2136 12.229 25.5356 11.977C25.7876 11.767 26.0186 11.662 26.2286 11.662C26.3546 11.662 26.4666 11.711 26.5646 11.809C26.6766 11.921 26.7326 12.04 26.7326 12.166C26.7326 12.558 26.1306 13.083 24.9266 13.741C24.4786 13.979 24.1216 14.133 23.8556 14.203C23.5896 14.259 23.1556 14.287 22.5536 14.287C22.3296 14.287 22.1616 14.273 22.0496 14.245C21.9376 14.203 21.7906 14.126 21.6086 14.014C21.3146 13.832 21.0836 13.524 20.9156 13.09C20.7616 12.684 20.6706 12.467 20.6426 12.439C20.5726 12.369 19.6766 12.859 17.9546 13.909C16.2466 14.945 14.9656 15.778 14.1116 16.408C13.3136 16.996 12.8726 17.29 12.7886 17.29ZM25.3868 17.689C25.1628 17.605 24.9808 17.465 24.8408 17.269C24.7008 17.073 24.6308 16.856 24.6308 16.618C24.6308 16.254 24.7498 15.876 24.9878 15.484C25.2258 15.092 25.6458 14.602 26.2478 14.014C26.8918 13.37 27.5638 12.873 28.2638 12.523C28.9778 12.173 29.6778 11.998 30.3638 11.998C30.9518 11.998 31.5048 12.131 32.0228 12.397L32.7578 12.775L33.3248 12.439L34.1858 11.914C34.3118 11.83 34.4168 11.788 34.5008 11.788C34.5568 11.788 34.6198 11.809 34.6898 11.851C34.9418 12.019 35.0678 12.194 35.0678 12.376C35.0678 12.516 35.0048 12.712 34.8788 12.964C34.7388 13.258 34.6268 13.58 34.5428 13.93C34.4588 14.28 34.4168 14.609 34.4168 14.917C34.4168 15.197 34.4448 15.421 34.5008 15.589C34.6408 16.051 34.8438 16.282 35.1098 16.282C35.3198 16.282 35.5788 16.163 35.8868 15.925C36.2088 15.673 36.6358 15.274 37.1678 14.728C37.5458 14.35 37.8888 14.021 38.1968 13.741C38.5048 13.447 38.6938 13.286 38.7638 13.258C38.9318 13.188 39.0928 13.237 39.2468 13.405C39.4148 13.559 39.4778 13.734 39.4358 13.93C39.3798 14.154 38.9458 14.693 38.1338 15.547C37.3218 16.387 36.7338 16.912 36.3698 17.122C35.9778 17.346 35.5508 17.458 35.0888 17.458C34.7108 17.458 34.3958 17.374 34.1438 17.206C33.5418 16.758 33.2408 16.002 33.2408 14.938C33.2408 14.7 33.2338 14.49 33.2198 14.308C33.2058 14.126 33.1848 14.035 33.1568 14.035C33.0448 14.077 32.8348 14.189 32.5268 14.371C32.2328 14.539 31.8758 14.756 31.4558 15.022C29.4258 16.226 28.0258 16.996 27.2558 17.332C26.6398 17.598 26.1008 17.731 25.6388 17.731C25.5548 17.731 25.4708 17.717 25.3868 17.689ZM25.8698 16.429C25.8698 16.513 25.9748 16.52 26.1848 16.45C26.4088 16.38 26.7798 16.219 27.2978 15.967C27.8718 15.687 28.7118 15.225 29.8178 14.581C30.9378 13.923 31.4978 13.566 31.4978 13.51C31.4978 13.426 31.2948 13.349 30.8888 13.279C30.4968 13.195 30.1818 13.174 29.9438 13.216C29.3418 13.314 28.7188 13.58 28.0748 14.014C27.4448 14.434 26.8988 14.952 26.4368 15.568C26.2828 15.764 26.1498 15.953 26.0378 16.135C25.9258 16.303 25.8698 16.401 25.8698 16.429ZM39.0297 16.87C38.7357 16.772 38.4697 16.604 38.2317 16.366C37.9937 16.114 37.8467 15.862 37.7907 15.61C37.7767 15.568 37.7697 15.491 37.7697 15.379C37.7697 14.791 38.0987 14.133 38.7567 13.405C39.4287 12.677 40.2687 12.061 41.2767 11.557C41.7667 11.319 42.1307 11.165 42.3687 11.095C42.6067 11.025 42.8937 10.99 43.2297 10.99C43.8317 10.99 44.2867 11.123 44.5947 11.389C44.9167 11.655 45.0777 12.047 45.0777 12.565C45.0777 12.775 45.0077 12.985 44.8677 13.195C44.7417 13.405 44.6157 13.51 44.4897 13.51C44.3637 13.51 44.2447 13.44 44.1327 13.3C44.0207 13.146 43.9507 12.971 43.9227 12.775C43.8947 12.551 43.8317 12.39 43.7337 12.292C43.6497 12.194 43.5237 12.145 43.3557 12.145C43.1317 12.145 42.8447 12.208 42.4947 12.334C41.8647 12.558 41.1857 12.957 40.4577 13.531C39.7297 14.105 39.2747 14.602 39.0927 15.022C39.0227 15.19 38.9877 15.295 38.9877 15.337C38.9877 15.393 39.0087 15.449 39.0507 15.505C39.1067 15.547 39.1417 15.575 39.1557 15.589C39.3377 15.715 39.6247 15.778 40.0167 15.778C40.7867 15.778 41.8927 15.547 43.3347 15.085C44.7767 14.609 46.3517 13.958 48.0597 13.132C49.2637 12.544 49.9217 12.25 50.0337 12.25C50.0757 12.25 50.1317 12.285 50.2017 12.355C50.2717 12.411 50.3347 12.481 50.3907 12.565C50.4747 12.691 50.5167 12.803 50.5167 12.901C50.5167 13.069 50.3767 13.244 50.0967 13.426C49.8307 13.594 49.3127 13.867 48.5427 14.245C46.1347 15.393 44.1817 16.17 42.6837 16.576C42.2497 16.688 41.7737 16.779 41.2557 16.849C40.7377 16.919 40.2687 16.954 39.8487 16.954C39.4707 16.954 39.1977 16.926 39.0297 16.87ZM47.2735 18.088C47.1055 17.962 47.0215 17.801 47.0215 17.605C47.0215 17.465 47.0635 17.311 47.1475 17.143C47.4135 16.639 48.1135 15.449 49.2475 13.573C50.3955 11.683 51.2005 10.388 51.6625 9.688C53.2165 7.378 54.6795 5.474 56.0515 3.976C57.4375 2.478 58.6415 1.491 59.6635 1.015C60.0975 0.818999 60.4405 0.720999 60.6925 0.720999C60.9725 0.720999 61.2245 0.818999 61.4485 1.015C61.6725 1.197 61.7845 1.449 61.7845 1.771C61.7845 2.387 61.3925 3.178 60.6085 4.144C60.1185 4.746 59.3275 5.572 58.2355 6.622C57.1435 7.672 56.0305 8.68 54.8965 9.646C53.7625 10.598 52.9085 11.249 52.3345 11.599C51.9705 11.823 51.6345 12.131 51.3265 12.523C51.0185 12.915 50.6825 13.461 50.3185 14.161C50.2485 14.301 50.2135 14.385 50.2135 14.413C50.2135 14.455 50.2905 14.427 50.4445 14.329C50.5985 14.231 50.8155 14.084 51.0955 13.888C52.0755 13.216 52.9575 12.705 53.7415 12.355C54.5255 11.991 55.1765 11.809 55.6945 11.809C56.0445 11.809 56.3245 11.893 56.5345 12.061C56.8005 12.271 56.9685 12.502 57.0385 12.754C57.1225 12.992 57.1855 13.461 57.2275 14.161C57.2555 14.679 57.2905 15.036 57.3325 15.232C57.3745 15.428 57.4305 15.547 57.5005 15.589C57.5425 15.617 57.6125 15.631 57.7105 15.631C58.1305 15.631 58.8795 15.155 59.9575 14.203C60.3495 13.853 60.6575 13.601 60.8815 13.447C61.1055 13.293 61.2875 13.216 61.4275 13.216C61.5675 13.216 61.6795 13.293 61.7635 13.447C61.8055 13.503 61.8265 13.608 61.8265 13.762C61.8265 13.846 61.8195 13.909 61.8055 13.951C61.7495 14.147 61.3715 14.56 60.6715 15.19C59.9855 15.82 59.4255 16.247 58.9915 16.471C58.5715 16.709 58.1165 16.828 57.6265 16.828C57.3045 16.828 57.0385 16.765 56.8285 16.639C56.5205 16.443 56.3175 16.205 56.2195 15.925C56.1215 15.645 56.0515 15.148 56.0095 14.434L55.9255 13.111L55.4005 13.132C55.0225 13.146 54.4555 13.349 53.6995 13.741C52.9435 14.119 52.1315 14.623 51.2635 15.253C50.4095 15.869 49.6255 16.52 48.9115 17.206C48.4775 17.612 48.1765 17.878 48.0085 18.004C47.8405 18.144 47.7005 18.214 47.5885 18.214C47.4765 18.214 47.3715 18.172 47.2735 18.088ZM53.5525 9.058C53.4685 9.198 53.5315 9.198 53.7415 9.058C53.9515 8.904 54.3925 8.533 55.0645 7.945C55.8905 7.231 56.7235 6.454 57.5635 5.614C58.4175 4.76 59.1175 4.004 59.6635 3.346C60.2095 2.674 60.4825 2.247 60.4825 2.065C60.4825 1.953 60.2305 2.051 59.7265 2.359C59.2365 2.667 58.7675 3.024 58.3195 3.43C57.1855 4.452 55.9745 5.81 54.6865 7.504C54.0145 8.4 53.6365 8.918 53.5525 9.058ZM64.3864 10.318C64.2324 10.43 64.0994 10.486 63.9874 10.486C63.8754 10.486 63.7564 10.416 63.6304 10.276C63.5044 10.122 63.4414 9.989 63.4414 9.877C63.4414 9.737 63.5044 9.583 63.6304 9.415C63.6864 9.317 63.7634 9.247 63.8614 9.205C63.9734 9.149 64.0784 9.121 64.1764 9.121C64.2884 9.121 64.3864 9.149 64.4704 9.205C64.5684 9.247 64.6314 9.317 64.6594 9.415C64.7014 9.513 64.7224 9.618 64.7224 9.73C64.7224 9.982 64.6104 10.178 64.3864 10.318ZM61.1524 16.786C60.9564 16.66 60.7884 16.471 60.6484 16.219C60.5084 15.953 60.4384 15.708 60.4384 15.484C60.4384 15.232 60.5504 14.819 60.7744 14.245C60.9984 13.657 61.2504 13.111 61.5304 12.607C61.8524 12.061 62.1254 11.662 62.3494 11.41C62.5734 11.144 62.7764 11.011 62.9584 11.011C63.1124 11.011 63.2524 11.109 63.3784 11.305C63.4484 11.417 63.4834 11.508 63.4834 11.578C63.4834 11.662 63.4274 11.802 63.3154 11.998C63.2174 12.194 63.0704 12.446 62.8744 12.754C62.5524 13.286 62.2724 13.818 62.0344 14.35C61.7964 14.882 61.6774 15.239 61.6774 15.421C61.6774 15.687 61.8734 15.82 62.2654 15.82C62.7974 15.82 63.6094 15.589 64.7014 15.127C65.8074 14.651 67.0464 14 68.4184 13.174C68.8384 12.922 69.1604 12.747 69.3844 12.649C69.6084 12.537 69.7834 12.481 69.9094 12.481C70.0634 12.481 70.1964 12.579 70.3084 12.775C70.3364 12.817 70.3504 12.887 70.3504 12.985C70.3504 13.139 70.2454 13.314 70.0354 13.51C69.8254 13.706 69.4824 13.951 69.0064 14.245C68.4324 14.609 67.5924 15.071 66.4864 15.631C65.3804 16.177 64.5894 16.534 64.1134 16.702C63.5394 16.884 62.9234 16.975 62.2654 16.975C61.7054 16.975 61.3344 16.912 61.1524 16.786ZM83.5108 19.495C83.3708 19.635 83.2168 19.705 83.0488 19.705C82.8108 19.705 82.6498 19.6 82.5658 19.39C82.5098 19.25 82.4818 19.152 82.4818 19.096C82.4818 19.012 82.5588 18.83 82.7128 18.55C84.9528 14.616 86.4928 11.767 87.3328 10.003C88.1728 8.239 88.5928 7.042 88.5928 6.412C88.5928 6.244 88.5788 6.132 88.5508 6.076C88.5368 6.02 88.5018 5.992 88.4458 5.992L88.1938 6.034C87.7458 6.132 87.1228 6.482 86.3248 7.084C85.5268 7.686 84.7078 8.421 83.8678 9.289C83.0278 10.143 82.3278 10.976 81.7678 11.788C81.4318 12.278 81.1518 12.67 80.9278 12.964C80.7038 13.258 80.5428 13.44 80.4448 13.51C80.3608 13.566 80.2488 13.594 80.1088 13.594C79.9128 13.594 79.7588 13.545 79.6468 13.447C79.5348 13.349 79.4788 13.209 79.4788 13.027C79.4788 12.887 79.6468 12.04 79.9828 10.486C80.3188 8.96 80.4728 8.183 80.4448 8.155C80.4028 8.113 80.0318 8.792 79.3318 10.192C78.6318 11.578 78.0858 12.712 77.6938 13.594C77.5398 13.944 77.2528 14.637 76.8328 15.673L76.2448 17.08C75.7128 18.368 75.3838 19.089 75.2578 19.243C75.1598 19.383 75.0338 19.453 74.8798 19.453C74.6978 19.453 74.5438 19.348 74.4178 19.138C74.3478 19.04 74.3128 18.942 74.3128 18.844C74.3128 18.732 74.3758 18.501 74.5018 18.151C74.6278 17.815 74.8028 17.367 75.0268 16.807C75.8808 14.665 76.6788 12.817 77.4208 11.263C78.1628 9.709 78.9468 8.239 79.7728 6.853C80.1928 6.167 80.4938 5.684 80.6758 5.404C80.8718 5.124 81.0398 4.949 81.1798 4.879C81.3198 4.795 81.4878 4.76 81.6838 4.774C81.9078 4.802 82.0618 4.844 82.1458 4.9C82.2438 4.956 82.2928 5.089 82.2928 5.299C82.2928 5.481 82.2508 5.775 82.1668 6.181C82.0968 6.573 81.9988 7.035 81.8728 7.567C81.5228 9.093 81.3478 9.94 81.3478 10.108C81.3478 10.136 81.3548 10.15 81.3688 10.15C81.4248 10.15 81.5298 10.052 81.6838 9.856C82.2578 9.086 83.0908 8.225 84.1828 7.273C85.2748 6.307 86.1778 5.635 86.8918 5.257C87.4658 4.949 87.9838 4.795 88.4458 4.795C89.0338 4.795 89.4328 5.047 89.6428 5.551C89.7548 5.845 89.8108 6.139 89.8108 6.433C89.8108 6.895 89.6708 7.49 89.3908 8.218C89.1248 8.946 88.6698 9.947 88.0258 11.221C87.3678 12.509 86.4788 14.182 85.3588 16.24C84.2528 18.284 83.6368 19.369 83.5108 19.495ZM89.8099 17.122C89.4879 16.982 89.2359 16.765 89.0539 16.471C88.8719 16.163 88.7809 15.827 88.7809 15.463C88.7809 15.155 88.8439 14.854 88.9699 14.56C89.1099 14.238 89.4809 13.79 90.0829 13.216C90.6989 12.642 91.2869 12.187 91.8469 11.851C92.8829 11.235 93.7859 10.927 94.5559 10.927C94.9339 10.927 95.2279 11.011 95.4379 11.179C95.6619 11.347 95.7739 11.585 95.7739 11.893C95.7739 12.173 95.6899 12.446 95.5219 12.712C95.3679 12.964 95.1159 13.23 94.7659 13.51C94.3039 13.86 93.6459 14.245 92.7919 14.665C91.9379 15.071 91.2799 15.316 90.8179 15.4C90.5379 15.456 90.3419 15.512 90.2299 15.568C90.1179 15.61 90.0619 15.666 90.0619 15.736C90.0619 15.876 90.2229 15.995 90.5449 16.093C90.8809 16.177 91.2309 16.205 91.5949 16.177C92.4349 16.079 93.3309 15.848 94.2829 15.484C95.2489 15.106 96.4529 14.511 97.8949 13.699C98.3989 13.419 98.8679 13.174 99.3019 12.964C99.7359 12.74 99.9809 12.628 100.037 12.628C100.191 12.628 100.324 12.726 100.436 12.922C100.548 13.104 100.576 13.272 100.52 13.426C100.464 13.566 100.065 13.86 99.3229 14.308C98.5809 14.742 97.5869 15.267 96.3409 15.883C95.3469 16.373 94.4089 16.744 93.5269 16.996C92.6589 17.248 91.8889 17.374 91.2169 17.374C90.6569 17.374 90.1879 17.29 89.8099 17.122ZM91.1539 14.077C91.4619 13.965 91.8609 13.79 92.3509 13.552C92.8129 13.314 93.2749 13.041 93.7369 12.733C94.2129 12.411 94.4229 12.222 94.3669 12.166C94.2969 12.096 94.0239 12.166 93.5479 12.376C93.0719 12.586 92.5749 12.852 92.0569 13.174C91.5389 13.482 91.1959 13.734 91.0279 13.93C90.9579 14.028 90.9229 14.084 90.9229 14.098C90.9229 14.112 90.9299 14.119 90.9439 14.119L91.1539 14.077ZM97.6694 18.088C97.5014 17.962 97.4174 17.801 97.4174 17.605C97.4174 17.465 97.4594 17.311 97.5434 17.143C97.8094 16.639 98.5094 15.449 99.6434 13.573C100.791 11.683 101.596 10.388 102.058 9.688C103.612 7.378 105.075 5.474 106.447 3.976C107.833 2.478 109.037 1.491 110.059 1.015C110.493 0.818999 110.836 0.720999 111.088 0.720999C111.368 0.720999 111.62 0.818999 111.844 1.015C112.068 1.197 112.18 1.449 112.18 1.771C112.18 2.387 111.788 3.178 111.004 4.144C110.514 4.746 109.723 5.572 108.631 6.622C107.539 7.672 106.426 8.68 105.292 9.646C104.158 10.598 103.304 11.249 102.73 11.599C102.366 11.823 102.03 12.131 101.722 12.523C101.414 12.915 101.078 13.461 100.714 14.161C100.644 14.301 100.609 14.385 100.609 14.413C100.609 14.455 100.686 14.427 100.84 14.329C100.994 14.231 101.211 14.084 101.491 13.888C102.471 13.216 103.353 12.705 104.137 12.355C104.921 11.991 105.572 11.809 106.09 11.809C106.44 11.809 106.72 11.893 106.93 12.061C107.196 12.271 107.364 12.502 107.434 12.754C107.518 12.992 107.581 13.461 107.623 14.161C107.651 14.679 107.686 15.036 107.728 15.232C107.77 15.428 107.826 15.547 107.896 15.589C107.938 15.617 108.008 15.631 108.106 15.631C108.526 15.631 109.275 15.155 110.353 14.203C110.745 13.853 111.053 13.601 111.277 13.447C111.501 13.293 111.683 13.216 111.823 13.216C111.963 13.216 112.075 13.293 112.159 13.447C112.201 13.503 112.222 13.608 112.222 13.762C112.222 13.846 112.215 13.909 112.201 13.951C112.145 14.147 111.767 14.56 111.067 15.19C110.381 15.82 109.821 16.247 109.387 16.471C108.967 16.709 108.512 16.828 108.022 16.828C107.7 16.828 107.434 16.765 107.224 16.639C106.916 16.443 106.713 16.205 106.615 15.925C106.517 15.645 106.447 15.148 106.405 14.434L106.321 13.111L105.796 13.132C105.418 13.146 104.851 13.349 104.095 13.741C103.339 14.119 102.527 14.623 101.659 15.253C100.805 15.869 100.021 16.52 99.3074 17.206C98.8734 17.612 98.5724 17.878 98.4044 18.004C98.2364 18.144 98.0964 18.214 97.9844 18.214C97.8724 18.214 97.7674 18.172 97.6694 18.088ZM103.948 9.058C103.864 9.198 103.927 9.198 104.137 9.058C104.347 8.904 104.788 8.533 105.46 7.945C106.286 7.231 107.119 6.454 107.959 5.614C108.813 4.76 109.513 4.004 110.059 3.346C110.605 2.674 110.878 2.247 110.878 2.065C110.878 1.953 110.626 2.051 110.122 2.359C109.632 2.667 109.163 3.024 108.715 3.43C107.581 4.452 106.37 5.81 105.082 7.504C104.41 8.4 104.032 8.918 103.948 9.058ZM112.199 19.369C112.087 19.341 111.947 19.271 111.779 19.159C111.611 19.061 111.471 18.956 111.359 18.844C110.911 18.396 110.687 17.815 110.687 17.101C110.687 16.555 110.827 15.897 111.107 15.127C111.261 14.707 111.338 14.434 111.338 14.308C111.338 14.224 111.303 14.161 111.233 14.119C111.177 14.091 111.128 14.035 111.086 13.951C111.044 13.853 111.023 13.748 111.023 13.636C111.023 13.482 111.058 13.37 111.128 13.3C111.198 13.216 111.345 13.125 111.569 13.027C111.807 12.929 111.989 12.803 112.115 12.649C112.255 12.495 112.472 12.159 112.766 11.641C113.662 10.059 114.649 8.582 115.727 7.21C116.805 5.838 117.862 4.69 118.898 3.766C119.948 2.842 120.865 2.24 121.649 1.96C121.901 1.876 122.125 1.834 122.321 1.834C122.671 1.834 122.951 1.946 123.161 2.17C123.371 2.394 123.476 2.695 123.476 3.073C123.476 3.451 123.378 3.836 123.182 4.228C122.804 4.984 121.985 6.083 120.725 7.525C119.479 8.953 118.233 10.213 116.987 11.305L116.021 12.145H116.945C117.351 12.145 117.631 12.159 117.785 12.187C117.939 12.215 118.058 12.285 118.142 12.397C118.31 12.593 118.394 12.719 118.394 12.775C118.394 12.859 118.31 12.985 118.142 13.153C118.03 13.265 117.89 13.335 117.722 13.363C117.568 13.391 117.26 13.405 116.798 13.405C115.72 13.405 114.817 13.489 114.089 13.657C113.375 13.825 112.927 14.049 112.745 14.329C112.577 14.595 112.395 15.064 112.199 15.736C112.003 16.394 111.905 16.87 111.905 17.164C111.905 17.514 112.01 17.787 112.22 17.983C112.444 18.179 112.759 18.277 113.165 18.277C113.585 18.277 114.089 18.172 114.677 17.962C115.293 17.738 115.895 17.451 116.483 17.101C117.071 16.751 117.848 16.205 118.814 15.463C119.486 14.945 119.955 14.602 120.221 14.434C120.501 14.266 120.725 14.182 120.893 14.182C121.075 14.182 121.187 14.21 121.229 14.266C121.285 14.308 121.327 14.42 121.355 14.602C121.383 14.756 121.355 14.889 121.271 15.001C121.201 15.113 120.963 15.337 120.557 15.673C120.151 15.995 119.598 16.415 118.898 16.933C117.792 17.759 116.735 18.389 115.727 18.823C114.733 19.257 113.844 19.474 113.06 19.474C112.794 19.474 112.507 19.439 112.199 19.369ZM113.963 12.145C113.991 12.145 114.103 12.075 114.299 11.935C114.509 11.795 114.726 11.634 114.95 11.452C116 10.584 117.232 9.415 118.646 7.945C120.074 6.475 121.047 5.348 121.565 4.564C121.831 4.172 122.027 3.822 122.153 3.514C122.279 3.206 122.293 3.052 122.195 3.052C122.125 3.052 121.852 3.178 121.376 3.43C120.746 3.766 119.969 4.389 119.045 5.299C118.135 6.195 117.26 7.203 116.42 8.323C115.832 9.093 115.251 9.926 114.677 10.822C114.117 11.704 113.879 12.145 113.963 12.145ZM120.16 17.689C119.936 17.605 119.754 17.465 119.614 17.269C119.474 17.073 119.404 16.856 119.404 16.618C119.404 16.254 119.523 15.876 119.761 15.484C119.999 15.092 120.419 14.602 121.021 14.014C121.665 13.37 122.337 12.873 123.037 12.523C123.751 12.173 124.451 11.998 125.137 11.998C125.725 11.998 126.278 12.131 126.796 12.397L127.531 12.775L128.098 12.439L128.959 11.914C129.085 11.83 129.19 11.788 129.274 11.788C129.33 11.788 129.393 11.809 129.463 11.851C129.715 12.019 129.841 12.194 129.841 12.376C129.841 12.516 129.778 12.712 129.652 12.964C129.512 13.258 129.4 13.58 129.316 13.93C129.232 14.28 129.19 14.609 129.19 14.917C129.19 15.197 129.218 15.421 129.274 15.589C129.414 16.051 129.617 16.282 129.883 16.282C130.093 16.282 130.352 16.163 130.66 15.925C130.982 15.673 131.409 15.274 131.941 14.728C132.319 14.35 132.662 14.021 132.97 13.741C133.278 13.447 133.467 13.286 133.537 13.258C133.705 13.188 133.866 13.237 134.02 13.405C134.188 13.559 134.251 13.734 134.209 13.93C134.153 14.154 133.719 14.693 132.907 15.547C132.095 16.387 131.507 16.912 131.143 17.122C130.751 17.346 130.324 17.458 129.862 17.458C129.484 17.458 129.169 17.374 128.917 17.206C128.315 16.758 128.014 16.002 128.014 14.938C128.014 14.7 128.007 14.49 127.993 14.308C127.979 14.126 127.958 14.035 127.93 14.035C127.818 14.077 127.608 14.189 127.3 14.371C127.006 14.539 126.649 14.756 126.229 15.022C124.199 16.226 122.799 16.996 122.029 17.332C121.413 17.598 120.874 17.731 120.412 17.731C120.328 17.731 120.244 17.717 120.16 17.689ZM120.643 16.429C120.643 16.513 120.748 16.52 120.958 16.45C121.182 16.38 121.553 16.219 122.071 15.967C122.645 15.687 123.485 15.225 124.591 14.581C125.711 13.923 126.271 13.566 126.271 13.51C126.271 13.426 126.068 13.349 125.662 13.279C125.27 13.195 124.955 13.174 124.717 13.216C124.115 13.314 123.492 13.58 122.848 14.014C122.218 14.434 121.672 14.952 121.21 15.568C121.056 15.764 120.923 15.953 120.811 16.135C120.699 16.303 120.643 16.401 120.643 16.429Z" fill="#47463A"/>
</svg>
