<svg width="175" height="26" viewBox="0 0 175 26" fill="none" xmlns="http://www.w3.org/2000/svg">
<path d="M0.929 19.915C0.873 19.859 0.831 19.789 0.803 19.705C0.761 19.635 0.74 19.572 0.74 19.516C0.74 19.446 1.195 18.522 2.105 16.744C3.015 14.952 3.603 13.832 3.869 13.384C5.353 10.864 6.403 9.163 7.019 8.281C7.271 7.931 7.488 7.616 7.67 7.336C7.852 7.042 7.929 6.895 7.901 6.895C7.831 6.895 7.663 6.979 7.397 7.147C7.215 7.273 7.061 7.336 6.935 7.336C6.851 7.336 6.76 7.315 6.662 7.273C6.452 7.189 6.347 7.028 6.347 6.79C6.347 6.538 6.459 6.328 6.683 6.16C7.103 5.852 7.775 5.586 8.699 5.362C9.623 5.138 10.533 5.026 11.429 5.026C12.339 5.026 13.109 5.131 13.739 5.341C14.369 5.537 14.901 5.852 15.335 6.286C15.825 6.776 16.07 7.308 16.07 7.882C16.07 8.582 15.706 9.289 14.978 10.003C14.264 10.717 13.235 11.389 11.891 12.019C11.163 12.355 10.225 12.712 9.077 13.09C7.943 13.468 6.984 13.734 6.2 13.888L4.856 14.161L3.407 16.912C2.427 18.76 1.881 19.754 1.769 19.894C1.643 20.034 1.503 20.104 1.349 20.104C1.195 20.104 1.055 20.041 0.929 19.915ZM5.738 12.691C5.738 12.719 5.85 12.712 6.074 12.67C6.298 12.628 6.648 12.544 7.124 12.418C7.768 12.264 8.531 12.026 9.413 11.704C10.309 11.368 11.114 11.025 11.828 10.675C12.78 10.213 13.515 9.737 14.033 9.247C14.565 8.743 14.831 8.281 14.831 7.861C14.831 7.693 14.775 7.518 14.663 7.336C14.453 7.014 14.019 6.741 13.361 6.517C12.703 6.293 12.024 6.181 11.324 6.181C11.072 6.181 10.883 6.188 10.757 6.202L9.98 6.286L9.182 7.378C8.566 8.218 7.838 9.289 6.998 10.591C6.158 11.879 5.738 12.579 5.738 12.691ZM12.7886 17.29C12.7046 17.29 12.5926 17.22 12.4526 17.08C12.3266 16.954 12.2636 16.814 12.2636 16.66C12.2636 16.408 12.4666 15.946 12.8726 15.274C13.3626 14.476 13.9086 13.636 14.5106 12.754C15.1126 11.872 15.4976 11.347 15.6656 11.179C15.8476 10.997 16.0436 10.906 16.2536 10.906C16.3796 10.906 16.4846 10.948 16.5686 11.032C16.6666 11.116 16.7156 11.228 16.7156 11.368C16.7156 11.494 16.6526 11.669 16.5266 11.893C16.4006 12.117 16.1836 12.446 15.8756 12.88C15.2876 13.692 14.9936 14.133 14.9936 14.203C14.9936 14.245 15.2736 14.091 15.8336 13.741C16.9816 13.013 18.1366 12.341 19.2986 11.725C20.4746 11.109 21.1746 10.801 21.3986 10.801C21.5946 10.801 21.7486 10.878 21.8606 11.032C21.9866 11.172 22.0496 11.375 22.0496 11.641C22.0496 11.795 22.0426 11.914 22.0286 11.998C22.0006 12.25 21.9866 12.397 21.9866 12.439C21.9866 12.621 22.0636 12.782 22.2176 12.922C22.3576 13.062 22.5256 13.132 22.7216 13.132C22.8476 13.132 22.9596 13.125 23.0576 13.111C23.3796 13.069 23.7926 12.936 24.2966 12.712C24.8006 12.474 25.2136 12.229 25.5356 11.977C25.7876 11.767 26.0186 11.662 26.2286 11.662C26.3546 11.662 26.4666 11.711 26.5646 11.809C26.6766 11.921 26.7326 12.04 26.7326 12.166C26.7326 12.558 26.1306 13.083 24.9266 13.741C24.4786 13.979 24.1216 14.133 23.8556 14.203C23.5896 14.259 23.1556 14.287 22.5536 14.287C22.3296 14.287 22.1616 14.273 22.0496 14.245C21.9376 14.203 21.7906 14.126 21.6086 14.014C21.3146 13.832 21.0836 13.524 20.9156 13.09C20.7616 12.684 20.6706 12.467 20.6426 12.439C20.5726 12.369 19.6766 12.859 17.9546 13.909C16.2466 14.945 14.9656 15.778 14.1116 16.408C13.3136 16.996 12.8726 17.29 12.7886 17.29ZM28.5092 10.318C28.3552 10.43 28.2222 10.486 28.1102 10.486C27.9982 10.486 27.8792 10.416 27.7532 10.276C27.6272 10.122 27.5642 9.989 27.5642 9.877C27.5642 9.737 27.6272 9.583 27.7532 9.415C27.8092 9.317 27.8862 9.247 27.9842 9.205C28.0962 9.149 28.2012 9.121 28.2992 9.121C28.4112 9.121 28.5092 9.149 28.5932 9.205C28.6912 9.247 28.7542 9.317 28.7822 9.415C28.8242 9.513 28.8452 9.618 28.8452 9.73C28.8452 9.982 28.7332 10.178 28.5092 10.318ZM25.2752 16.786C25.0792 16.66 24.9112 16.471 24.7712 16.219C24.6312 15.953 24.5612 15.708 24.5612 15.484C24.5612 15.232 24.6732 14.819 24.8972 14.245C25.1212 13.657 25.3732 13.111 25.6532 12.607C25.9752 12.061 26.2482 11.662 26.4722 11.41C26.6962 11.144 26.8992 11.011 27.0812 11.011C27.2352 11.011 27.3752 11.109 27.5012 11.305C27.5712 11.417 27.6062 11.508 27.6062 11.578C27.6062 11.662 27.5502 11.802 27.4382 11.998C27.3402 12.194 27.1932 12.446 26.9972 12.754C26.6752 13.286 26.3952 13.818 26.1572 14.35C25.9192 14.882 25.8002 15.239 25.8002 15.421C25.8002 15.687 25.9962 15.82 26.3882 15.82C26.9202 15.82 27.7322 15.589 28.8242 15.127C29.9302 14.651 31.1692 14 32.5412 13.174C32.9612 12.922 33.2832 12.747 33.5072 12.649C33.7312 12.537 33.9062 12.481 34.0322 12.481C34.1862 12.481 34.3192 12.579 34.4312 12.775C34.4592 12.817 34.4732 12.887 34.4732 12.985C34.4732 13.139 34.3682 13.314 34.1582 13.51C33.9482 13.706 33.6052 13.951 33.1292 14.245C32.5552 14.609 31.7152 15.071 30.6092 15.631C29.5032 16.177 28.7122 16.534 28.2362 16.702C27.6622 16.884 27.0462 16.975 26.3882 16.975C25.8282 16.975 25.4572 16.912 25.2752 16.786ZM32.3547 25.375C32.2147 25.375 32.0607 25.34 31.8927 25.27C31.5287 25.116 31.3467 24.808 31.3467 24.346C31.3467 23.954 31.4727 23.485 31.7247 22.939C31.9767 22.393 32.3407 21.798 32.8167 21.154C33.2927 20.51 34.0697 19.642 35.1477 18.55C36.2397 17.458 37.2407 16.527 38.1507 15.757L39.0537 15.001C39.4457 14.651 39.6487 14.476 39.6627 14.476C39.6907 14.434 39.7257 14.371 39.7677 14.287C39.8097 14.189 39.8517 14.084 39.8937 13.972C39.9917 13.776 40.0407 13.65 40.0407 13.594C40.0407 13.58 40.0337 13.573 40.0197 13.573C40.0057 13.573 39.9497 13.608 39.8517 13.678C37.3597 15.54 35.5747 16.471 34.4967 16.471C34.3287 16.471 34.1817 16.45 34.0557 16.408C33.5097 16.226 33.2367 15.806 33.2367 15.148C33.2367 14.77 33.3347 14.329 33.5307 13.825C33.7267 13.321 34.0137 12.796 34.3917 12.25C34.5457 12.026 34.7067 11.823 34.8747 11.641C35.0427 11.445 35.1687 11.312 35.2527 11.242C35.4207 11.116 35.6237 11.053 35.8617 11.053C36.0577 11.053 36.2047 11.102 36.3027 11.2C36.4007 11.298 36.4497 11.403 36.4497 11.515C36.4497 11.725 36.2537 12.019 35.8617 12.397C35.5817 12.663 35.2877 13.055 34.9797 13.573C34.6857 14.077 34.4897 14.511 34.3917 14.875C34.3217 15.113 34.3917 15.232 34.6017 15.232C34.7837 15.232 35.1337 15.113 35.6517 14.875C36.2537 14.595 36.8487 14.259 37.4367 13.867C38.0387 13.475 38.7527 12.957 39.5787 12.313C40.0407 11.949 40.4047 11.69 40.6707 11.536C40.9367 11.368 41.1467 11.284 41.3007 11.284C41.4827 11.284 41.6227 11.396 41.7207 11.62C41.7627 11.718 41.7837 11.83 41.7837 11.956C41.7837 12.082 41.7627 12.25 41.7207 12.46C41.6367 12.824 41.6017 13.006 41.6157 13.006C41.6857 12.964 41.8257 12.873 42.0357 12.733C42.2597 12.579 42.5187 12.39 42.8127 12.166C43.1207 11.928 43.4077 11.725 43.6737 11.557C43.9397 11.375 44.0937 11.284 44.1357 11.284C44.2337 11.284 44.3457 11.368 44.4717 11.536C44.6117 11.69 44.6817 11.823 44.6817 11.935C44.6817 12.075 44.5067 12.299 44.1567 12.607C43.8067 12.901 43.1977 13.37 42.3297 14.014L40.7757 15.148L39.8937 16.87C39.1517 18.312 38.3817 19.579 37.5837 20.671C36.7857 21.763 35.8967 22.778 34.9167 23.716C34.4267 24.178 33.9297 24.57 33.4257 24.892C32.9357 25.214 32.5787 25.375 32.3547 25.375ZM32.5857 23.947C32.5857 24.059 32.7467 23.989 33.0687 23.737C33.4047 23.485 33.8247 23.107 34.3287 22.603C34.6367 22.295 34.9867 21.917 35.3787 21.469C35.7707 21.021 36.0857 20.643 36.3237 20.335C36.7577 19.761 37.1987 19.117 37.6467 18.403C38.0947 17.703 38.2977 17.332 38.2557 17.29C38.1997 17.234 37.8567 17.507 37.2267 18.109C36.6107 18.725 35.9387 19.432 35.2107 20.23C34.4827 21.028 33.9507 21.651 33.6147 22.099C33.4327 22.337 33.2157 22.687 32.9637 23.149C32.7117 23.611 32.5857 23.877 32.5857 23.947ZM42.9406 17.689C42.7166 17.605 42.5346 17.465 42.3946 17.269C42.2546 17.073 42.1846 16.856 42.1846 16.618C42.1846 16.254 42.3036 15.876 42.5416 15.484C42.7796 15.092 43.1996 14.602 43.8016 14.014C44.4456 13.37 45.1176 12.873 45.8176 12.523C46.5316 12.173 47.2316 11.998 47.9176 11.998C48.5056 11.998 49.0586 12.131 49.5766 12.397L50.3116 12.775L50.8786 12.439L51.7396 11.914C51.8656 11.83 51.9706 11.788 52.0546 11.788C52.1106 11.788 52.1736 11.809 52.2436 11.851C52.4956 12.019 52.6216 12.194 52.6216 12.376C52.6216 12.516 52.5586 12.712 52.4326 12.964C52.2926 13.258 52.1806 13.58 52.0966 13.93C52.0126 14.28 51.9706 14.609 51.9706 14.917C51.9706 15.197 51.9986 15.421 52.0546 15.589C52.1946 16.051 52.3976 16.282 52.6636 16.282C52.8736 16.282 53.1326 16.163 53.4406 15.925C53.7626 15.673 54.1896 15.274 54.7216 14.728C55.0996 14.35 55.4426 14.021 55.7506 13.741C56.0586 13.447 56.2476 13.286 56.3176 13.258C56.4856 13.188 56.6466 13.237 56.8006 13.405C56.9686 13.559 57.0316 13.734 56.9896 13.93C56.9336 14.154 56.4996 14.693 55.6876 15.547C54.8756 16.387 54.2876 16.912 53.9236 17.122C53.5316 17.346 53.1046 17.458 52.6426 17.458C52.2646 17.458 51.9496 17.374 51.6976 17.206C51.0956 16.758 50.7946 16.002 50.7946 14.938C50.7946 14.7 50.7876 14.49 50.7736 14.308C50.7596 14.126 50.7386 14.035 50.7106 14.035C50.5986 14.077 50.3886 14.189 50.0806 14.371C49.7866 14.539 49.4296 14.756 49.0096 15.022C46.9796 16.226 45.5796 16.996 44.8096 17.332C44.1936 17.598 43.6546 17.731 43.1926 17.731C43.1086 17.731 43.0246 17.717 42.9406 17.689ZM43.4236 16.429C43.4236 16.513 43.5286 16.52 43.7386 16.45C43.9626 16.38 44.3336 16.219 44.8516 15.967C45.4256 15.687 46.2656 15.225 47.3716 14.581C48.4916 13.923 49.0516 13.566 49.0516 13.51C49.0516 13.426 48.8486 13.349 48.4426 13.279C48.0506 13.195 47.7356 13.174 47.4976 13.216C46.8956 13.314 46.2726 13.58 45.6286 14.014C44.9986 14.434 44.4526 14.952 43.9906 15.568C43.8366 15.764 43.7036 15.953 43.5916 16.135C43.4796 16.303 43.4236 16.401 43.4236 16.429ZM53.8746 17.899C53.7206 17.815 53.6436 17.689 53.6436 17.521C53.6436 17.339 53.7416 17.08 53.9376 16.744C54.1336 16.394 54.4626 15.897 54.9246 15.253C55.7786 14.063 56.3946 13.251 56.7726 12.817C57.1646 12.383 57.4656 12.166 57.6756 12.166C57.7876 12.166 57.8996 12.222 58.0116 12.334C58.0956 12.418 58.1376 12.516 58.1376 12.628C58.1376 12.838 57.9486 13.195 57.5706 13.699C57.1786 14.217 57.0036 14.483 57.0456 14.497C57.1016 14.525 57.2626 14.441 57.5286 14.245C57.9206 13.951 58.4736 13.629 59.1876 13.279C59.9156 12.929 60.5316 12.67 61.0356 12.502C61.6656 12.292 62.2746 12.187 62.8626 12.187C63.2966 12.187 63.6396 12.25 63.8916 12.376C64.1576 12.502 64.3396 12.677 64.4376 12.901C64.5496 13.125 64.6056 13.454 64.6056 13.888C64.6056 14.126 64.5986 14.315 64.5846 14.455L64.5426 15.232C64.5426 15.358 64.5496 15.442 64.5636 15.484C64.5916 15.526 64.6336 15.547 64.6896 15.547C64.8576 15.547 65.1516 15.435 65.5716 15.211C65.9916 14.973 66.4886 14.644 67.0626 14.224C67.7906 13.692 68.1966 13.426 68.2806 13.426C68.4206 13.426 68.5536 13.489 68.6796 13.615C68.8056 13.727 68.8686 13.846 68.8686 13.972C68.8686 14.14 68.7426 14.357 68.4906 14.623C68.2386 14.875 67.8256 15.197 67.2516 15.589C66.0756 16.401 65.1516 16.807 64.4796 16.807C64.1296 16.807 63.8496 16.695 63.6396 16.471C63.5276 16.345 63.4506 16.226 63.4086 16.114C63.3806 16.002 63.3666 15.785 63.3666 15.463V14.791V14.098C63.3666 13.79 63.3526 13.601 63.3246 13.531C63.2966 13.447 63.2196 13.391 63.0936 13.363C62.9816 13.335 62.8906 13.321 62.8206 13.321C62.3726 13.321 61.7216 13.51 60.8676 13.888C60.0136 14.252 59.0966 14.742 58.1166 15.358C57.1366 15.974 56.2476 16.618 55.4496 17.29C55.1276 17.556 54.8826 17.738 54.7146 17.836C54.5326 17.948 54.3786 18.004 54.2526 18.004C54.1406 18.004 54.0146 17.969 53.8746 17.899ZM64.894 19.411C64.712 19.341 64.621 19.236 64.621 19.096C64.621 18.9 64.782 18.543 65.104 18.025C65.412 17.507 65.979 16.674 66.805 15.526C69.073 12.334 70.746 10.059 71.824 8.701C72.902 7.329 74.057 6.041 75.289 4.837C77.851 2.345 79.811 1.099 81.169 1.099C81.617 1.099 81.939 1.197 82.135 1.393C82.345 1.575 82.45 1.883 82.45 2.317C82.45 2.751 82.296 3.206 81.988 3.682C81.68 4.158 81.141 4.795 80.371 5.593C78.985 7.021 77.368 8.4 75.52 9.73C73.686 11.06 72.16 11.97 70.942 12.46C70.62 12.586 70.389 12.712 70.249 12.838C70.123 12.964 69.927 13.223 69.661 13.615L69.409 13.993L69.976 13.615C70.704 13.139 71.467 12.747 72.265 12.439C73.077 12.117 73.756 11.956 74.302 11.956C74.862 11.956 75.31 12.096 75.646 12.376C75.996 12.642 76.171 12.978 76.171 13.384C76.171 13.692 76.087 13.965 75.919 14.203C75.387 15.015 74.484 15.421 73.21 15.421H72.349C72.097 15.421 71.971 15.428 71.971 15.442C71.971 15.512 72.069 15.645 72.265 15.841C72.461 16.023 72.643 16.156 72.811 16.24C73.175 16.436 73.546 16.534 73.924 16.534C74.148 16.534 74.456 16.485 74.848 16.387C75.352 16.247 75.877 16.03 76.423 15.736C76.983 15.428 77.697 14.966 78.565 14.35C78.957 14.07 79.321 13.832 79.657 13.636C80.007 13.426 80.217 13.321 80.287 13.321C80.427 13.321 80.546 13.377 80.644 13.489C80.742 13.601 80.791 13.734 80.791 13.888C80.791 13.972 80.784 14.035 80.77 14.077C80.714 14.217 80.273 14.595 79.447 15.211C78.635 15.813 77.907 16.303 77.263 16.681C76.087 17.353 74.96 17.689 73.882 17.689C73.294 17.689 72.797 17.591 72.391 17.395C72.013 17.213 71.649 16.933 71.299 16.555C70.963 16.177 70.732 15.799 70.606 15.421C70.466 15.029 70.396 14.833 70.396 14.833C70.354 14.791 70.046 15.008 69.472 15.484C68.898 15.96 68.324 16.464 67.75 16.996C67.47 17.262 67.176 17.563 66.868 17.899C66.546 18.235 66.308 18.501 66.154 18.697C65.944 18.977 65.769 19.173 65.629 19.285C65.475 19.411 65.328 19.474 65.188 19.474C65.09 19.474 64.992 19.453 64.894 19.411ZM71.845 10.654C71.845 10.71 72.062 10.612 72.496 10.36C72.93 10.108 73.406 9.8 73.924 9.436C74.708 8.89 75.646 8.169 76.738 7.273C77.83 6.363 78.691 5.593 79.321 4.963C79.895 4.389 80.378 3.836 80.77 3.304C81.162 2.772 81.323 2.45 81.253 2.338C81.211 2.268 81.064 2.275 80.812 2.359C80.56 2.429 80.245 2.562 79.867 2.758C79.027 3.192 77.984 3.99 76.738 5.152C75.506 6.3 74.302 7.581 73.126 8.995C72.79 9.401 72.489 9.772 72.223 10.108C71.971 10.444 71.845 10.626 71.845 10.654ZM72.223 14.161C72.447 14.217 72.727 14.245 73.063 14.245C73.609 14.245 74.036 14.168 74.344 14.014C74.736 13.804 74.932 13.622 74.932 13.468C74.932 13.3 74.715 13.216 74.281 13.216C73.693 13.216 73.084 13.363 72.454 13.657L71.656 14.035L72.223 14.161ZM86.7872 19.915C86.4792 19.789 86.2622 19.593 86.1362 19.327C85.9962 19.061 85.9262 18.697 85.9262 18.235C85.9262 17.885 85.9542 17.605 86.0102 17.395C86.0662 17.171 86.1922 16.856 86.3882 16.45C86.8642 15.47 87.5502 14.406 88.4462 13.258L89.0762 12.502L89.1392 11.221C89.2232 9.891 89.4612 8.757 89.8532 7.819C90.2452 6.881 90.8472 6.006 91.6592 5.194C92.3172 4.522 92.9332 4.046 93.5072 3.766C94.1652 3.444 94.7742 3.283 95.3342 3.283C95.7822 3.283 96.1392 3.395 96.4052 3.619C96.6712 3.843 96.8042 4.151 96.8042 4.543C96.8042 4.921 96.6852 5.341 96.4472 5.803C96.2512 6.181 95.8942 6.678 95.3762 7.294C94.8582 7.91 93.9552 8.918 92.6672 10.318C91.7852 11.27 91.1762 11.949 90.8402 12.355C90.5182 12.747 90.3572 12.999 90.3572 13.111C90.3572 13.307 90.4342 13.797 90.5882 14.581C90.7422 15.365 90.8472 15.778 90.9032 15.82H90.9242C91.0082 15.82 91.1692 15.715 91.4072 15.505C91.5332 15.393 91.6452 15.302 91.7432 15.232C91.8412 15.162 91.9252 15.127 91.9952 15.127C92.0792 15.127 92.1982 15.204 92.3522 15.358C92.5062 15.512 92.5832 15.631 92.5832 15.715C92.5832 15.785 92.5482 15.869 92.4782 15.967C92.4082 16.065 92.3102 16.184 92.1842 16.324C91.9742 16.548 91.8132 16.737 91.7012 16.891C91.5892 17.045 91.5332 17.164 91.5332 17.248C91.5332 17.332 91.5892 17.486 91.7012 17.71C91.8832 18.06 92.0792 18.347 92.2892 18.571C92.4852 18.809 92.5832 19.047 92.5832 19.285C92.5832 19.481 92.5202 19.628 92.3942 19.726C92.3242 19.796 92.2332 19.831 92.1212 19.831C91.8132 19.831 91.4492 19.523 91.0292 18.907L90.5042 18.13L89.6432 18.886C89.1532 19.306 88.7402 19.607 88.4042 19.789C88.0822 19.985 87.7742 20.083 87.4802 20.083C87.2702 20.083 87.0392 20.027 86.7872 19.915ZM90.4412 10.843C90.5112 10.815 91.1832 10.115 92.4572 8.743C93.4792 7.651 94.2282 6.804 94.7042 6.202C95.1942 5.586 95.4672 5.138 95.5232 4.858L95.5652 4.648C95.5652 4.592 95.5372 4.557 95.4812 4.543C95.4252 4.515 95.3272 4.501 95.1872 4.501C94.8652 4.501 94.4312 4.655 93.8852 4.963C93.3532 5.257 92.8842 5.6 92.4782 5.992C91.4282 7.056 90.7422 8.533 90.4202 10.423C90.4062 10.535 90.3992 10.64 90.3992 10.738C90.3992 10.822 90.4132 10.857 90.4412 10.843ZM88.4462 18.298C88.9222 17.948 89.2932 17.626 89.5592 17.332L89.9582 16.912L89.6642 15.883C89.4542 15.141 89.3492 14.714 89.3492 14.602C89.3492 14.448 89.3212 14.371 89.2652 14.371C89.1672 14.371 88.9292 14.63 88.5512 15.148C88.1732 15.68 87.8372 16.261 87.5432 16.891C87.2492 17.521 87.1022 17.969 87.1022 18.235C87.1022 18.655 87.2072 18.865 87.4172 18.865C87.5992 18.865 87.9422 18.676 88.4462 18.298ZM101.718 19.579C101.676 19.537 101.655 19.481 101.655 19.411C101.655 19.215 101.809 18.816 102.117 18.214C102.425 17.626 103.02 16.541 103.902 14.959L107.325 8.932L108.501 6.874L108.06 6.832C107.878 6.804 107.745 6.769 107.661 6.727C107.591 6.685 107.528 6.601 107.472 6.475C107.444 6.391 107.43 6.321 107.43 6.265C107.43 5.971 107.675 5.74 108.165 5.572C108.655 5.404 109.271 5.32 110.013 5.32C110.615 5.32 111.21 5.383 111.798 5.509C112.4 5.621 112.925 5.789 113.373 6.013C114.157 6.419 114.759 6.93 115.179 7.546C115.599 8.162 115.809 8.834 115.809 9.562C115.809 10.43 115.515 11.326 114.927 12.25C114.129 13.496 112.736 14.756 110.748 16.03C108.76 17.29 106.555 18.333 104.133 19.159C103.125 19.495 102.432 19.663 102.054 19.663C101.886 19.663 101.774 19.635 101.718 19.579ZM103.65 17.92C103.622 17.99 103.636 18.025 103.692 18.025C103.748 18.025 103.895 17.976 104.133 17.878C104.371 17.794 104.693 17.675 105.099 17.521C106.653 16.905 108.123 16.184 109.509 15.358C110.909 14.518 112.008 13.692 112.806 12.88C113.45 12.222 113.898 11.648 114.15 11.158C114.416 10.654 114.549 10.115 114.549 9.541C114.549 9.177 114.528 8.918 114.486 8.764C114.444 8.596 114.339 8.4 114.171 8.176C113.863 7.742 113.359 7.371 112.659 7.063C111.959 6.741 111.28 6.58 110.622 6.58H110.055L106.884 12.187C106.618 12.663 106.338 13.153 106.044 13.657C105.764 14.161 105.484 14.665 105.204 15.169L103.65 17.92ZM121.62 17.794C121.284 17.794 120.99 17.654 120.738 17.374C120.486 17.08 120.346 16.73 120.318 16.324C120.29 15.946 120.262 15.757 120.234 15.757C120.164 15.785 120.031 15.869 119.835 16.009C119.639 16.135 119.408 16.296 119.142 16.492C118.162 17.234 117.343 17.605 116.685 17.605C116.405 17.605 116.16 17.549 115.95 17.437C115.656 17.297 115.446 17.101 115.32 16.849C115.194 16.583 115.131 16.226 115.131 15.778C115.131 15.456 115.166 15.183 115.236 14.959C115.306 14.721 115.453 14.378 115.677 13.93C115.957 13.356 116.279 12.852 116.643 12.418C117.021 11.984 117.308 11.767 117.504 11.767C117.672 11.767 117.798 11.816 117.882 11.914C117.98 11.998 118.029 12.11 118.029 12.25C118.029 12.558 117.889 12.859 117.609 13.153C117.273 13.517 116.979 13.986 116.727 14.56C116.475 15.12 116.349 15.575 116.349 15.925C116.349 16.065 116.37 16.17 116.412 16.24C116.454 16.31 116.538 16.345 116.664 16.345C116.972 16.345 117.462 16.128 118.134 15.694C118.806 15.26 119.562 14.672 120.402 13.93C120.724 13.65 120.983 13.447 121.179 13.321C121.375 13.195 121.543 13.132 121.683 13.132C121.809 13.132 121.921 13.181 122.019 13.279C122.103 13.363 122.145 13.461 122.145 13.573C122.145 13.755 122.047 14.084 121.851 14.56C121.753 14.798 121.676 15.064 121.62 15.358C121.564 15.638 121.536 15.883 121.536 16.093C121.536 16.415 121.599 16.576 121.725 16.576C121.977 16.576 122.481 16.142 123.237 15.274C124.007 14.392 124.812 13.328 125.652 12.082C126.296 11.116 126.688 10.563 126.828 10.423C127.01 10.241 127.185 10.15 127.353 10.15C127.507 10.15 127.633 10.234 127.731 10.402C127.829 10.556 127.878 10.773 127.878 11.053C127.878 11.207 127.892 11.368 127.92 11.536C127.948 11.69 127.983 11.802 128.025 11.872C128.151 12.096 128.354 12.278 128.634 12.418C128.928 12.558 129.236 12.628 129.558 12.628C129.936 12.628 130.209 12.677 130.377 12.775C130.559 12.859 130.65 12.999 130.65 13.195C130.65 13.405 130.552 13.566 130.356 13.678C130.16 13.79 129.901 13.846 129.579 13.846C129.159 13.846 128.725 13.762 128.277 13.594C127.843 13.412 127.507 13.174 127.269 12.88C127.073 12.628 126.947 12.502 126.891 12.502C126.849 12.502 126.709 12.684 126.471 13.048C125.855 14.014 125.141 14.959 124.329 15.883C123.531 16.807 122.95 17.36 122.586 17.542C122.236 17.71 121.914 17.794 121.62 17.794ZM133.485 10.318C133.331 10.43 133.198 10.486 133.086 10.486C132.974 10.486 132.855 10.416 132.729 10.276C132.603 10.122 132.54 9.989 132.54 9.877C132.54 9.737 132.603 9.583 132.729 9.415C132.785 9.317 132.862 9.247 132.96 9.205C133.072 9.149 133.177 9.121 133.275 9.121C133.387 9.121 133.485 9.149 133.569 9.205C133.667 9.247 133.73 9.317 133.758 9.415C133.8 9.513 133.821 9.618 133.821 9.73C133.821 9.982 133.709 10.178 133.485 10.318ZM130.251 16.786C130.055 16.66 129.887 16.471 129.747 16.219C129.607 15.953 129.537 15.708 129.537 15.484C129.537 15.232 129.649 14.819 129.873 14.245C130.097 13.657 130.349 13.111 130.629 12.607C130.951 12.061 131.224 11.662 131.448 11.41C131.672 11.144 131.875 11.011 132.057 11.011C132.211 11.011 132.351 11.109 132.477 11.305C132.547 11.417 132.582 11.508 132.582 11.578C132.582 11.662 132.526 11.802 132.414 11.998C132.316 12.194 132.169 12.446 131.973 12.754C131.651 13.286 131.371 13.818 131.133 14.35C130.895 14.882 130.776 15.239 130.776 15.421C130.776 15.687 130.972 15.82 131.364 15.82C131.896 15.82 132.708 15.589 133.8 15.127C134.906 14.651 136.145 14 137.517 13.174C137.937 12.922 138.259 12.747 138.483 12.649C138.707 12.537 138.882 12.481 139.008 12.481C139.162 12.481 139.295 12.579 139.407 12.775C139.435 12.817 139.449 12.887 139.449 12.985C139.449 13.139 139.344 13.314 139.134 13.51C138.924 13.706 138.581 13.951 138.105 14.245C137.531 14.609 136.691 15.071 135.585 15.631C134.479 16.177 133.688 16.534 133.212 16.702C132.638 16.884 132.022 16.975 131.364 16.975C130.804 16.975 130.433 16.912 130.251 16.786ZM141.726 18.319C141.39 18.165 141.166 17.983 141.054 17.773C140.942 17.563 140.893 17.255 140.907 16.849C140.921 16.653 141.124 16.324 141.516 15.862C141.908 15.4 142.272 15.064 142.608 14.854C142.888 14.672 143.028 14.553 143.028 14.497C143.028 14.427 142.734 14.322 142.146 14.182C141.558 14.042 140.865 13.916 140.067 13.804C139.213 13.678 138.625 13.524 138.303 13.342C137.967 13.146 137.799 12.866 137.799 12.502C137.799 12.292 137.988 12.026 138.366 11.704C138.73 11.368 139.171 11.067 139.689 10.801C140.207 10.535 140.676 10.367 141.096 10.297C141.152 10.283 141.236 10.276 141.348 10.276C141.628 10.276 141.852 10.339 142.02 10.465C142.202 10.577 142.293 10.724 142.293 10.906C142.293 11.298 142.055 11.494 141.579 11.494C141.341 11.494 141.026 11.564 140.634 11.704C140.326 11.83 140.025 11.977 139.731 12.145C139.437 12.313 139.304 12.411 139.332 12.439C139.416 12.467 139.577 12.502 139.815 12.544C140.067 12.586 140.375 12.635 140.739 12.691C141.607 12.817 142.223 12.929 142.587 13.027C142.951 13.111 143.357 13.251 143.805 13.447L144.519 13.762L145.737 13.342C146.997 12.894 147.823 12.67 148.215 12.67C148.425 12.67 148.572 12.719 148.656 12.817C148.74 12.915 148.782 13.069 148.782 13.279C148.782 13.433 148.754 13.545 148.698 13.615C148.642 13.671 148.46 13.755 148.152 13.867C147.844 13.965 147.431 14.091 146.913 14.245C146.563 14.343 146.262 14.441 146.01 14.539C145.758 14.623 145.59 14.686 145.506 14.728C145.492 14.742 145.485 14.777 145.485 14.833C145.485 14.987 145.513 15.148 145.569 15.316C145.611 15.484 145.632 15.645 145.632 15.799C145.632 16.345 145.394 16.856 144.918 17.332C144.582 17.668 144.176 17.934 143.7 18.13C143.238 18.34 142.797 18.445 142.377 18.445C142.139 18.445 141.922 18.403 141.726 18.319ZM142.167 17.038C142.167 17.164 142.272 17.227 142.482 17.227C142.72 17.227 143.014 17.143 143.364 16.975C143.518 16.905 143.672 16.814 143.826 16.702C143.98 16.59 144.092 16.485 144.162 16.387C144.33 16.177 144.414 15.953 144.414 15.715C144.414 15.505 144.344 15.4 144.204 15.4C144.05 15.4 143.805 15.512 143.469 15.736C143.147 15.946 142.846 16.184 142.566 16.45C142.3 16.716 142.167 16.912 142.167 17.038ZM147.963 18.088C147.795 17.962 147.711 17.801 147.711 17.605C147.711 17.465 147.753 17.311 147.837 17.143C148.103 16.639 148.803 15.449 149.937 13.573C151.085 11.683 151.89 10.388 152.352 9.688C153.906 7.378 155.369 5.474 156.741 3.976C158.127 2.478 159.331 1.491 160.353 1.015C160.787 0.818999 161.13 0.720999 161.382 0.720999C161.662 0.720999 161.914 0.818999 162.138 1.015C162.362 1.197 162.474 1.449 162.474 1.771C162.474 2.387 162.082 3.178 161.298 4.144C160.808 4.746 160.017 5.572 158.925 6.622C157.833 7.672 156.72 8.68 155.586 9.646C154.452 10.598 153.598 11.249 153.024 11.599C152.66 11.823 152.324 12.131 152.016 12.523C151.708 12.915 151.372 13.461 151.008 14.161C150.938 14.301 150.903 14.385 150.903 14.413C150.903 14.455 150.98 14.427 151.134 14.329C151.288 14.231 151.505 14.084 151.785 13.888C152.765 13.216 153.647 12.705 154.431 12.355C155.215 11.991 155.866 11.809 156.384 11.809C156.734 11.809 157.014 11.893 157.224 12.061C157.49 12.271 157.658 12.502 157.728 12.754C157.812 12.992 157.875 13.461 157.917 14.161C157.945 14.679 157.98 15.036 158.022 15.232C158.064 15.428 158.12 15.547 158.19 15.589C158.232 15.617 158.302 15.631 158.4 15.631C158.82 15.631 159.569 15.155 160.647 14.203C161.039 13.853 161.347 13.601 161.571 13.447C161.795 13.293 161.977 13.216 162.117 13.216C162.257 13.216 162.369 13.293 162.453 13.447C162.495 13.503 162.516 13.608 162.516 13.762C162.516 13.846 162.509 13.909 162.495 13.951C162.439 14.147 162.061 14.56 161.361 15.19C160.675 15.82 160.115 16.247 159.681 16.471C159.261 16.709 158.806 16.828 158.316 16.828C157.994 16.828 157.728 16.765 157.518 16.639C157.21 16.443 157.007 16.205 156.909 15.925C156.811 15.645 156.741 15.148 156.699 14.434L156.615 13.111L156.09 13.132C155.712 13.146 155.145 13.349 154.389 13.741C153.633 14.119 152.821 14.623 151.953 15.253C151.099 15.869 150.315 16.52 149.601 17.206C149.167 17.612 148.866 17.878 148.698 18.004C148.53 18.144 148.39 18.214 148.278 18.214C148.166 18.214 148.061 18.172 147.963 18.088ZM154.242 9.058C154.158 9.198 154.221 9.198 154.431 9.058C154.641 8.904 155.082 8.533 155.754 7.945C156.58 7.231 157.413 6.454 158.253 5.614C159.107 4.76 159.807 4.004 160.353 3.346C160.899 2.674 161.172 2.247 161.172 2.065C161.172 1.953 160.92 2.051 160.416 2.359C159.926 2.667 159.457 3.024 159.009 3.43C157.875 4.452 156.664 5.81 155.376 7.504C154.704 8.4 154.326 8.918 154.242 9.058ZM160.477 17.689C160.253 17.605 160.071 17.465 159.931 17.269C159.791 17.073 159.721 16.856 159.721 16.618C159.721 16.254 159.84 15.876 160.078 15.484C160.316 15.092 160.736 14.602 161.338 14.014C161.982 13.37 162.654 12.873 163.354 12.523C164.068 12.173 164.768 11.998 165.454 11.998C166.042 11.998 166.595 12.131 167.113 12.397L167.848 12.775L168.415 12.439L169.276 11.914C169.402 11.83 169.507 11.788 169.591 11.788C169.647 11.788 169.71 11.809 169.78 11.851C170.032 12.019 170.158 12.194 170.158 12.376C170.158 12.516 170.095 12.712 169.969 12.964C169.829 13.258 169.717 13.58 169.633 13.93C169.549 14.28 169.507 14.609 169.507 14.917C169.507 15.197 169.535 15.421 169.591 15.589C169.731 16.051 169.934 16.282 170.2 16.282C170.41 16.282 170.669 16.163 170.977 15.925C171.299 15.673 171.726 15.274 172.258 14.728C172.636 14.35 172.979 14.021 173.287 13.741C173.595 13.447 173.784 13.286 173.854 13.258C174.022 13.188 174.183 13.237 174.337 13.405C174.505 13.559 174.568 13.734 174.526 13.93C174.47 14.154 174.036 14.693 173.224 15.547C172.412 16.387 171.824 16.912 171.46 17.122C171.068 17.346 170.641 17.458 170.179 17.458C169.801 17.458 169.486 17.374 169.234 17.206C168.632 16.758 168.331 16.002 168.331 14.938C168.331 14.7 168.324 14.49 168.31 14.308C168.296 14.126 168.275 14.035 168.247 14.035C168.135 14.077 167.925 14.189 167.617 14.371C167.323 14.539 166.966 14.756 166.546 15.022C164.516 16.226 163.116 16.996 162.346 17.332C161.73 17.598 161.191 17.731 160.729 17.731C160.645 17.731 160.561 17.717 160.477 17.689ZM160.96 16.429C160.96 16.513 161.065 16.52 161.275 16.45C161.499 16.38 161.87 16.219 162.388 15.967C162.962 15.687 163.802 15.225 164.908 14.581C166.028 13.923 166.588 13.566 166.588 13.51C166.588 13.426 166.385 13.349 165.979 13.279C165.587 13.195 165.272 13.174 165.034 13.216C164.432 13.314 163.809 13.58 163.165 14.014C162.535 14.434 161.989 14.952 161.527 15.568C161.373 15.764 161.24 15.953 161.128 16.135C161.016 16.303 160.96 16.401 160.96 16.429Z" fill="#47463A"/>
</svg>
