<svg width="76" height="33" viewBox="0 0 76 33" fill="none" xmlns="http://www.w3.org/2000/svg">
<path d="M12.0506 10.5423C12.641 9.89892 12.9208 9.27899 12.8941 8.67844C12.8697 8.18406 12.6403 7.73934 12.1979 7.33598C11.8078 6.98248 11.3385 6.72972 10.7899 6.5777C10.2413 6.42976 9.57679 6.37377 8.79238 6.40969C8.02429 6.44588 7.24641 6.57988 6.46288 6.80769C5.67935 7.03549 5.11172 7.29139 4.76407 7.57545C4.57783 7.72747 4.489 7.91378 4.50172 8.13036C4.51056 8.33462 4.60633 8.46684 4.79304 8.53119C4.87821 8.56527 4.95963 8.57886 5.02908 8.57594C5.13533 8.56954 5.26693 8.51051 5.41991 8.39467C5.64295 8.23918 5.78308 8.15985 5.84437 8.15679C5.86885 8.1572 5.80961 8.28277 5.66248 8.5375C5.51944 8.79231 5.34327 9.07515 5.14213 9.38614C4.64736 10.1699 3.81404 11.6705 2.64206 13.8963C2.43133 14.2929 1.97001 15.2731 1.26206 16.8453C0.554178 18.4134 0.197617 19.232 0.200746 19.2892C0.204011 19.3383 0.219446 19.3916 0.255089 19.4575C0.28665 19.5234 0.330659 19.5772 0.378886 19.6229C0.49146 19.7268 0.61315 19.7738 0.747967 19.7679C0.878702 19.7619 0.998216 19.6945 1.09827 19.5696C1.19017 19.4445 1.61707 18.5699 2.38311 16.9415L3.51754 14.5192L4.6613 14.2321C5.32946 14.0677 6.14633 13.7996 7.10773 13.4319C8.07328 13.0601 8.85871 12.7181 9.47232 12.3976C10.6008 11.8041 11.4602 11.1856 12.0506 10.5423ZM7.34023 12.2192C6.58785 12.5373 5.94293 12.7756 5.39326 12.9338C4.99105 13.0618 4.69163 13.1466 4.50308 13.1925C4.31045 13.2383 4.21637 13.249 4.21678 13.2245C4.21025 13.1264 4.54307 12.5073 5.21538 11.3592C5.88354 10.215 6.46683 9.26533 6.96099 8.51833L7.60173 7.54923L8.26482 7.44598C8.37127 7.42734 8.53476 7.41374 8.75127 7.4051C9.35183 7.37837 9.93858 7.44529 10.5155 7.61004C11.0884 7.77471 11.4726 7.99339 11.6682 8.26201C11.7717 8.41478 11.8264 8.56266 11.8322 8.70564C11.8507 9.0652 11.6439 9.46999 11.2119 9.92001C10.7798 10.37 10.1642 10.8088 9.36498 11.2446C8.76341 11.5775 8.08852 11.901 7.34023 12.2192Z" fill="#34291E"/>
<path d="M21.8694 11.9427C21.8631 11.8365 21.8117 11.7336 21.7112 11.6421C21.6227 11.563 21.5253 11.5247 21.415 11.531C21.2352 11.5403 21.0417 11.6391 20.8344 11.8316C20.5693 12.0599 20.2226 12.2868 19.7985 12.5042C19.3744 12.7217 19.0251 12.8588 18.7508 12.9073C18.6689 12.9223 18.5707 12.9328 18.4645 12.9392C18.297 12.9487 18.1468 12.8931 18.0222 12.7808C17.8852 12.6683 17.8099 12.5324 17.8043 12.3771C17.8009 12.3403 17.8071 12.2139 17.8229 11.9978C17.8323 11.9245 17.834 11.8224 17.828 11.6917C17.8155 11.4629 17.7572 11.2863 17.649 11.1662C17.5408 11.046 17.403 10.9865 17.2354 10.996C17.0434 11.005 16.4588 11.2974 15.4776 11.873C14.4964 12.4486 13.5308 13.0734 12.5725 13.7433C12.1058 14.0662 11.8707 14.2092 11.8713 14.1725C11.8683 14.1112 12.1034 13.7232 12.5767 13.0004C12.824 12.6166 12.9962 12.3256 13.0975 12.1273C13.1947 11.9288 13.2421 11.7786 13.2398 11.6683C13.2336 11.5498 13.1903 11.4552 13.1098 11.3845C13.0293 11.3178 12.9319 11.2835 12.8256 11.2899C12.6459 11.2992 12.4811 11.3862 12.3315 11.547C12.1942 11.6999 11.8844 12.1642 11.4019 12.9481C10.9194 13.728 10.4865 14.4719 10.0951 15.1798C9.77489 15.7746 9.61707 16.1802 9.62979 16.3968C9.63578 16.5275 9.69503 16.6469 9.8076 16.7508C9.93222 16.8672 10.0334 16.922 10.1028 16.919C10.1763 16.9162 10.5401 16.6446 11.2022 16.1086C11.9099 15.5325 12.9801 14.7625 14.4127 13.7984C15.8454 12.8344 16.5918 12.3814 16.6522 12.4355C16.6762 12.4604 16.763 12.6415 16.9125 12.9828C17.0737 13.3488 17.2858 13.6054 17.5447 13.7486C17.7065 13.837 17.8362 13.8963 17.9338 13.9184C18.0313 13.9445 18.1782 13.951 18.3702 13.9419C18.8891 13.9179 19.2573 13.871 19.4828 13.8094C19.7085 13.7438 20.0088 13.6018 20.384 13.3795C21.3905 12.7553 21.8843 12.2778 21.8694 11.9427Z" fill="#34291E"/>
<path d="M70.532 11.3454C70.4761 11.271 70.4037 11.2085 70.3146 11.1662C70.2415 11.1446 70.1926 11.1356 70.1682 11.1352C70.0619 11.1416 69.9139 11.2045 69.724 11.3279C69.5383 11.4513 69.1747 11.7106 68.6414 12.11C68.2693 12.3936 67.9264 12.6369 67.6168 12.844C67.3072 13.0512 67.1299 13.1543 67.0809 13.1576C67.0318 13.1609 66.9994 13.144 66.9796 13.1069C66.9598 13.0699 66.9487 13.0044 66.9421 12.9104L66.9575 12.4738C66.9701 12.2087 66.973 12.0332 66.9704 11.9474C66.9579 11.7186 66.9241 11.5384 66.8651 11.4027C66.8062 11.267 66.7102 11.147 66.5853 11.0469C66.4202 10.9095 66.1967 10.8486 65.9067 10.8601C65.6534 10.8722 65.3499 10.9529 64.9964 11.1021C64.655 11.2516 64.4825 11.314 64.4829 11.2895L64.6163 10.6345C64.7047 10.2318 64.7468 9.90999 64.7345 9.66892C64.7192 9.35841 64.593 9.09096 64.3517 8.87465C64.2391 8.77072 64.1464 8.69977 64.0695 8.66175C63.9967 8.62379 63.9112 8.60604 63.8132 8.60849C63.7151 8.61502 63.6374 8.62187 63.58 8.63724C63.3302 8.68615 62.9842 8.87227 62.5502 9.19162C62.1121 9.515 61.6276 9.9274 61.1007 10.433C60.9263 10.6097 60.7852 10.7462 60.6693 10.8422C60.5534 10.9383 60.4791 10.986 60.4423 10.9895C60.4055 10.9929 60.3816 10.9558 60.3665 10.8862C60.348 10.7675 60.2966 10.6686 60.2081 10.5937C60.1195 10.5187 60.018 10.4844 59.8954 10.4905C59.8341 10.4935 59.7562 10.5168 59.6616 10.556C59.4725 10.6386 59.2185 10.9364 58.8997 11.4496C58.7487 11.692 58.5888 11.9751 58.4201 12.2989C58.3827 12.3432 58.3412 12.3833 58.3037 12.4276C57.8669 12.9183 57.5221 13.2759 57.2612 13.4961C57.0003 13.7204 56.782 13.8351 56.5981 13.8443C56.3693 13.8568 56.1847 13.666 56.0484 13.2718C55.9936 13.128 55.96 12.9396 55.9477 12.6986C55.9358 12.433 55.9568 12.1517 56.015 11.8465C56.0731 11.5413 56.1554 11.261 56.2659 11.0015C56.3635 10.7786 56.4112 10.608 56.405 10.4895C56.3994 10.3343 56.2835 10.1894 56.0612 10.0551C56.0005 10.0214 55.9436 10.0082 55.8946 10.0074C55.8211 10.0103 55.7347 10.0497 55.6272 10.1295L54.9088 10.6156L54.4341 10.9261L53.7859 10.6295C53.3321 10.4219 52.8479 10.3281 52.3454 10.3524C51.757 10.3794 51.1662 10.5573 50.5729 10.8863C50.1155 11.1399 49.6732 11.4714 49.2541 11.8767C49.0926 12.0128 48.8977 12.1933 48.6653 12.4221C47.7773 13.285 47.1536 13.7237 46.7941 13.7381C46.7083 13.7407 46.6472 13.7316 46.6108 13.7105C46.5501 13.6769 46.4946 13.578 46.4525 13.4099C46.4104 13.2418 46.3624 12.9389 46.3209 12.4933C46.2574 11.8921 46.1865 11.4908 46.1084 11.2813C46.0342 11.076 45.8741 10.8855 45.6401 10.7142C45.4547 10.5764 45.2107 10.5193 44.9084 10.5306C44.4631 10.5518 43.9131 10.7304 43.2542 11.0705C42.5954 11.4106 41.8567 11.8882 41.0422 12.5033C40.8106 12.6831 40.6287 12.8189 40.5007 12.9066C40.3726 12.9983 40.3068 13.0258 40.3074 12.9891C40.3078 12.9646 40.3335 12.8915 40.3886 12.77C40.6724 12.1542 40.9376 11.6728 41.1884 11.3218C41.4351 10.9748 41.7133 10.6937 42.0188 10.4865C42.4978 10.1638 43.2058 9.56736 44.1388 8.69704C45.0759 7.82678 45.9892 6.91939 46.8867 5.97499C47.7842 5.03059 48.4294 4.2861 48.8261 3.74975C49.461 2.88671 49.7665 2.19373 49.7386 1.66256C49.7269 1.38476 49.6202 1.17477 49.4185 1.02852C49.2171 0.870035 48.9978 0.796999 48.7568 0.80523C48.5403 0.81387 48.2488 0.915132 47.8864 1.10097C47.0257 1.55201 46.0351 2.44588 44.9145 3.79072C43.79 5.13141 42.6064 6.82627 41.368 8.87539C40.9984 9.49383 40.3629 10.6386 39.4575 12.3013C39.2932 12.6048 39.1375 12.8879 38.9984 13.151C38.7628 13.3226 38.411 13.6107 37.939 14.011C37.1398 14.6876 36.4946 15.1872 36.0034 15.5137C35.5122 15.8362 35.0055 16.1095 34.4875 16.3254C33.9902 16.5294 33.5637 16.6406 33.2002 16.655C32.8529 16.6696 32.5806 16.5998 32.3873 16.4414C32.194 16.2831 32.0876 16.0527 32.0763 15.7504C32.0642 15.4971 32.1282 15.0818 32.2726 14.5045C32.4128 13.9271 32.5503 13.5171 32.6849 13.2825C32.8278 13.0359 33.2068 12.8259 33.8221 12.6524C34.4332 12.4789 35.2026 12.3692 36.1299 12.3275C36.5262 12.3096 36.792 12.2855 36.9313 12.2551C37.0665 12.2247 37.182 12.1573 37.2735 12.0567C37.4107 11.9039 37.4778 11.7948 37.475 11.7212C37.4717 11.6722 37.3959 11.5689 37.2434 11.4071C37.1674 11.3161 37.0622 11.2612 36.9278 11.2427C36.7934 11.2241 36.5525 11.2242 36.2052 11.2388L35.4127 11.2746L36.2092 10.5122C37.234 9.52501 38.2572 8.38674 39.2746 7.1055C40.2921 5.82427 40.9493 4.84729 41.2421 4.18266C41.3948 3.8382 41.4616 3.50458 41.4466 3.17774C41.4316 2.85498 41.3297 2.60018 41.1409 2.41333C40.9521 2.23056 40.7045 2.14478 40.4062 2.16022C40.2387 2.16967 40.0461 2.21136 39.8325 2.29353C39.1707 2.56419 38.4103 3.11898 37.5513 3.9538C36.6924 4.78861 35.8302 5.81932 34.9566 7.04172C34.0871 8.26419 33.2978 9.57373 32.5928 10.9663C32.3607 11.4238 32.1924 11.719 32.0839 11.86C31.9755 11.997 31.8225 12.1129 31.6209 12.2075C31.4316 12.3023 31.3078 12.3819 31.2536 12.4504C31.1953 12.5188 31.1732 12.6205 31.1791 12.7512C31.1857 12.8493 31.2046 12.9354 31.2442 13.0095C31.2442 13.0095 31.2442 13.0136 31.2483 13.0137C31.0447 13.2266 30.8285 13.4598 30.5915 13.7171C30.1547 14.2079 29.8099 14.5655 29.549 14.7857C29.2881 15.0099 29.0698 15.1247 28.886 15.1339C28.6572 15.1464 28.4725 14.9555 28.3362 14.5613C28.2815 14.4176 28.2479 14.2292 28.2356 13.9882C28.2236 13.7226 28.2447 13.4413 28.3028 13.136C28.361 12.8308 28.4432 12.5505 28.5537 12.2911C28.6513 12.0682 28.699 11.8975 28.6929 11.779C28.6873 11.6238 28.5713 11.479 28.3449 11.3446C28.2843 11.3109 28.2273 11.2977 28.1783 11.2969C28.1048 11.2998 28.0184 11.3392 27.911 11.419L27.1925 11.9051L26.7179 12.2156L26.0697 11.919C25.6159 11.7114 25.1316 11.6176 24.6291 11.6419C24.0408 11.6689 23.45 11.8468 22.8566 12.1758C22.2633 12.5047 21.7046 12.9608 21.1765 13.5398C20.6818 14.0705 20.3439 14.5057 20.1544 14.8537C19.9649 15.2016 19.8777 15.5308 19.893 15.8413C19.9018 16.0456 19.9722 16.2305 20.1002 16.3918C20.2281 16.5532 20.3896 16.6661 20.5844 16.7305C20.6576 16.7522 20.7309 16.7616 20.8045 16.7546C21.2008 16.7367 21.6602 16.6015 22.1789 16.3448C22.8251 16.0249 23.9965 15.3055 25.693 14.1907C26.044 13.9475 26.3455 13.7403 26.5972 13.5771C26.849 13.4139 27.0221 13.3147 27.1167 13.2714C27.1412 13.2718 27.1603 13.3497 27.1822 13.5052C27.2 13.6606 27.2174 13.8405 27.2263 14.0448C27.2682 14.96 27.5597 15.5976 28.0925 15.9575C28.3148 16.0919 28.5914 16.1496 28.9142 16.1345C29.3105 16.1166 29.6716 16.0043 30.0017 15.7934C30.2534 15.6343 30.6268 15.2772 31.1217 14.7302C31.0461 15.1005 31.016 15.4347 31.0275 15.7248C31.0582 16.3376 31.2705 16.827 31.6767 17.193C31.7772 17.2845 31.9023 17.3723 32.0519 17.4564C32.2016 17.5406 32.3232 17.5916 32.4209 17.6095C32.6895 17.6589 32.9342 17.6753 33.1629 17.6668C33.8371 17.6331 34.596 17.4131 35.4357 16.9984C36.1848 16.6312 36.9648 16.1258 37.7756 15.4861C37.7244 15.6159 37.698 15.7339 37.7043 15.8442C37.7137 16.0117 37.7891 16.1477 37.9384 16.2481C38.0271 16.3149 38.1164 16.3491 38.2145 16.3426C38.3125 16.336 38.4278 16.2767 38.5687 16.1525C38.7095 16.0324 38.9544 15.7875 39.3116 15.4219C39.8975 14.803 40.5484 14.2096 41.26 13.6418C41.9757 13.074 42.6489 12.6076 43.2836 12.2467C43.9183 11.8858 44.3951 11.6896 44.7222 11.6624L45.1718 11.625L45.2959 12.7579C45.3591 13.3713 45.4419 13.7931 45.5359 14.0315C45.6299 14.2698 45.8144 14.4648 46.0894 14.6204C46.2755 14.7215 46.5076 14.7621 46.7813 14.7503C47.0796 14.7349 47.3582 14.6701 47.6214 14.5561C47.6345 14.7523 47.701 14.9248 47.8249 15.082C47.9529 15.2434 48.1143 15.3563 48.3092 15.4208C48.3823 15.4424 48.4556 15.4518 48.5292 15.4449C48.9255 15.427 49.385 15.2918 49.9036 15.035C50.5499 14.7151 51.7213 13.9957 53.4177 12.8809C53.7688 12.6337 54.0702 12.4305 54.3179 12.2673C54.5696 12.1041 54.7427 12.0049 54.8373 11.9616C54.8618 11.962 54.8809 12.0399 54.9028 12.1954C54.9207 12.3508 54.9381 12.5307 54.9469 12.735C54.9888 13.6501 55.2803 14.2878 55.8132 14.6477C56.0355 14.7821 56.3121 14.8397 56.6349 14.8247C56.8963 14.8127 57.1381 14.7596 57.3683 14.6655C57.2949 14.901 57.259 15.0964 57.2688 15.2476C57.2776 15.4518 57.3566 15.6124 57.5098 15.7252C57.6831 15.8628 57.7799 15.9297 57.7922 15.9299C57.8984 15.9235 58.0472 15.8157 58.2304 15.6024C58.4135 15.3891 58.6891 15.0222 59.0652 14.4978C59.5504 13.7996 60.2298 12.9618 61.1074 11.9885C61.985 11.0152 62.6244 10.3727 63.0337 10.0651C63.3353 9.84564 63.5128 9.73428 63.5618 9.73101C63.6108 9.72775 63.6428 9.76912 63.6577 9.8551C63.688 9.99849 63.5908 10.4418 63.3579 11.1891C63.0982 12.0707 62.9743 12.6483 62.9861 12.922C62.9953 13.1018 63.0464 13.221 63.1476 13.2758C63.285 13.3556 63.3743 13.3898 63.4233 13.3906C63.509 13.3879 63.6538 13.276 63.8614 13.0631C64.0442 12.8743 64.3789 12.635 64.8572 12.349C65.3396 12.0631 65.6401 11.913 65.7585 11.9109C65.8198 11.9078 65.8637 11.9698 65.8943 12.0927C65.9248 12.2198 65.9493 12.4652 65.9675 12.841C65.9854 13.2373 66.0137 13.5032 66.0522 13.6426C66.0867 13.7779 66.1581 13.9016 66.2584 14.0053C66.411 14.1548 66.6549 14.2201 66.9899 14.2053C67.3045 14.1901 67.5834 14.1131 67.8267 13.9661C68.0618 13.823 68.5659 13.46 69.339 12.8727C70.1122 12.2896 70.5219 11.9535 70.5642 11.8644C70.6189 11.7673 70.645 11.6698 70.6426 11.5718C70.6192 11.5061 70.588 11.4198 70.532 11.3454ZM42.9538 8.27314C43.0212 8.14771 43.3228 7.68735 43.8668 6.89219C44.9043 5.38676 45.888 4.17028 46.8219 3.2469C47.1913 2.88156 47.5806 2.55329 47.9976 2.27039C48.4105 1.98743 48.6203 1.89293 48.6269 1.98694C48.6325 2.14216 48.418 2.51826 47.9754 3.11099C47.5328 3.70372 46.9663 4.38011 46.2718 5.14419C45.5774 5.90419 44.8921 6.61127 44.2118 7.25719C43.6599 7.79095 43.2952 8.12371 43.1214 8.25961C42.9437 8.39137 42.8864 8.39857 42.9538 8.27314ZM34.1977 10.197C34.6476 9.41252 35.1131 8.67319 35.5858 7.99115C36.2637 6.9941 36.9768 6.09154 37.7252 5.27937C38.4776 4.46727 39.1157 3.90231 39.6435 3.58859C40.0434 3.3544 40.2699 3.23569 40.3312 3.23263C40.417 3.22998 40.4107 3.3605 40.3123 3.63238C40.218 3.90024 40.0618 4.212 39.8478 4.55952C39.4361 5.25482 38.6478 6.26228 37.4868 7.58195C36.3258 8.90162 35.3122 9.9543 34.4458 10.7441C34.2594 10.9084 34.0855 11.0565 33.916 11.1843C33.7464 11.3121 33.6515 11.3759 33.6269 11.3795C33.5576 11.3743 33.7438 10.9814 34.1977 10.197ZM24.2649 13.8975C23.3363 14.5025 22.631 14.9357 22.149 15.1972C21.7123 15.4348 21.4036 15.5889 21.2229 15.6553C21.038 15.7257 20.9441 15.7241 20.9412 15.6506C20.9417 15.6261 20.984 15.537 21.0723 15.3833C21.1605 15.2297 21.2694 15.0641 21.3907 14.8906C21.7632 14.3416 22.2119 13.8714 22.7451 13.4803C23.2741 13.089 23.7968 12.8364 24.3089 12.7307C24.5097 12.685 24.7873 12.6856 25.1334 12.7362C25.4796 12.7869 25.6541 12.847 25.657 12.9205C25.6602 12.9696 25.1935 13.2965 24.2649 13.8975ZM51.9895 12.5959C51.0609 13.2009 50.3556 13.6341 49.8736 13.8955C49.4369 14.1332 49.1282 14.2873 48.9475 14.3537C48.7626 14.4241 48.6687 14.4225 48.6659 14.349C48.6663 14.3245 48.7086 14.2354 48.7969 14.0817C48.8852 13.9281 48.994 13.7625 49.1153 13.589C49.2493 13.3912 49.3953 13.2017 49.5535 13.0207C49.6449 12.9242 49.7279 12.8399 49.7987 12.7594C50.0063 12.5506 50.23 12.3543 50.4697 12.1786C50.9987 11.7874 51.5214 11.5348 52.0335 11.429C52.2343 11.3834 52.5119 11.384 52.858 11.4346C53.2042 11.4853 53.3787 11.5454 53.3816 11.6189C53.3808 11.6638 52.9181 11.9908 51.9895 12.5959Z" fill="#34291E"/>
<path d="M75.1553 23.4823C75.0758 23.3544 74.9747 23.2956 74.8522 23.3017C74.7337 23.3079 74.5813 23.387 74.3952 23.5309C74.2132 23.6748 73.9603 23.9074 73.6446 24.2328C72.7726 25.1123 72.1569 25.5593 71.7972 25.5859C71.7114 25.5927 71.6503 25.5835 71.6139 25.5625C71.5532 25.5288 71.4977 25.4299 71.4515 25.2658C71.4052 25.1018 71.3532 24.7947 71.2993 24.3529C71.2235 23.7556 71.1445 23.3543 71.0663 23.1448C70.9881 22.9393 70.8279 22.753 70.5857 22.5897C70.3961 22.4559 70.152 22.4029 69.8496 22.4223C69.4041 22.4516 68.858 22.6426 68.2031 22.9909C67.5522 23.3434 66.8215 23.8333 66.019 24.465C65.7914 24.649 65.6135 24.7889 65.4854 24.8807C65.3573 24.9724 65.2956 25 65.2921 24.9672C65.2925 24.9427 65.3141 24.8696 65.3693 24.744C65.6409 24.1239 65.8981 23.6342 66.1407 23.2831C66.3834 22.9279 66.6534 22.6467 66.955 22.4353C67.4259 22.1043 68.1219 21.4913 69.043 20.6045C69.96 19.7175 70.8612 18.7936 71.7386 17.8325C72.616 16.8715 73.2491 16.1186 73.6337 15.5739C74.2525 14.7024 74.5417 14.001 74.5098 13.4698C74.4899 13.1918 74.3832 12.9819 74.1773 12.8396C73.9758 12.6852 73.7524 12.6162 73.5114 12.6285C73.2948 12.6412 73.0073 12.7467 72.6448 12.9407C71.796 13.4082 70.8214 14.3228 69.721 15.6843C68.6206 17.0458 67.4693 18.7616 66.2673 20.8317C65.914 21.4504 65.3114 22.5835 64.4553 24.2266C64.3931 24.2868 64.3224 24.3591 64.2434 24.4476C63.994 24.7129 63.7196 25.0145 63.4158 25.3606C62.9911 25.8597 62.6503 26.2214 62.3934 26.4498C62.1365 26.6782 61.9181 26.7971 61.7383 26.8104C61.5094 26.827 61.3206 26.6401 61.1761 26.2499C61.1172 26.1101 61.0837 25.9177 61.0673 25.6766C61.0513 25.411 61.0682 25.1296 61.1182 24.8242C61.1723 24.5189 61.2464 24.2385 61.3528 23.9749C61.4463 23.7519 61.49 23.5812 61.4839 23.4586C61.4742 23.3033 61.3542 23.1585 61.1318 23.0282C61.0711 22.9945 61.0142 22.9813 60.9652 22.9846C60.8916 22.9874 60.8052 23.0309 60.7018 23.1108L59.9913 23.6093L59.5247 23.9281L58.8722 23.6437C58.4142 23.4442 57.9297 23.3627 57.4271 23.3951C56.8386 23.4343 56.2516 23.6246 55.6622 23.9617C55.2088 24.2236 54.7745 24.5634 54.3634 24.977C54.206 25.1173 54.011 25.3018 53.7826 25.5348C52.9107 26.4143 52.2949 26.8612 51.9352 26.8879C51.8494 26.8946 51.7883 26.8855 51.7519 26.8644C51.6912 26.8308 51.6358 26.7319 51.5895 26.5678C51.5432 26.4038 51.4912 26.0967 51.4373 25.6549C51.3615 25.0576 51.2825 24.6562 51.2043 24.4467C51.1261 24.2413 50.9659 24.0549 50.7237 23.8917C50.5341 23.7579 50.29 23.7048 49.9876 23.7243C49.5421 23.7536 48.996 23.9446 48.3411 24.2929C47.6902 24.6454 46.9595 25.1353 46.157 25.767C45.9294 25.951 45.7515 26.0909 45.6234 26.1826C45.4953 26.2744 45.4336 26.3019 45.4301 26.2692C45.4305 26.2447 45.4522 26.1716 45.5073 26.046C45.7789 25.4259 46.0361 24.9362 46.2787 24.5851C46.5214 24.2299 46.7915 23.9486 47.093 23.7373C47.5639 23.4063 48.2599 22.7933 49.181 21.9065C50.098 21.0195 50.9992 20.0956 51.8766 19.1345C52.754 18.1735 53.3871 17.4206 53.7718 16.8759C54.3905 16.0044 54.6798 15.303 54.6478 14.7718C54.6279 14.4938 54.5212 14.2839 54.3154 14.1416C54.1138 13.9872 53.8904 13.9182 53.6494 13.9305C53.4328 13.9432 53.1453 14.0486 52.7828 14.2426C51.934 14.7102 50.9595 15.6247 49.859 16.9862C48.7586 18.3478 47.6073 20.0677 46.4053 22.1337C46.0479 22.7605 45.4326 23.9137 44.5596 25.5934C44.4667 25.7755 44.374 25.9495 44.2896 26.1155C44.2693 26.107 44.249 26.1026 44.2246 26.094C44.1394 26.064 44.0457 26.0502 43.9517 26.0568C43.7842 26.0663 43.4065 26.1947 42.8187 26.438L41.7252 26.8893L41.2861 26.539C40.7017 26.0843 39.5701 25.6449 37.887 25.225C37.521 25.1413 37.1836 25.05 36.8832 24.947C36.5828 24.8481 36.4125 24.7799 36.3722 24.7466C36.2958 24.68 36.2522 24.5977 36.2457 24.4996C36.2293 24.2584 36.4687 23.8583 36.9638 23.295C37.5256 22.6552 38.2462 22.0427 39.1336 21.4614C40.0169 20.8801 40.8319 20.4773 41.5785 20.2611C41.8166 20.1834 42.1235 20.1355 42.5077 20.1092C42.7488 20.0928 42.9611 20.0964 43.1526 20.12C43.34 20.1435 43.4535 20.1862 43.4934 20.244C43.5335 20.2896 43.5568 20.3594 43.5633 20.4575C43.5799 20.6864 43.5016 20.979 43.3323 21.3395C43.2261 21.5868 43.1817 21.8024 43.195 21.9822C43.2147 22.2724 43.3798 22.4058 43.6905 22.3824C43.8335 22.3726 43.9782 22.2606 44.1206 22.0467C44.263 21.8327 44.3776 21.5692 44.4685 21.2564C44.5554 20.9435 44.593 20.6502 44.5731 20.3723C44.5604 20.1557 44.5263 19.9959 44.4791 19.889C44.4278 19.782 44.332 19.6497 44.1918 19.4923C43.8183 19.1186 43.2822 18.9546 42.5834 19.0001C42.2605 19.0233 41.8181 19.1098 41.2603 19.2679C40.3986 19.5311 39.5056 19.9612 38.5852 20.5583C37.6649 21.1553 36.8867 21.7996 36.2505 22.4952C35.6144 23.1868 35.2655 23.7892 35.2039 24.3026C35.1888 24.4738 35.1869 24.5881 35.19 24.6494C35.2164 25.0213 35.391 25.3222 35.7219 25.5563C36.0487 25.7863 36.5963 25.9996 37.3565 26.1918C38.1776 26.4015 38.7953 26.5751 39.2095 26.7044C39.6237 26.8338 39.9603 26.9701 40.2233 27.1092L40.6523 27.3327L39.3252 28.0903C38.5915 28.5108 37.9476 28.9369 37.3895 29.3562C36.8313 29.7797 36.4539 30.1367 36.2571 30.4273C36.0938 30.6777 36.0202 30.9255 36.0326 31.1666C36.0485 31.4322 36.1595 31.6341 36.3611 31.7804C36.5508 31.9142 36.803 31.9673 37.1136 31.948C37.3915 31.9281 37.8054 31.8371 38.3634 31.6667C39.0365 31.4534 39.6662 31.1455 40.2485 30.747C40.8307 30.3484 41.287 29.9151 41.6212 29.4553C41.9515 28.9914 42.1055 28.5694 42.0792 28.1852C42.0726 28.0912 42.0902 28.0139 42.1361 27.9534C42.182 27.897 42.2976 27.8214 42.491 27.7307C42.6843 27.64 42.9433 27.5301 43.2762 27.3968C43.4447 27.3343 43.5927 27.2714 43.7282 27.2206C43.3357 27.9897 43.078 28.5121 42.9508 28.7957C42.8871 28.9457 42.8604 29.08 42.8706 29.1985C42.8801 29.3661 42.9636 29.4981 43.113 29.5986C43.2017 29.6654 43.2951 29.6955 43.3891 29.6889C43.4872 29.6824 43.6026 29.619 43.7393 29.4947C43.8761 29.3704 44.117 29.1213 44.4702 28.7517C45.044 28.1244 45.6828 27.5186 46.3865 26.9343C47.0903 26.35 47.7554 25.8752 48.3822 25.5019C49.0089 25.1286 49.4859 24.9243 49.8089 24.8929L50.2588 24.8433L50.4074 25.9725C50.483 26.582 50.5698 27.004 50.672 27.2384C50.7702 27.4727 50.9588 27.6677 51.234 27.8152C51.4201 27.9122 51.6522 27.9487 51.9301 27.9329C52.2284 27.9134 52.5072 27.8446 52.7705 27.7224C52.7877 27.9145 52.8582 28.0913 52.9822 28.2444C53.1142 28.4058 53.2757 28.5146 53.4748 28.5751C53.548 28.5926 53.6213 28.602 53.6949 28.5951C54.0913 28.569 54.5468 28.4256 55.0615 28.1607C55.7039 27.8284 56.8593 27.0884 58.5359 25.9406C58.883 25.6892 59.1764 25.4777 59.4282 25.3104C59.6759 25.1431 59.8491 25.0398 59.9396 24.9965C59.9641 24.9969 59.9874 25.0707 60.0093 25.2262C60.0312 25.3817 60.0486 25.5616 60.0615 25.766C60.1198 26.6773 60.4236 27.311 60.9648 27.663C61.1912 27.7933 61.4638 27.8468 61.7907 27.8278C62.1627 27.8013 62.5033 27.6927 62.8127 27.5019C62.7532 27.6438 62.7265 27.774 62.7368 27.8925C62.7462 28.0601 62.8297 28.1921 62.9791 28.2926C63.0678 28.3594 63.1612 28.3895 63.2552 28.3829C63.3533 28.3764 63.4687 28.313 63.6055 28.1887C63.7423 28.0644 63.9832 27.8153 64.3363 27.4457C64.9102 26.8184 65.5489 26.2126 66.2527 25.6283C66.9564 25.044 67.6216 24.5693 68.2483 24.196C68.8751 23.8227 69.352 23.6183 69.6751 23.5869L70.1249 23.5373L70.2735 24.6665C70.3491 25.276 70.4359 25.698 70.5382 25.9324C70.6363 26.1667 70.8249 26.3617 71.1001 26.5092C71.2863 26.6062 71.5184 26.6427 71.7962 26.6269C72.2171 26.6013 72.5989 26.4729 72.9457 26.2419C73.3044 26.0274 73.7643 25.6269 74.325 25.0484C74.8858 24.4698 75.1818 24.0951 75.2174 23.9202C75.2262 23.8836 75.2312 23.8306 75.2242 23.757C75.2184 23.6181 75.1954 23.5279 75.1553 23.4823ZM67.8621 20.1806C67.9254 20.0551 68.223 19.5906 68.7467 18.7829C69.756 17.2566 70.7196 16.0234 71.6334 15.0834C71.9948 14.7097 72.38 14.3773 72.789 14.0861C73.198 13.7949 73.4038 13.6963 73.4104 13.7903C73.42 13.9456 73.2096 14.3258 72.7791 14.9269C72.3486 15.528 71.7941 16.2169 71.1158 16.9894C70.4375 17.766 69.7642 18.4814 69.096 19.1398C68.5522 19.6818 68.1954 20.0229 68.0217 20.1588C67.852 20.2989 67.7988 20.3061 67.8621 20.1806ZM48.0082 21.4868C48.0715 21.3613 48.3691 20.8968 48.8929 20.0891C49.9022 18.5628 50.8657 17.3296 51.7795 16.3896C52.1409 16.0159 52.5261 15.6835 52.9351 15.3923C53.3441 15.1011 53.5499 15.0025 53.5565 15.0965C53.5661 15.2518 53.3557 15.632 52.9252 16.2331C52.4947 16.8342 51.9402 17.5231 51.2619 18.2956C50.5836 19.0722 49.9103 19.7876 49.2421 20.446C48.6983 20.988 48.3415 21.3291 48.1678 21.465C47.9981 21.6051 47.9449 21.6083 48.0082 21.4868ZM40.6902 28.9785C40.4981 29.2406 40.2534 29.4693 39.9684 29.6687C39.795 29.7882 39.5681 29.9273 39.2919 30.086C39.0117 30.2446 38.7606 30.3711 38.5385 30.4694C37.6589 30.8304 37.2654 30.9218 37.3623 30.7438C37.4256 30.6183 37.7401 30.3623 38.2977 29.9756C38.8553 29.5889 39.4164 29.2349 39.9728 28.9135C40.5293 28.5921 40.8337 28.4543 40.886 28.5C40.9503 28.5583 40.8865 28.7164 40.6902 28.9785ZM57.1203 25.6353C56.2037 26.2569 55.5063 26.7025 55.0282 26.9762C54.5995 27.2222 54.2907 27.3803 54.1099 27.4508C53.9291 27.5253 53.8352 27.5238 53.8282 27.4502C53.8287 27.4257 53.8669 27.3365 53.9553 27.1788C54.0395 27.021 54.1444 26.8553 54.2657 26.6777C54.3956 26.4758 54.5417 26.2863 54.6917 26.101C54.7831 26.0046 54.8622 25.9161 54.9329 25.8356C55.1365 25.6227 55.3562 25.4222 55.5919 25.2424C56.113 24.8388 56.6316 24.5821 57.144 24.46C57.3448 24.4103 57.6184 24.4066 57.9688 24.4492C58.3151 24.4917 58.4896 24.5518 58.4966 24.6213C58.4956 24.6825 58.037 25.0137 57.1203 25.6353Z" fill="#34291E"/>
</svg>
