<svg width="109" height="47" viewBox="0 0 109 47" fill="none" xmlns="http://www.w3.org/2000/svg">
<path d="M17.2545 15.0936C18.0998 14.1725 18.5004 13.2849 18.4621 12.4251C18.4271 11.7173 18.0987 11.0805 17.4654 10.503C16.9069 9.99691 16.2349 9.63502 15.4495 9.41737C14.664 9.20555 13.7126 9.12539 12.5896 9.17682C11.4899 9.22863 10.3761 9.42049 9.25433 9.74665C8.13252 10.0728 7.31982 10.4392 6.82208 10.8459C6.55543 11.0635 6.42825 11.3303 6.44646 11.6404C6.45912 11.9328 6.59623 12.1221 6.86356 12.2142C6.98549 12.263 7.10207 12.2825 7.20151 12.2783C7.35363 12.2692 7.54204 12.1846 7.76106 12.0188C8.0804 11.7962 8.28103 11.6826 8.36878 11.6782C8.40384 11.6788 8.31902 11.8586 8.10837 12.2233C7.90357 12.5881 7.65134 12.9931 7.36337 13.4383C6.65497 14.5604 5.46189 16.709 3.78391 19.8957C3.48221 20.4634 2.82173 21.8669 1.80813 24.1178C0.794624 26.3629 0.284124 27.535 0.288604 27.6169C0.293279 27.6872 0.315377 27.7635 0.366408 27.8579C0.411596 27.9522 0.474605 28.0292 0.543653 28.0946C0.704829 28.2434 0.879058 28.3107 1.07208 28.3022C1.25926 28.2936 1.43037 28.1971 1.57363 28.0183C1.7052 27.8393 2.3164 26.587 3.41317 24.2556L5.03738 20.7875L6.67493 20.3764C7.63157 20.141 8.80111 19.7572 10.1776 19.2307C11.56 18.6985 12.6845 18.2087 13.5631 17.7499C15.1787 16.9001 16.4092 16.0147 17.2545 15.0936ZM10.5105 17.4945C9.43325 17.95 8.5099 18.2911 7.72291 18.5176C7.14706 18.7009 6.71837 18.8224 6.44841 18.888C6.17261 18.9535 6.03792 18.9689 6.0385 18.9338C6.02915 18.7934 6.50566 17.907 7.46823 16.2631C8.42486 14.625 9.25997 13.2653 9.96749 12.1958L10.8849 10.8083L11.8342 10.6605C11.9866 10.6338 12.2207 10.6144 12.5307 10.602C13.3905 10.5637 14.2306 10.6595 15.0567 10.8954C15.8768 11.1312 16.4269 11.4443 16.7069 11.8288C16.8552 12.0476 16.9335 12.2593 16.9418 12.464C16.9683 12.9788 16.6722 13.5584 16.0536 14.2027C15.435 14.847 14.5537 15.4752 13.4094 16.0991C12.5481 16.5757 11.5818 17.0389 10.5105 17.4945Z" fill="#EAE7D8"/>
<path d="M31.3118 17.0989C31.3026 16.9468 31.2291 16.7994 31.0852 16.6684C30.9585 16.5553 30.8191 16.5003 30.6611 16.5094C30.4037 16.5226 30.1267 16.6641 29.8298 16.9397C29.4503 17.2666 28.9539 17.5915 28.3467 17.9028C27.7395 18.2142 27.2394 18.4104 26.8467 18.4799C26.7294 18.5013 26.5889 18.5165 26.4368 18.5256C26.1969 18.5391 25.982 18.4596 25.8035 18.2988C25.6074 18.1377 25.4996 17.9431 25.4916 17.7208C25.4866 17.6681 25.4955 17.4871 25.5182 17.1777C25.5316 17.0727 25.5341 16.9266 25.5255 16.7394C25.5076 16.4118 25.4241 16.1591 25.2692 15.987C25.1142 15.8149 24.9169 15.7298 24.6771 15.7434C24.4022 15.7563 23.5652 16.1749 22.1604 16.999C20.7556 17.8231 19.373 18.7177 18.001 19.6768C17.3328 20.1391 16.9962 20.3439 16.9971 20.2913C16.9927 20.2036 17.3293 19.648 18.007 18.6131C18.361 18.0637 18.6076 17.647 18.7526 17.363C18.8918 17.079 18.9597 16.8638 18.9564 16.706C18.9476 16.5363 18.8855 16.4009 18.7703 16.2996C18.655 16.2041 18.5155 16.155 18.3634 16.1642C18.106 16.1774 17.8702 16.3021 17.6559 16.5323C17.4594 16.7512 17.0158 17.4159 16.3249 18.5383C15.6342 19.6549 15.0144 20.72 14.4539 21.7335C13.9955 22.5851 13.7696 23.1658 13.7878 23.4759C13.7964 23.663 13.8812 23.8339 14.0424 23.9828C14.2208 24.1494 14.3656 24.2278 14.465 24.2236C14.5703 24.2195 15.0912 23.8307 16.0391 23.0633C17.0523 22.2385 18.5845 21.136 20.6357 19.7557C22.6868 18.3755 23.7556 17.727 23.842 17.8044C23.8765 17.84 24.0007 18.0993 24.2147 18.588C24.4456 19.112 24.7493 19.4794 25.1199 19.6843C25.3516 19.8109 25.5372 19.8959 25.6769 19.9274C25.8166 19.9648 26.0269 19.9742 26.3018 19.9612C27.0447 19.9268 27.5718 19.8596 27.8948 19.7715C28.2178 19.6775 28.6479 19.4743 29.1851 19.1559C30.6261 18.2623 31.333 17.5785 31.3118 17.0989Z" fill="#EAE7D8"/>
<path d="M100.986 16.2434C100.906 16.1368 100.802 16.0474 100.674 15.9869C100.57 15.9559 100.5 15.943 100.465 15.9424C100.313 15.9516 100.101 16.0416 99.8288 16.2182C99.5628 16.395 99.0423 16.7663 98.2788 17.338C97.746 17.7441 97.2551 18.0925 96.8118 18.389C96.3684 18.6856 96.1147 18.8333 96.0444 18.838C95.9742 18.8426 95.9279 18.8185 95.8995 18.7654C95.8712 18.7123 95.8552 18.6186 95.8458 18.484L95.8679 17.8589C95.8859 17.4793 95.8901 17.2281 95.8863 17.1053C95.8684 16.7777 95.82 16.5197 95.7356 16.3254C95.6512 16.1311 95.5137 15.9593 95.3349 15.816C95.0986 15.6192 94.7786 15.5321 94.3633 15.5485C94.0006 15.5659 93.5662 15.6814 93.06 15.895C92.5713 16.109 92.3243 16.1984 92.3249 16.1633L92.5159 15.2255C92.6424 14.649 92.7027 14.1882 92.685 13.8431C92.6632 13.3985 92.4825 13.0156 92.137 12.7059C91.9758 12.5571 91.8431 12.4555 91.733 12.4011C91.6287 12.3467 91.5064 12.3213 91.366 12.3248C91.2256 12.3342 91.1144 12.344 91.0322 12.366C90.6745 12.436 90.1791 12.7025 89.5577 13.1597C88.9305 13.6227 88.2368 14.2132 87.4824 14.937C87.2327 15.1901 87.0307 15.3854 86.8648 15.5229C86.6988 15.6604 86.5925 15.7288 86.5398 15.7338C86.4871 15.7387 86.4529 15.6856 86.4312 15.5858C86.4048 15.4159 86.3312 15.2744 86.2044 15.1671C86.0776 15.0598 85.9323 15.0106 85.7568 15.0193C85.6691 15.0237 85.5574 15.057 85.4221 15.1132C85.1512 15.2314 84.7876 15.6578 84.3311 16.3925C84.1149 16.7396 83.8861 17.1449 83.6446 17.6085C83.5909 17.6719 83.5315 17.7293 83.4778 17.7927C82.8524 18.4954 82.3588 19.0074 81.9853 19.3226C81.6117 19.6437 81.2992 19.808 81.036 19.8212C80.7084 19.8391 80.444 19.5658 80.2489 19.0015C80.1705 18.7956 80.1224 18.5259 80.1047 18.1808C80.0877 17.8006 80.1178 17.3978 80.201 16.9608C80.2843 16.5238 80.4021 16.1225 80.5602 15.751C80.7 15.4319 80.7683 15.1876 80.7595 15.0179C80.7515 14.7957 80.5854 14.5883 80.2671 14.396C80.1803 14.3478 80.0988 14.3289 80.0287 14.3277C79.9234 14.3318 79.7997 14.3882 79.6458 14.5026L78.6172 15.1985L77.9377 15.6431L77.0096 15.2184C76.3599 14.9212 75.6666 14.7869 74.9471 14.8217C74.1048 14.8603 73.2589 15.115 72.4094 15.586C71.7545 15.9492 71.1212 16.4237 70.5212 17.0041C70.29 17.1989 70.011 17.4573 69.6783 17.7849C68.4069 19.0204 67.5138 19.6484 66.9991 19.6691C66.8763 19.6729 66.7888 19.6597 66.7367 19.6296C66.6499 19.5814 66.5704 19.4398 66.5101 19.1992C66.4499 18.9585 66.3811 18.5249 66.3216 17.8868C66.2307 17.0261 66.1293 16.4516 66.0174 16.1516C65.9112 15.8576 65.6819 15.5849 65.347 15.3397C65.0814 15.1424 64.7321 15.0606 64.2993 15.0768C63.6617 15.1071 62.8743 15.3628 61.931 15.8498C60.9877 16.3367 59.9301 17.0205 58.764 17.9011C58.4324 18.1586 58.1719 18.353 57.9886 18.4786C57.8052 18.6099 57.7111 18.6493 57.712 18.5967C57.7125 18.5616 57.7494 18.457 57.8282 18.283C58.2345 17.4013 58.6143 16.7121 58.9733 16.2096C59.3265 15.7128 59.7248 15.3103 60.1622 15.0137C60.8479 14.5517 61.8616 13.6977 63.1975 12.4516C64.5392 11.2056 65.8467 9.9065 67.1317 8.55436C68.4168 7.20223 69.3405 6.13631 69.9085 5.36841C70.8175 4.13275 71.2549 3.14059 71.215 2.38009C71.1982 1.98236 71.0454 1.6817 70.7567 1.47232C70.4682 1.24541 70.1543 1.14084 69.8093 1.15263C69.4993 1.165 69.0819 1.30998 68.5631 1.57604C67.3308 2.22182 65.9125 3.50161 64.3081 5.42706C62.698 7.34657 61.0035 9.77316 59.2304 12.707C58.7013 13.5924 57.7914 15.2314 56.4951 17.612C56.2599 18.0465 56.0369 18.4519 55.8377 18.8285C55.5005 19.0742 54.9968 19.4866 54.3209 20.0598C53.1767 21.0286 52.253 21.7438 51.5497 22.2113C50.8465 22.6731 50.121 23.0643 49.3794 23.3734C48.6673 23.6654 48.0568 23.8248 47.5363 23.8453C47.0391 23.8662 46.6492 23.7662 46.3724 23.5395C46.0956 23.3128 45.9433 22.983 45.9271 22.5502C45.9098 22.1875 46.0015 21.5929 46.2082 20.7663C46.409 19.9397 46.6058 19.3526 46.7985 19.0168C47.0031 18.6637 47.5458 18.363 48.4266 18.1147C49.3017 17.8662 50.4031 17.7092 51.7309 17.6495C52.2983 17.6239 52.6788 17.5893 52.8782 17.5459C53.0718 17.5024 53.2371 17.4057 53.3681 17.2618C53.5646 17.043 53.6607 16.8868 53.6567 16.7815C53.652 16.7113 53.5434 16.5634 53.3251 16.3318C53.2163 16.2014 53.0656 16.1229 52.8732 16.0963C52.6807 16.0697 52.3359 16.0698 51.8387 16.0907L50.704 16.142L51.8444 15.0504C53.3116 13.6371 54.7766 12.0073 56.2333 10.173C57.69 8.33856 58.631 6.93979 59.0501 5.98821C59.2687 5.49504 59.3644 5.01738 59.343 4.54943C59.3214 4.08733 59.1755 3.72252 58.9053 3.455C58.6349 3.19332 58.2805 3.0705 57.8534 3.09261C57.6135 3.10615 57.3379 3.16583 57.032 3.28348C56.0845 3.67099 54.9958 4.4653 53.766 5.66054C52.5362 6.85578 51.3017 8.33149 50.051 10.0816C48.8061 11.8319 47.676 13.7068 46.6667 15.7006C46.3343 16.3556 46.0934 16.7782 45.9381 16.9802C45.7829 17.1763 45.5639 17.3422 45.2752 17.4777C45.0041 17.6134 44.8268 17.7274 44.7492 17.8254C44.6657 17.9234 44.6341 18.069 44.6427 18.2562C44.652 18.3966 44.6792 18.5198 44.7359 18.626C44.7359 18.626 44.7358 18.6318 44.7416 18.6319C44.4501 18.9368 44.1406 19.2707 43.8013 19.6391C43.1759 20.3417 42.6823 20.8537 42.3088 21.1689C41.9352 21.49 41.6227 21.6543 41.3595 21.6675C41.0318 21.6854 40.7675 21.4121 40.5724 20.8478C40.494 20.6419 40.4458 20.3722 40.4282 20.0271C40.4112 19.6469 40.4413 19.2441 40.5245 18.8071C40.6078 18.3701 40.7256 17.9688 40.8837 17.5973C41.0235 17.2782 41.0918 17.0339 41.083 16.8642C41.075 16.642 40.9089 16.4346 40.5848 16.2422C40.498 16.194 40.4164 16.1751 40.3463 16.1739C40.241 16.178 40.1174 16.2344 39.9635 16.3488L38.9349 17.0447L38.2553 17.4893L37.3272 17.0646C36.6776 16.7674 35.9842 16.6331 35.2647 16.6679C34.4224 16.7065 33.5765 16.9612 32.727 17.4322C31.8775 17.9032 31.0776 18.5561 30.3215 19.3852C29.6133 20.1449 29.1295 20.7681 28.8581 21.2663C28.5868 21.7644 28.4621 22.2357 28.4839 22.6803C28.4965 22.9728 28.5973 23.2375 28.7805 23.4685C28.9637 23.6995 29.1948 23.8612 29.4738 23.9535C29.5785 23.9844 29.6835 23.9979 29.7889 23.9879C30.3563 23.9623 31.0141 23.7687 31.7567 23.4012C32.6819 22.9432 34.3591 21.9132 36.7879 20.3171C37.2905 19.9689 37.7221 19.6722 38.0826 19.4386C38.443 19.205 38.6909 19.0629 38.8263 19.0009C38.8614 19.0015 38.8887 19.113 38.9201 19.3356C38.9456 19.5582 38.9705 19.8158 38.9832 20.1082C39.0432 21.4185 39.4605 22.3314 40.2234 22.8467C40.5417 23.0391 40.9378 23.1217 41.3999 23.1001C41.9672 23.0745 42.4843 22.9136 42.9569 22.6117C43.3172 22.3839 43.8518 21.8726 44.5604 21.0895C44.4522 21.6196 44.4092 22.0982 44.4256 22.5134C44.4694 23.3909 44.7734 24.0915 45.355 24.6156C45.4989 24.7465 45.678 24.8723 45.8923 24.9927C46.1065 25.1132 46.2807 25.1862 46.4205 25.2119C46.8051 25.2826 47.1554 25.306 47.4829 25.294C48.4481 25.2458 49.5346 24.9307 50.7369 24.337C51.8094 23.8113 52.9262 23.0876 54.087 22.1718C54.0138 22.3576 53.9759 22.5265 53.985 22.6844C53.9985 22.9243 54.1063 23.119 54.3202 23.2628C54.4472 23.3584 54.5749 23.4073 54.7154 23.398C54.8558 23.3886 55.0209 23.3037 55.2226 23.1259C55.4242 22.9539 55.7748 22.6032 56.2862 22.0799C57.1251 21.1937 58.0569 20.3442 59.0758 19.5312C60.1005 18.7183 61.0643 18.0505 61.9731 17.5338C62.8818 17.0171 63.5645 16.7362 64.0327 16.6972L64.6765 16.6436L64.8541 18.2656C64.9446 19.1439 65.0631 19.7479 65.1977 20.0891C65.3323 20.4304 65.5965 20.7095 65.9903 20.9323C66.2567 21.077 66.5889 21.1352 66.9808 21.1183C67.4079 21.0962 67.8068 21.0035 68.1836 20.8403C68.2023 21.1211 68.2976 21.3682 68.475 21.5932C68.6582 21.8242 68.8893 21.9859 69.1683 22.0782C69.273 22.1092 69.378 22.1227 69.4834 22.1127C70.0508 22.0871 70.7086 21.8935 71.4512 21.526C72.3765 21.0679 74.0536 20.0379 76.4824 18.4419C76.9851 18.0879 77.4166 17.797 77.7712 17.5632C78.1317 17.3296 78.3795 17.1876 78.515 17.1256C78.55 17.1261 78.5774 17.2377 78.6088 17.4603C78.6343 17.6828 78.6592 17.9404 78.6719 18.2329C78.7319 19.5431 79.1492 20.456 79.9121 20.9714C80.2304 21.1637 80.6265 21.2463 81.0886 21.2248C81.4629 21.2076 81.809 21.1316 82.1386 20.9968C82.0336 21.3341 81.9822 21.6138 81.9961 21.8302C82.0088 22.1227 82.1218 22.3526 82.3413 22.514C82.5893 22.711 82.728 22.8069 82.7455 22.8071C82.8976 22.798 83.1106 22.6437 83.3729 22.3383C83.6351 22.0329 84.0297 21.5076 84.5682 20.7568C85.2629 19.7572 86.2356 18.5576 87.492 17.1641C88.7485 15.7706 89.664 14.8507 90.25 14.4104C90.6819 14.0961 90.9359 13.9367 91.0061 13.932C91.0763 13.9273 91.1221 13.9866 91.1434 14.1096C91.1867 14.3149 91.0476 14.9497 90.7141 16.0196C90.3424 17.2817 90.1649 18.1088 90.1818 18.5006C90.195 18.758 90.2682 18.9287 90.413 19.0071C90.6098 19.1215 90.7376 19.1704 90.8077 19.1715C90.9305 19.1677 91.1378 19.0075 91.4351 18.7027C91.6968 18.4324 92.1759 18.0897 92.8607 17.6803C93.5514 17.2709 93.9817 17.056 94.1512 17.0529C94.239 17.0486 94.3018 17.1373 94.3456 17.3134C94.3893 17.4953 94.4244 17.8466 94.4505 18.3847C94.4761 18.9521 94.5165 19.3327 94.5717 19.5324C94.621 19.7261 94.7233 19.9031 94.8669 20.0516C95.0855 20.2657 95.4346 20.3592 95.9142 20.3379C96.3646 20.3162 96.7639 20.206 97.1123 19.9955C97.4489 19.7907 98.1706 19.2708 99.2776 18.4301C100.384 17.5952 100.971 17.114 101.032 16.9864C101.11 16.8474 101.147 16.7078 101.144 16.5675C101.11 16.4734 101.066 16.3499 100.986 16.2434ZM61.5009 11.8447C61.5974 11.6651 62.0292 11.006 62.808 9.86755C64.2934 7.71216 65.7019 5.97049 67.039 4.64845C67.5679 4.12538 68.1252 3.65539 68.7223 3.25035C69.3135 2.84522 69.6138 2.70993 69.6233 2.84452C69.6312 3.06675 69.3242 3.60523 68.6905 4.45386C68.0568 5.3025 67.2457 6.27092 66.2514 7.36487C65.2572 8.45298 64.276 9.46534 63.302 10.3901C62.5119 11.1543 61.9896 11.6308 61.7409 11.8253C61.4864 12.014 61.4044 12.0243 61.5009 11.8447ZM48.9645 14.5992C49.6086 13.476 50.275 12.4175 50.9518 11.441C51.9224 10.0135 52.9434 8.72123 54.0149 7.55842C55.0922 6.39571 56.0058 5.58682 56.7614 5.13767C57.3339 4.80236 57.6582 4.6324 57.746 4.62802C57.8688 4.62422 57.8599 4.8111 57.7189 5.20036C57.584 5.58387 57.3603 6.03022 57.0539 6.52777C56.4645 7.52327 55.3358 8.96568 53.6736 10.8551C52.0114 12.7445 50.5601 14.2517 49.3197 15.3825C49.0527 15.6176 48.8037 15.8297 48.5611 16.0127C48.3184 16.1957 48.1824 16.287 48.1473 16.2922C48.048 16.2847 48.3145 15.7222 48.9645 14.5992ZM34.7433 19.8973C33.4138 20.7635 32.404 21.3838 31.7139 21.7581C31.0887 22.0983 30.6466 22.3189 30.3879 22.414C30.1232 22.5148 29.9888 22.5125 29.9847 22.4073C29.9853 22.3722 30.0459 22.2446 30.1723 22.0246C30.2987 21.8046 30.4546 21.5676 30.6282 21.3192C31.1615 20.5331 31.804 19.86 32.5673 19.2999C33.3248 18.7397 34.0731 18.3781 34.8062 18.2267C35.0937 18.1613 35.4912 18.1621 35.9868 18.2347C36.4824 18.3072 36.7323 18.3932 36.7364 18.4985C36.741 18.5687 36.0728 19.0368 34.7433 19.8973ZM74.4377 18.0337C73.1081 18.9 72.0983 19.5202 71.4082 19.8945C70.783 20.2348 70.341 20.4554 70.0822 20.5504C69.8175 20.6512 69.6831 20.649 69.6791 20.5437C69.6796 20.5087 69.7402 20.3811 69.8666 20.1611C69.993 19.9411 70.1489 19.704 70.3226 19.4556C70.5143 19.1724 70.7234 18.9012 70.9498 18.6419C71.0807 18.5038 71.1996 18.3831 71.3009 18.2679C71.5981 17.9689 71.9184 17.6878 72.2616 17.4364C73.0191 16.8762 73.7674 16.5146 74.5006 16.3631C74.788 16.2978 75.1855 16.2986 75.6811 16.3711C76.1767 16.4437 76.4266 16.5297 76.4307 16.635C76.4296 16.6992 75.7672 17.1675 74.4377 18.0337Z" fill="#EAE7D8"/>
<path d="M107.607 33.6196C107.493 33.4365 107.348 33.3523 107.173 33.361C107.003 33.3699 106.785 33.4832 106.519 33.6891C106.258 33.8952 105.896 34.2282 105.444 34.6941C104.196 35.9533 103.314 36.5932 102.799 36.6314C102.676 36.641 102.589 36.6279 102.537 36.5978C102.45 36.5496 102.37 36.408 102.304 36.1731C102.238 35.9382 102.163 35.4986 102.086 34.866C101.978 34.0109 101.864 33.4362 101.753 33.1363C101.641 32.8422 101.411 32.5753 101.064 32.3416C100.793 32.15 100.443 32.0741 100.011 32.1019C99.3727 32.1439 98.5908 32.4173 97.6531 32.916C96.7212 33.4207 95.675 34.1222 94.5261 35.0265C94.2002 35.2899 93.9455 35.4902 93.7621 35.6216C93.5787 35.753 93.4904 35.7924 93.4854 35.7456C93.4859 35.7105 93.5169 35.6058 93.5959 35.426C93.9848 34.5382 94.353 33.8371 94.7004 33.3344C95.0478 32.8258 95.4344 32.4231 95.8662 32.1205C96.5404 31.6467 97.537 30.769 98.8557 29.4993C100.169 28.2294 101.459 26.9066 102.715 25.5306C103.971 24.1546 104.878 23.0767 105.428 22.2968C106.314 21.0491 106.728 20.0448 106.683 19.2843C106.654 18.8863 106.501 18.5857 106.207 18.3821C105.918 18.161 105.598 18.0621 105.253 18.0798C104.943 18.098 104.531 18.249 104.012 18.5267C102.797 19.1961 101.402 20.5055 99.8264 22.4548C98.2509 24.4041 96.6026 26.8607 94.8816 29.8246C94.3758 30.7105 93.513 32.3327 92.2873 34.6853C92.1982 34.7714 92.0971 34.875 91.9839 35.0017C91.6269 35.3815 91.234 35.8133 90.799 36.3087C90.1909 37.0233 89.703 37.5412 89.3352 37.8683C88.9674 38.1953 88.6548 38.3654 88.3973 38.3845C88.0696 38.4083 87.7993 38.1407 87.5923 37.582C87.508 37.3819 87.46 37.1064 87.4365 36.7612C87.4136 36.3809 87.4379 35.978 87.5095 35.5408C87.5869 35.1037 87.693 34.7022 87.8454 34.3248C87.9793 34.0056 88.0418 33.7612 88.033 33.5857C88.0192 33.3633 87.8473 33.1559 87.5289 32.9694C87.4421 32.9212 87.3606 32.9023 87.2904 32.907C87.1851 32.9111 87.0613 32.9733 86.9133 33.0877L85.896 33.8014L85.228 34.2578L84.2937 33.8507C83.638 33.565 82.9444 33.4483 82.2247 33.4947C81.3821 33.5508 80.5418 33.8232 79.6979 34.306C79.0487 34.6809 78.4269 35.1674 77.8384 35.7596C77.613 35.9604 77.3339 36.2246 77.0068 36.5582C75.7584 37.8174 74.8769 38.4573 74.3619 38.4955C74.239 38.5051 74.1515 38.492 74.0994 38.4619C74.0126 38.4137 73.9331 38.2721 73.8669 38.0372C73.8006 37.8023 73.7261 37.3627 73.649 36.7301C73.5405 35.875 73.4273 35.3003 73.3154 35.0004C73.2034 34.7063 72.9741 34.4394 72.6273 34.2057C72.3558 34.0141 72.0063 33.9382 71.5734 33.966C70.9356 34.008 70.1537 34.2814 69.216 34.7801C68.2841 35.2848 67.2379 35.9863 66.0889 36.8906C65.7631 37.154 65.5084 37.3543 65.325 37.4857C65.1416 37.6171 65.0533 37.6565 65.0482 37.6097C65.0488 37.5746 65.0798 37.4699 65.1588 37.2901C65.5477 36.4023 65.9159 35.7012 66.2632 35.1985C66.6107 34.6899 66.9973 34.2872 67.4291 33.9846C68.1033 33.5108 69.0998 32.6331 70.4185 31.3633C71.7314 30.0935 73.0218 28.7707 74.278 27.3947C75.5342 26.0187 76.4406 24.9408 76.9913 24.1609C77.8771 22.9132 78.2913 21.9089 78.2456 21.1483C78.2171 20.7504 78.0643 20.4498 77.7696 20.2462C77.481 20.0251 77.1612 19.9262 76.8161 19.9439C76.506 19.9621 76.0943 20.113 75.5754 20.3908C74.3602 21.0602 72.9648 22.3696 71.3893 24.3189C69.8138 26.2682 68.1654 28.7307 66.4445 31.6887C65.9327 32.5862 65.0518 34.2373 63.8019 36.642C63.6689 36.9028 63.5362 37.152 63.4153 37.3896C63.3863 37.3774 63.3572 37.3711 63.3223 37.3588C63.2003 37.3159 63.0662 37.2961 62.9316 37.3056C62.6917 37.3191 62.151 37.503 61.3094 37.8513L59.7438 38.4974L59.1151 37.9959C58.2785 37.3449 56.6582 36.7159 54.2485 36.1146C53.7244 35.9948 53.2415 35.8641 52.8114 35.7166C52.3812 35.575 52.1374 35.4774 52.0797 35.4297C51.9703 35.3344 51.908 35.2165 51.8986 35.076C51.8751 34.7308 52.2178 34.1578 52.9268 33.3514C53.7311 32.4354 54.7627 31.5584 56.0333 30.7262C57.2979 29.8939 58.4648 29.3172 59.5337 29.0077C59.8746 28.8964 60.3141 28.8278 60.8642 28.7902C61.2094 28.7667 61.5133 28.7718 61.7874 28.8056C62.0557 28.8393 62.2183 28.9004 62.2754 28.9832C62.3328 29.0485 62.3662 29.1484 62.3755 29.2888C62.3993 29.6165 62.2871 30.0355 62.0447 30.5516C61.8927 30.9056 61.8291 31.2144 61.8482 31.4719C61.8763 31.8873 62.1128 32.0783 62.5575 32.0448C62.7623 32.0307 62.9696 31.8705 63.1734 31.5641C63.3772 31.2577 63.5413 30.8805 63.6715 30.4326C63.7959 29.9846 63.8497 29.5647 63.8212 29.1668C63.803 28.8567 63.7542 28.628 63.6866 28.4749C63.6132 28.3217 63.4761 28.1323 63.2753 27.9069C62.7406 27.3719 61.973 27.137 60.9725 27.2022C60.5102 27.2354 59.8768 27.3593 59.0782 27.5856C57.8444 27.9625 56.5659 28.5783 55.2482 29.4331C53.9306 30.2879 52.8164 31.2103 51.9055 32.2063C50.9948 33.1964 50.4952 34.059 50.407 34.794C50.3854 35.0391 50.3827 35.2027 50.3871 35.2905C50.4249 35.823 50.6749 36.2538 51.1486 36.589C51.6166 36.9183 52.4005 37.2236 53.4889 37.4989C54.6646 37.799 55.5489 38.0476 56.142 38.2328C56.7351 38.418 57.2169 38.6131 57.5935 38.8123L58.2078 39.1323L56.3076 40.217C55.2572 40.819 54.3353 41.4291 53.5362 42.0295C52.7371 42.6357 52.1966 43.1469 51.915 43.563C51.6811 43.9215 51.5758 44.2763 51.5934 44.6214C51.6163 45.0017 51.7751 45.2908 52.0639 45.5002C52.3354 45.6917 52.6965 45.7679 53.1412 45.7402C53.5391 45.7118 54.1316 45.5814 54.9306 45.3375C55.8942 45.0321 56.7959 44.5912 57.6295 44.0207C58.4631 43.4501 59.1164 42.8297 59.595 42.1713C60.0678 41.5071 60.2882 40.9029 60.2506 40.3528C60.2412 40.2182 60.2664 40.1076 60.3322 40.021C60.3978 39.9403 60.5633 39.832 60.8402 39.7022C61.117 39.5723 61.4879 39.4149 61.9645 39.2241C62.2056 39.1346 62.4175 39.0446 62.6116 38.9719C62.0497 40.073 61.6807 40.8209 61.4986 41.227C61.4073 41.4417 61.3691 41.634 61.3838 41.8037C61.3973 42.0436 61.5169 42.2326 61.7308 42.3764C61.8577 42.4721 61.9915 42.5152 62.126 42.5058C62.2665 42.4964 62.4317 42.4056 62.6275 42.2277C62.8234 42.0498 63.1683 41.6932 63.6739 41.1639C64.4955 40.2658 65.41 39.3984 66.4176 38.5618C67.4252 37.7253 68.3775 37.0456 69.2748 36.5111C70.1722 35.9767 70.8551 35.6841 71.3176 35.6392L71.9617 35.5681L72.1744 37.1849C72.2826 38.0575 72.4069 38.6617 72.5533 38.9972C72.6938 39.3327 72.9639 39.612 73.3578 39.8231C73.6244 39.962 73.9567 40.0142 74.3545 39.9916C74.7816 39.9637 75.1807 39.8651 75.5577 39.6902C75.5824 39.9654 75.6833 40.2184 75.8609 40.4376C76.0499 40.6687 76.2811 40.8245 76.5661 40.9111C76.6709 40.9362 76.7758 40.9497 76.8812 40.9397C77.4488 40.9024 78.101 40.697 78.8379 40.3177C79.7577 39.8421 81.4119 38.7825 83.8123 37.1392C84.3092 36.7792 84.7292 36.4764 85.0898 36.2369C85.4445 35.9974 85.6924 35.8495 85.8221 35.7874C85.8571 35.788 85.8904 35.8938 85.9218 36.1164C85.9531 36.339 85.978 36.5966 85.9965 36.8892C86.08 38.194 86.515 39.1013 87.2898 39.6052C87.614 39.7918 88.0043 39.8684 88.4723 39.8411C89.0049 39.8033 89.4926 39.6477 89.9355 39.3745C89.8503 39.5777 89.8121 39.7641 89.8268 39.9339C89.8404 40.1737 89.9599 40.3628 90.1738 40.5066C90.3008 40.6022 90.4345 40.6454 90.5691 40.6359C90.7095 40.6266 90.8747 40.5358 91.0706 40.3579C91.2664 40.1799 91.6114 39.8233 92.117 39.294C92.9385 38.3959 93.8531 37.5286 94.8607 36.692C95.8682 35.8554 96.8206 35.1758 97.7179 34.6413C98.6152 34.1069 99.2981 33.8143 99.7606 33.7694L100.405 33.6983L100.617 35.315C100.726 36.1877 100.85 36.7918 100.996 37.1274C101.137 37.4629 101.407 37.7421 101.801 37.9533C102.067 38.0921 102.4 38.1444 102.798 38.1218C103.4 38.0851 103.947 37.9013 104.443 37.5706C104.957 37.2635 105.615 36.69 106.418 35.8617C107.221 35.0334 107.645 34.4969 107.696 34.2465C107.708 34.1941 107.715 34.1182 107.706 34.0128C107.697 33.814 107.664 33.6848 107.607 33.6196ZM97.1649 28.8924C97.2556 28.7128 97.6816 28.0477 98.4315 26.8912C99.8765 24.7059 101.256 22.9404 102.564 21.5945C103.082 21.0595 103.633 20.5836 104.219 20.1667C104.805 19.7498 105.099 19.6086 105.109 19.7432C105.122 19.9655 104.821 20.5099 104.205 21.3705C103.588 22.2311 102.795 23.2174 101.823 24.3234C100.852 25.4353 99.8883 26.4596 98.9315 27.4022C98.1529 28.1783 97.6421 28.6666 97.3934 28.8612C97.1504 29.0617 97.0742 29.0721 97.1649 28.8924ZM68.7394 30.7626C68.83 30.5829 69.2561 29.9178 70.006 28.7614C71.451 26.5761 72.8306 24.8105 74.1389 23.4646C74.6563 22.9297 75.2078 22.4538 75.7934 22.0368C76.379 21.6199 76.6736 21.4787 76.6831 21.6133C76.6969 21.8356 76.3956 22.38 75.7792 23.2406C75.1628 24.1013 74.369 25.0875 73.3979 26.1935C72.4267 27.3054 71.4627 28.3297 70.506 29.2723C69.7274 30.0484 69.2166 30.5367 68.9679 30.7313C68.7249 30.9318 68.6488 30.9364 68.7394 30.7626ZM58.262 41.4887C57.9869 41.864 57.6366 42.1913 57.2285 42.4768C56.9802 42.648 56.6554 42.8471 56.26 43.0743C55.8588 43.3014 55.4992 43.4825 55.1813 43.6233C53.9219 44.14 53.3586 44.2709 53.4973 44.0161C53.5879 43.8364 54.0382 43.4698 54.8365 42.9162C55.6348 42.3625 56.4382 41.8557 57.2349 41.3956C58.0316 40.9354 58.4674 40.7381 58.5423 40.8036C58.6344 40.887 58.543 41.1134 58.262 41.4887ZM81.7855 36.7021C80.4732 37.592 79.4747 38.23 78.7902 38.6219C78.1765 38.974 77.7343 39.2005 77.4754 39.3014C77.2165 39.4081 77.0821 39.4059 77.0722 39.3005C77.0728 39.2654 77.1275 39.1377 77.254 38.9119C77.3747 38.686 77.5247 38.4488 77.6985 38.1946C77.8845 37.9054 78.0936 37.6342 78.3084 37.3689C78.4393 37.2308 78.5525 37.1041 78.6537 36.9889C78.9452 36.684 79.2598 36.397 79.5972 36.1396C80.3433 35.5617 81.0859 35.1941 81.8194 35.0193C82.107 34.9481 82.4987 34.943 83.0003 35.0039C83.4961 35.0648 83.746 35.1508 83.756 35.2503C83.7546 35.338 83.0979 35.8122 81.7855 36.7021Z" fill="#EAE7D8"/>
</svg>
