<svg width="121" height="20" viewBox="0 0 121 20" fill="none" xmlns="http://www.w3.org/2000/svg">
<path d="M1.449 19.125C0.623 18.621 0.21 17.599 0.21 16.059C0.21 15.681 0.231 15.282 0.273 14.862C0.413 13.7 0.707 12.475 1.155 11.187C1.603 9.885 2.156 8.681 2.814 7.575C3.234 6.861 3.591 6.336 3.885 6C4.179 5.664 4.431 5.496 4.641 5.496C4.767 5.496 4.886 5.552 4.998 5.664C5.096 5.762 5.145 5.867 5.145 5.979C5.145 6.203 4.956 6.567 4.578 7.071C4.2 7.575 3.752 8.338 3.234 9.36C2.73 10.382 2.366 11.257 2.142 11.985C1.666 13.469 1.428 14.792 1.428 15.954C1.428 17.032 1.638 17.725 2.058 18.033C2.226 18.159 2.345 18.222 2.415 18.222C2.471 18.222 2.632 18.166 2.898 18.054C3.388 17.83 4.067 17.179 4.935 16.101C5.803 15.023 6.755 13.665 7.791 12.027C8.841 10.389 9.856 8.646 10.836 6.798C11.256 6.028 11.557 5.51 11.739 5.244C11.935 4.964 12.117 4.824 12.285 4.824C12.341 4.824 12.411 4.845 12.495 4.887C12.705 4.999 12.81 5.139 12.81 5.307C12.81 5.517 12.698 5.853 12.474 6.315C12.25 6.763 11.767 7.659 11.025 9.003C9.583 11.621 8.169 13.861 6.783 15.723C5.411 17.585 4.34 18.712 3.57 19.104C3.234 19.272 2.856 19.356 2.436 19.356C2.044 19.356 1.715 19.279 1.449 19.125ZM8.85084 16.899C8.69684 16.815 8.61984 16.689 8.61984 16.521C8.61984 16.339 8.71784 16.08 8.91384 15.744C9.10984 15.394 9.43884 14.897 9.90084 14.253C10.7548 13.063 11.3708 12.251 11.7488 11.817C12.1408 11.383 12.4418 11.166 12.6518 11.166C12.7638 11.166 12.8758 11.222 12.9878 11.334C13.0718 11.418 13.1138 11.516 13.1138 11.628C13.1138 11.838 12.9248 12.195 12.5468 12.699C12.1548 13.217 11.9798 13.483 12.0218 13.497C12.0778 13.525 12.2388 13.441 12.5048 13.245C12.8968 12.951 13.4498 12.629 14.1638 12.279C14.8918 11.929 15.5078 11.67 16.0118 11.502C16.6418 11.292 17.2508 11.187 17.8388 11.187C18.2728 11.187 18.6158 11.25 18.8678 11.376C19.1338 11.502 19.3158 11.677 19.4138 11.901C19.5258 12.125 19.5818 12.454 19.5818 12.888C19.5818 13.126 19.5748 13.315 19.5608 13.455L19.5188 14.232C19.5188 14.358 19.5258 14.442 19.5398 14.484C19.5678 14.526 19.6098 14.547 19.6658 14.547C19.8338 14.547 20.1278 14.435 20.5478 14.211C20.9678 13.973 21.4648 13.644 22.0388 13.224C22.7668 12.692 23.1728 12.426 23.2568 12.426C23.3968 12.426 23.5298 12.489 23.6558 12.615C23.7818 12.727 23.8448 12.846 23.8448 12.972C23.8448 13.14 23.7188 13.357 23.4668 13.623C23.2148 13.875 22.8018 14.197 22.2278 14.589C21.0518 15.401 20.1278 15.807 19.4558 15.807C19.1058 15.807 18.8258 15.695 18.6158 15.471C18.5038 15.345 18.4268 15.226 18.3848 15.114C18.3568 15.002 18.3428 14.785 18.3428 14.463V13.791V13.098C18.3428 12.79 18.3288 12.601 18.3008 12.531C18.2728 12.447 18.1958 12.391 18.0698 12.363C17.9578 12.335 17.8668 12.321 17.7968 12.321C17.3488 12.321 16.6978 12.51 15.8438 12.888C14.9898 13.252 14.0728 13.742 13.0928 14.358C12.1128 14.974 11.2238 15.618 10.4258 16.29C10.1038 16.556 9.85884 16.738 9.69084 16.836C9.50884 16.948 9.35484 17.004 9.22884 17.004C9.11684 17.004 8.99084 16.969 8.85084 16.899ZM20.8783 16.899C20.7243 16.815 20.6473 16.689 20.6473 16.521C20.6473 16.339 20.7453 16.08 20.9413 15.744C21.1373 15.394 21.4663 14.897 21.9283 14.253C22.7823 13.063 23.3983 12.251 23.7763 11.817C24.1683 11.383 24.4693 11.166 24.6793 11.166C24.7913 11.166 24.9033 11.222 25.0153 11.334C25.0993 11.418 25.1413 11.516 25.1413 11.628C25.1413 11.838 24.9523 12.195 24.5743 12.699C24.1823 13.217 24.0073 13.483 24.0493 13.497C24.1053 13.525 24.2663 13.441 24.5323 13.245C24.9243 12.951 25.4773 12.629 26.1913 12.279C26.9193 11.929 27.5353 11.67 28.0393 11.502C28.6693 11.292 29.2783 11.187 29.8663 11.187C30.3003 11.187 30.6433 11.25 30.8953 11.376C31.1613 11.502 31.3433 11.677 31.4413 11.901C31.5533 12.125 31.6093 12.454 31.6093 12.888C31.6093 13.126 31.6023 13.315 31.5883 13.455L31.5463 14.232C31.5463 14.358 31.5533 14.442 31.5673 14.484C31.5953 14.526 31.6373 14.547 31.6933 14.547C31.8613 14.547 32.1553 14.435 32.5753 14.211C32.9953 13.973 33.4923 13.644 34.0663 13.224C34.7943 12.692 35.2003 12.426 35.2843 12.426C35.4243 12.426 35.5573 12.489 35.6833 12.615C35.8093 12.727 35.8723 12.846 35.8723 12.972C35.8723 13.14 35.7463 13.357 35.4943 13.623C35.2423 13.875 34.8293 14.197 34.2553 14.589C33.0793 15.401 32.1553 15.807 31.4833 15.807C31.1333 15.807 30.8533 15.695 30.6433 15.471C30.5313 15.345 30.4543 15.226 30.4123 15.114C30.3843 15.002 30.3703 14.785 30.3703 14.463V13.791V13.098C30.3703 12.79 30.3563 12.601 30.3283 12.531C30.3003 12.447 30.2233 12.391 30.0973 12.363C29.9853 12.335 29.8943 12.321 29.8243 12.321C29.3763 12.321 28.7253 12.51 27.8713 12.888C27.0173 13.252 26.1003 13.742 25.1203 14.358C24.1403 14.974 23.2513 15.618 22.4533 16.29C22.1313 16.556 21.8863 16.738 21.7183 16.836C21.5363 16.948 21.3823 17.004 21.2563 17.004C21.1443 17.004 21.0183 16.969 20.8783 16.899ZM34.0607 16.689C33.8367 16.605 33.6547 16.465 33.5147 16.269C33.3747 16.073 33.3047 15.856 33.3047 15.618C33.3047 15.254 33.4237 14.876 33.6617 14.484C33.8997 14.092 34.3197 13.602 34.9217 13.014C35.5657 12.37 36.2377 11.873 36.9377 11.523C37.6517 11.173 38.3517 10.998 39.0377 10.998C39.6257 10.998 40.1787 11.131 40.6967 11.397L41.4317 11.775L41.9987 11.439L42.8597 10.914C42.9857 10.83 43.0907 10.788 43.1747 10.788C43.2307 10.788 43.2937 10.809 43.3637 10.851C43.6157 11.019 43.7417 11.194 43.7417 11.376C43.7417 11.516 43.6787 11.712 43.5527 11.964C43.4127 12.258 43.3007 12.58 43.2167 12.93C43.1327 13.28 43.0907 13.609 43.0907 13.917C43.0907 14.197 43.1187 14.421 43.1747 14.589C43.3147 15.051 43.5177 15.282 43.7837 15.282C43.9937 15.282 44.2527 15.163 44.5607 14.925C44.8827 14.673 45.3097 14.274 45.8417 13.728C46.2197 13.35 46.5627 13.021 46.8707 12.741C47.1787 12.447 47.3677 12.286 47.4377 12.258C47.6057 12.188 47.7667 12.237 47.9207 12.405C48.0887 12.559 48.1517 12.734 48.1097 12.93C48.0537 13.154 47.6197 13.693 46.8077 14.547C45.9957 15.387 45.4077 15.912 45.0437 16.122C44.6517 16.346 44.2247 16.458 43.7627 16.458C43.3847 16.458 43.0697 16.374 42.8177 16.206C42.2157 15.758 41.9147 15.002 41.9147 13.938C41.9147 13.7 41.9077 13.49 41.8937 13.308C41.8797 13.126 41.8587 13.035 41.8307 13.035C41.7187 13.077 41.5087 13.189 41.2007 13.371C40.9067 13.539 40.5497 13.756 40.1297 14.022C38.0997 15.226 36.6997 15.996 35.9297 16.332C35.3137 16.598 34.7747 16.731 34.3127 16.731C34.2287 16.731 34.1447 16.717 34.0607 16.689ZM34.5437 15.429C34.5437 15.513 34.6487 15.52 34.8587 15.45C35.0827 15.38 35.4537 15.219 35.9717 14.967C36.5457 14.687 37.3857 14.225 38.4917 13.581C39.6117 12.923 40.1717 12.566 40.1717 12.51C40.1717 12.426 39.9687 12.349 39.5627 12.279C39.1707 12.195 38.8557 12.174 38.6177 12.216C38.0157 12.314 37.3927 12.58 36.7487 13.014C36.1187 13.434 35.5727 13.952 35.1107 14.568C34.9567 14.764 34.8237 14.953 34.7117 15.135C34.5997 15.303 34.5437 15.401 34.5437 15.429ZM48.1656 18.369C48.0536 18.341 47.9136 18.271 47.7456 18.159C47.5776 18.061 47.4376 17.956 47.3256 17.844C46.8776 17.396 46.6536 16.815 46.6536 16.101C46.6536 15.555 46.7936 14.897 47.0736 14.127C47.2276 13.707 47.3046 13.434 47.3046 13.308C47.3046 13.224 47.2696 13.161 47.1996 13.119C47.1436 13.091 47.0946 13.035 47.0526 12.951C47.0106 12.853 46.9896 12.748 46.9896 12.636C46.9896 12.482 47.0246 12.37 47.0946 12.3C47.1646 12.216 47.3116 12.125 47.5356 12.027C47.7736 11.929 47.9556 11.803 48.0816 11.649C48.2216 11.495 48.4386 11.159 48.7326 10.641C49.6286 9.059 50.6156 7.582 51.6936 6.21C52.7716 4.838 53.8286 3.69 54.8646 2.766C55.9146 1.842 56.8316 1.24 57.6156 0.96C57.8676 0.875999 58.0916 0.833999 58.2876 0.833999C58.6376 0.833999 58.9176 0.945999 59.1276 1.17C59.3376 1.394 59.4426 1.695 59.4426 2.073C59.4426 2.451 59.3446 2.836 59.1486 3.228C58.7706 3.984 57.9516 5.083 56.6916 6.525C55.4456 7.953 54.1996 9.213 52.9536 10.305L51.9876 11.145H52.9116C53.3176 11.145 53.5976 11.159 53.7516 11.187C53.9056 11.215 54.0246 11.285 54.1086 11.397C54.2766 11.593 54.3606 11.719 54.3606 11.775C54.3606 11.859 54.2766 11.985 54.1086 12.153C53.9966 12.265 53.8566 12.335 53.6886 12.363C53.5346 12.391 53.2266 12.405 52.7646 12.405C51.6866 12.405 50.7836 12.489 50.0556 12.657C49.3416 12.825 48.8936 13.049 48.7116 13.329C48.5436 13.595 48.3616 14.064 48.1656 14.736C47.9696 15.394 47.8716 15.87 47.8716 16.164C47.8716 16.514 47.9766 16.787 48.1866 16.983C48.4106 17.179 48.7256 17.277 49.1316 17.277C49.5516 17.277 50.0556 17.172 50.6436 16.962C51.2596 16.738 51.8616 16.451 52.4496 16.101C53.0376 15.751 53.8146 15.205 54.7806 14.463C55.4526 13.945 55.9216 13.602 56.1876 13.434C56.4676 13.266 56.6916 13.182 56.8596 13.182C57.0416 13.182 57.1536 13.21 57.1956 13.266C57.2516 13.308 57.2936 13.42 57.3216 13.602C57.3496 13.756 57.3216 13.889 57.2376 14.001C57.1676 14.113 56.9296 14.337 56.5236 14.673C56.1176 14.995 55.5646 15.415 54.8646 15.933C53.7586 16.759 52.7016 17.389 51.6936 17.823C50.6996 18.257 49.8106 18.474 49.0266 18.474C48.7606 18.474 48.4736 18.439 48.1656 18.369ZM49.9296 11.145C49.9576 11.145 50.0696 11.075 50.2656 10.935C50.4756 10.795 50.6926 10.634 50.9166 10.452C51.9666 9.584 53.1986 8.415 54.6126 6.945C56.0406 5.475 57.0136 4.348 57.5316 3.564C57.7976 3.172 57.9936 2.822 58.1196 2.514C58.2456 2.206 58.2596 2.052 58.1616 2.052C58.0916 2.052 57.8186 2.178 57.3426 2.43C56.7126 2.766 55.9356 3.389 55.0116 4.299C54.1016 5.195 53.2266 6.203 52.3866 7.323C51.7986 8.093 51.2176 8.926 50.6436 9.822C50.0836 10.704 49.8456 11.145 49.9296 11.145ZM60.3151 9.318C60.1611 9.43 60.0281 9.486 59.9161 9.486C59.8041 9.486 59.6851 9.416 59.5591 9.276C59.4331 9.122 59.3701 8.989 59.3701 8.877C59.3701 8.737 59.4331 8.583 59.5591 8.415C59.6151 8.317 59.6921 8.247 59.7901 8.205C59.9021 8.149 60.0071 8.121 60.1051 8.121C60.2171 8.121 60.3151 8.149 60.3991 8.205C60.4971 8.247 60.5601 8.317 60.5881 8.415C60.6301 8.513 60.6511 8.618 60.6511 8.73C60.6511 8.982 60.5391 9.178 60.3151 9.318ZM57.0811 15.786C56.8851 15.66 56.7171 15.471 56.5771 15.219C56.4371 14.953 56.3671 14.708 56.3671 14.484C56.3671 14.232 56.4791 13.819 56.7031 13.245C56.9271 12.657 57.1791 12.111 57.4591 11.607C57.7811 11.061 58.0541 10.662 58.2781 10.41C58.5021 10.144 58.7051 10.011 58.8871 10.011C59.0411 10.011 59.1811 10.109 59.3071 10.305C59.3771 10.417 59.4121 10.508 59.4121 10.578C59.4121 10.662 59.3561 10.802 59.2441 10.998C59.1461 11.194 58.9991 11.446 58.8031 11.754C58.4811 12.286 58.2011 12.818 57.9631 13.35C57.7251 13.882 57.6061 14.239 57.6061 14.421C57.6061 14.687 57.8021 14.82 58.1941 14.82C58.7261 14.82 59.5381 14.589 60.6301 14.127C61.7361 13.651 62.9751 13 64.3471 12.174C64.7671 11.922 65.0891 11.747 65.3131 11.649C65.5371 11.537 65.7121 11.481 65.8381 11.481C65.9921 11.481 66.1251 11.579 66.2371 11.775C66.2651 11.817 66.2791 11.887 66.2791 11.985C66.2791 12.139 66.1741 12.314 65.9641 12.51C65.7541 12.706 65.4111 12.951 64.9351 13.245C64.3611 13.609 63.5211 14.071 62.4151 14.631C61.3091 15.177 60.5181 15.534 60.0421 15.702C59.4681 15.884 58.8521 15.975 58.1941 15.975C57.6341 15.975 57.2631 15.912 57.0811 15.786ZM69.8216 19.461C69.7376 19.461 69.6536 19.447 69.5696 19.419C69.4716 19.391 69.4086 19.363 69.3806 19.335C69.3386 19.293 69.3036 19.237 69.2756 19.167C69.2476 19.097 69.2336 19.034 69.2336 18.978C69.2336 18.908 69.3246 18.649 69.5066 18.201C69.6886 17.753 69.9056 17.263 70.1576 16.731C70.4096 16.199 70.6266 15.723 70.8086 15.303C70.9906 14.883 71.0746 14.666 71.0606 14.652C71.0466 14.638 70.8716 14.603 70.5356 14.547C70.2276 14.491 70.0176 14.421 69.9056 14.337C69.7936 14.253 69.7376 14.12 69.7376 13.938C69.7376 13.742 69.8076 13.602 69.9476 13.518C70.0736 13.42 70.3046 13.371 70.6406 13.371C71.0046 13.371 71.2776 13.329 71.4596 13.245C71.6556 13.147 71.8446 12.965 72.0266 12.699C72.2226 12.419 72.5166 11.908 72.9086 11.166C72.9926 11.026 73.1186 10.788 73.2866 10.452C73.9586 9.178 74.4346 8.331 74.7146 7.911C74.9526 7.547 75.1416 7.225 75.2816 6.945C75.4216 6.665 75.4706 6.525 75.4286 6.525C75.2886 6.525 75.0016 6.637 74.5676 6.861C74.1476 7.085 73.8466 7.281 73.6646 7.449C73.4686 7.631 73.2516 7.722 73.0136 7.722C72.7896 7.722 72.6496 7.631 72.5936 7.449C72.5656 7.365 72.5516 7.295 72.5516 7.239C72.5516 6.833 72.8876 6.42 73.5596 6C74.2456 5.566 75.1136 5.244 76.1636 5.034C76.6956 4.922 77.7526 4.859 79.3346 4.845H80.1116C80.7836 4.845 81.2666 4.866 81.5606 4.908C81.8546 4.936 82.1836 5.006 82.5476 5.118C83.0376 5.272 83.4716 5.496 83.8496 5.79C84.2276 6.084 84.4516 6.378 84.5216 6.672C84.5496 6.756 84.5636 6.882 84.5636 7.05C84.5636 7.61 84.2486 8.184 83.6186 8.772C83.0026 9.346 82.0436 9.962 80.7416 10.62C80.0976 10.942 77.9136 11.873 74.1896 13.413L73.6856 13.623C73.3776 13.749 73.2236 13.833 73.2236 13.875C73.3496 13.931 73.6156 14.036 74.0216 14.19C74.4416 14.344 74.9526 14.526 75.5546 14.736C77.1086 15.268 78.2636 15.681 79.0196 15.975C79.7896 16.269 80.3216 16.507 80.6156 16.689C80.9236 16.885 81.0776 17.067 81.0776 17.235C81.0776 17.389 81.0216 17.508 80.9096 17.592C80.8116 17.69 80.6786 17.739 80.5106 17.739C80.3426 17.739 79.7756 17.557 78.8096 17.193C77.4516 16.675 76.0446 16.185 74.5886 15.723C73.1466 15.247 72.3976 15.037 72.3416 15.093C72.2856 15.149 71.9216 15.891 71.2496 17.319C70.9836 17.879 70.7666 18.327 70.5986 18.663C70.4166 19.013 70.2906 19.23 70.2206 19.314C70.1366 19.398 70.0316 19.447 69.9056 19.461H69.8216ZM73.7906 12.258C73.8466 12.258 74.5466 11.978 75.8906 11.418C80.8326 9.374 83.3036 7.939 83.3036 7.113C83.3036 7.029 83.2826 6.959 83.2406 6.903C83.1566 6.763 82.9536 6.623 82.6316 6.483C82.3096 6.329 81.9386 6.21 81.5186 6.126C81.2806 6.07 80.9026 6.028 80.3846 6C79.8806 5.972 79.3766 5.958 78.8726 5.958C78.1866 5.958 77.7596 5.986 77.5916 6.042C77.4936 6.07 77.3746 6.154 77.2346 6.294C77.1086 6.434 76.9826 6.602 76.8566 6.798C76.2686 7.722 75.5896 8.863 74.8196 10.221C74.0496 11.579 73.7066 12.258 73.7906 12.258ZM81.9751 16.689C81.7511 16.605 81.5691 16.465 81.4291 16.269C81.2891 16.073 81.2191 15.856 81.2191 15.618C81.2191 15.254 81.3381 14.876 81.5761 14.484C81.8141 14.092 82.2341 13.602 82.8361 13.014C83.4801 12.37 84.1521 11.873 84.8521 11.523C85.5661 11.173 86.2661 10.998 86.9521 10.998C87.5401 10.998 88.0931 11.131 88.6111 11.397L89.3461 11.775L89.9131 11.439L90.7741 10.914C90.9001 10.83 91.0051 10.788 91.0891 10.788C91.1451 10.788 91.2081 10.809 91.2781 10.851C91.5301 11.019 91.6561 11.194 91.6561 11.376C91.6561 11.516 91.5931 11.712 91.4671 11.964C91.3271 12.258 91.2151 12.58 91.1311 12.93C91.0471 13.28 91.0051 13.609 91.0051 13.917C91.0051 14.197 91.0331 14.421 91.0891 14.589C91.2291 15.051 91.4321 15.282 91.6981 15.282C91.9081 15.282 92.1671 15.163 92.4751 14.925C92.7971 14.673 93.2241 14.274 93.7561 13.728C94.1341 13.35 94.4771 13.021 94.7851 12.741C95.0931 12.447 95.2821 12.286 95.3521 12.258C95.5201 12.188 95.6811 12.237 95.8351 12.405C96.0031 12.559 96.0661 12.734 96.0241 12.93C95.9681 13.154 95.5341 13.693 94.7221 14.547C93.9101 15.387 93.3221 15.912 92.9581 16.122C92.5661 16.346 92.1391 16.458 91.6771 16.458C91.2991 16.458 90.9841 16.374 90.7321 16.206C90.1301 15.758 89.8291 15.002 89.8291 13.938C89.8291 13.7 89.8221 13.49 89.8081 13.308C89.7941 13.126 89.7731 13.035 89.7451 13.035C89.6331 13.077 89.4231 13.189 89.1151 13.371C88.8211 13.539 88.4641 13.756 88.0441 14.022C86.0141 15.226 84.6141 15.996 83.8441 16.332C83.2281 16.598 82.6891 16.731 82.2271 16.731C82.1431 16.731 82.0591 16.717 81.9751 16.689ZM82.4581 15.429C82.4581 15.513 82.5631 15.52 82.7731 15.45C82.9971 15.38 83.3681 15.219 83.8861 14.967C84.4601 14.687 85.3001 14.225 86.4061 13.581C87.5261 12.923 88.0861 12.566 88.0861 12.51C88.0861 12.426 87.8831 12.349 87.4771 12.279C87.0851 12.195 86.7701 12.174 86.5321 12.216C85.9301 12.314 85.3071 12.58 84.6631 13.014C84.0331 13.434 83.4871 13.952 83.0251 14.568C82.8711 14.764 82.7381 14.953 82.6261 15.135C82.5141 15.303 82.4581 15.401 82.4581 15.429ZM92.9091 16.899C92.7551 16.815 92.6781 16.689 92.6781 16.521C92.6781 16.339 92.7761 16.08 92.9721 15.744C93.1681 15.394 93.4971 14.897 93.9591 14.253C94.8131 13.063 95.4291 12.251 95.8071 11.817C96.1991 11.383 96.5001 11.166 96.7101 11.166C96.8221 11.166 96.9341 11.222 97.0461 11.334C97.1301 11.418 97.1721 11.516 97.1721 11.628C97.1721 11.838 96.9831 12.195 96.6051 12.699C96.2131 13.217 96.0381 13.483 96.0801 13.497C96.1361 13.525 96.2971 13.441 96.5631 13.245C96.9551 12.951 97.5081 12.629 98.2221 12.279C98.9501 11.929 99.5661 11.67 100.07 11.502C100.7 11.292 101.309 11.187 101.897 11.187C102.331 11.187 102.674 11.25 102.926 11.376C103.192 11.502 103.374 11.677 103.472 11.901C103.584 12.125 103.64 12.454 103.64 12.888C103.64 13.126 103.633 13.315 103.619 13.455L103.577 14.232C103.577 14.358 103.584 14.442 103.598 14.484C103.626 14.526 103.668 14.547 103.724 14.547C103.892 14.547 104.186 14.435 104.606 14.211C105.026 13.973 105.523 13.644 106.097 13.224C106.825 12.692 107.231 12.426 107.315 12.426C107.455 12.426 107.588 12.489 107.714 12.615C107.84 12.727 107.903 12.846 107.903 12.972C107.903 13.14 107.777 13.357 107.525 13.623C107.273 13.875 106.86 14.197 106.286 14.589C105.11 15.401 104.186 15.807 103.514 15.807C103.164 15.807 102.884 15.695 102.674 15.471C102.562 15.345 102.485 15.226 102.443 15.114C102.415 15.002 102.401 14.785 102.401 14.463V13.791V13.098C102.401 12.79 102.387 12.601 102.359 12.531C102.331 12.447 102.254 12.391 102.128 12.363C102.016 12.335 101.925 12.321 101.855 12.321C101.407 12.321 100.756 12.51 99.9021 12.888C99.0481 13.252 98.1311 13.742 97.1511 14.358C96.1711 14.974 95.2821 15.618 94.4841 16.29C94.1621 16.556 93.9171 16.738 93.7491 16.836C93.5671 16.948 93.4131 17.004 93.2871 17.004C93.1751 17.004 93.0491 16.969 92.9091 16.899ZM106.092 16.689C105.868 16.605 105.686 16.465 105.546 16.269C105.406 16.073 105.336 15.856 105.336 15.618C105.336 15.254 105.455 14.876 105.693 14.484C105.931 14.092 106.351 13.602 106.953 13.014C107.597 12.37 108.269 11.873 108.969 11.523C109.683 11.173 110.383 10.998 111.069 10.998C111.657 10.998 112.21 11.131 112.728 11.397L113.463 11.775L114.03 11.439L114.891 10.914C115.017 10.83 115.122 10.788 115.206 10.788C115.262 10.788 115.325 10.809 115.395 10.851C115.647 11.019 115.773 11.194 115.773 11.376C115.773 11.516 115.71 11.712 115.584 11.964C115.444 12.258 115.332 12.58 115.248 12.93C115.164 13.28 115.122 13.609 115.122 13.917C115.122 14.197 115.15 14.421 115.206 14.589C115.346 15.051 115.549 15.282 115.815 15.282C116.025 15.282 116.284 15.163 116.592 14.925C116.914 14.673 117.341 14.274 117.873 13.728C118.251 13.35 118.594 13.021 118.902 12.741C119.21 12.447 119.399 12.286 119.469 12.258C119.637 12.188 119.798 12.237 119.952 12.405C120.12 12.559 120.183 12.734 120.141 12.93C120.085 13.154 119.651 13.693 118.839 14.547C118.027 15.387 117.439 15.912 117.075 16.122C116.683 16.346 116.256 16.458 115.794 16.458C115.416 16.458 115.101 16.374 114.849 16.206C114.247 15.758 113.946 15.002 113.946 13.938C113.946 13.7 113.939 13.49 113.925 13.308C113.911 13.126 113.89 13.035 113.862 13.035C113.75 13.077 113.54 13.189 113.232 13.371C112.938 13.539 112.581 13.756 112.161 14.022C110.131 15.226 108.731 15.996 107.961 16.332C107.345 16.598 106.806 16.731 106.344 16.731C106.26 16.731 106.176 16.717 106.092 16.689ZM106.575 15.429C106.575 15.513 106.68 15.52 106.89 15.45C107.114 15.38 107.485 15.219 108.003 14.967C108.577 14.687 109.417 14.225 110.523 13.581C111.643 12.923 112.203 12.566 112.203 12.51C112.203 12.426 112 12.349 111.594 12.279C111.202 12.195 110.887 12.174 110.649 12.216C110.047 12.314 109.424 12.58 108.78 13.014C108.15 13.434 107.604 13.952 107.142 14.568C106.988 14.764 106.855 14.953 106.743 15.135C106.631 15.303 106.575 15.401 106.575 15.429Z" fill="#47463A"/>
</svg>
