<svg width="138" height="21" viewBox="0 0 138 21" fill="none" xmlns="http://www.w3.org/2000/svg">
<path d="M0.239 20.461C0.169 20.405 0.12 20.342 0.092 20.272C0.064 20.216 0.05 20.132 0.05 20.02C0.05 19.978 0.064 19.761 0.092 19.369C0.134 18.795 0.26 17.885 0.47 16.639C0.68 15.393 0.897 14.28 1.121 13.3C1.415 11.97 1.821 10.514 2.339 8.932C2.871 7.336 3.263 6.37 3.515 6.034C3.599 5.922 3.697 5.838 3.809 5.782C3.921 5.712 4.033 5.677 4.145 5.677C4.257 5.677 4.369 5.719 4.481 5.803C4.593 5.887 4.649 6.006 4.649 6.16C4.649 6.37 4.551 6.678 4.355 7.084C3.977 7.924 3.592 8.967 3.2 10.213C2.822 11.445 2.5 12.677 2.234 13.909C2.094 14.567 1.919 15.449 1.709 16.555C1.513 17.647 1.415 18.27 1.415 18.424C1.415 18.592 1.919 18.116 2.927 16.996C3.935 15.862 4.866 14.728 5.72 13.594C6.742 12.25 7.666 10.871 8.492 9.457C9.318 8.043 9.773 7.049 9.857 6.475C9.899 6.181 9.983 5.957 10.109 5.803C10.235 5.635 10.396 5.551 10.592 5.551C10.788 5.551 10.921 5.6 10.991 5.698C11.061 5.796 11.096 5.992 11.096 6.286C11.096 6.524 11.089 6.72 11.075 6.874C11.047 7.238 11.033 7.455 11.033 7.525C11.033 7.721 11.054 7.91 11.096 8.092C11.138 8.274 11.215 8.533 11.327 8.869C11.523 9.429 11.621 9.835 11.621 10.087C11.621 10.409 11.453 10.549 11.117 10.507C10.935 10.493 10.802 10.451 10.718 10.381C10.648 10.297 10.543 10.115 10.403 9.835L10.088 9.184L9.605 10.024C8.975 11.13 8.163 12.348 7.169 13.678C6.175 15.008 5.132 16.296 4.04 17.542C3.312 18.368 2.801 18.928 2.507 19.222C2.213 19.516 1.835 19.838 1.373 20.188C0.995 20.468 0.736 20.608 0.596 20.608C0.512 20.608 0.393 20.559 0.239 20.461ZM14.2406 10.318C14.0866 10.43 13.9536 10.486 13.8416 10.486C13.7296 10.486 13.6106 10.416 13.4846 10.276C13.3586 10.122 13.2956 9.989 13.2956 9.877C13.2956 9.737 13.3586 9.583 13.4846 9.415C13.5406 9.317 13.6176 9.247 13.7156 9.205C13.8276 9.149 13.9326 9.121 14.0306 9.121C14.1426 9.121 14.2406 9.149 14.3246 9.205C14.4226 9.247 14.4856 9.317 14.5136 9.415C14.5556 9.513 14.5766 9.618 14.5766 9.73C14.5766 9.982 14.4646 10.178 14.2406 10.318ZM11.0066 16.786C10.8106 16.66 10.6426 16.471 10.5026 16.219C10.3626 15.953 10.2926 15.708 10.2926 15.484C10.2926 15.232 10.4046 14.819 10.6286 14.245C10.8526 13.657 11.1046 13.111 11.3846 12.607C11.7066 12.061 11.9796 11.662 12.2036 11.41C12.4276 11.144 12.6306 11.011 12.8126 11.011C12.9666 11.011 13.1066 11.109 13.2326 11.305C13.3026 11.417 13.3376 11.508 13.3376 11.578C13.3376 11.662 13.2816 11.802 13.1696 11.998C13.0716 12.194 12.9246 12.446 12.7286 12.754C12.4066 13.286 12.1266 13.818 11.8886 14.35C11.6506 14.882 11.5316 15.239 11.5316 15.421C11.5316 15.687 11.7276 15.82 12.1196 15.82C12.6516 15.82 13.4636 15.589 14.5556 15.127C15.6616 14.651 16.9006 14 18.2726 13.174C18.6926 12.922 19.0146 12.747 19.2386 12.649C19.4626 12.537 19.6376 12.481 19.7636 12.481C19.9176 12.481 20.0506 12.579 20.1626 12.775C20.1906 12.817 20.2046 12.887 20.2046 12.985C20.2046 13.139 20.0996 13.314 19.8896 13.51C19.6796 13.706 19.3366 13.951 18.8606 14.245C18.2866 14.609 17.4466 15.071 16.3406 15.631C15.2346 16.177 14.4436 16.534 13.9676 16.702C13.3936 16.884 12.7776 16.975 12.1196 16.975C11.5596 16.975 11.1886 16.912 11.0066 16.786ZM22.7208 20.587C22.5388 20.587 22.4058 20.51 22.3218 20.356C22.2658 20.244 22.2378 20.146 22.2378 20.062C22.2378 19.894 22.3218 19.614 22.4898 19.222C22.6578 18.83 23.0218 18.046 23.5818 16.87C24.4078 15.134 24.8208 14.245 24.8208 14.203C24.8208 14.161 24.5408 14.315 23.9808 14.665C22.2308 15.799 20.7398 16.366 19.5078 16.366C19.0458 16.366 18.6818 16.254 18.4158 16.03C18.1498 15.792 18.0168 15.47 18.0168 15.064C18.0168 14.91 18.0378 14.749 18.0798 14.581C18.2198 14.063 18.6468 13.454 19.3608 12.754C20.0748 12.054 20.8098 11.508 21.5658 11.116C21.9578 10.92 22.2798 10.794 22.5318 10.738C22.7838 10.682 23.1828 10.654 23.7288 10.654C24.1628 10.654 24.5058 10.71 24.7578 10.822C25.0238 10.92 25.3178 11.116 25.6398 11.41L26.0388 11.788L26.2278 11.494L27.3828 9.52C28.8668 6.916 30.2528 4.851 31.5408 3.325C32.8288 1.799 33.8298 1.036 34.5438 1.036C34.8518 1.036 35.0758 1.12 35.2158 1.288C35.3698 1.456 35.4468 1.715 35.4468 2.065C35.4328 2.541 35.2368 3.122 34.8588 3.808C34.4948 4.48 33.9208 5.313 33.1368 6.307C32.5628 7.035 31.7508 7.945 30.7008 9.037C29.6508 10.115 28.7828 10.948 28.0968 11.536L27.1728 12.313L25.5558 15.631L25.0938 16.597C24.5198 17.773 24.0648 18.683 23.7288 19.327C23.4068 19.985 23.2038 20.356 23.1198 20.44C23.0498 20.524 22.9448 20.573 22.8048 20.587H22.7208ZM29.3778 8.512C29.2798 8.708 29.6438 8.365 30.4698 7.483C31.3098 6.587 31.9258 5.887 32.3178 5.383C32.7798 4.781 33.1788 4.214 33.5148 3.682C33.8648 3.136 34.0398 2.793 34.0398 2.653C34.0398 2.527 33.8088 2.695 33.3468 3.157C32.8988 3.605 32.4508 4.123 32.0028 4.711C31.6528 5.159 31.1558 5.845 30.5118 6.769C29.8678 7.693 29.4898 8.274 29.3778 8.512ZM19.3398 15.127C19.3958 15.169 19.4798 15.19 19.5918 15.19C19.7878 15.19 20.1798 15.099 20.7678 14.917C21.6218 14.651 22.6438 14.112 23.8338 13.3C24.5478 12.824 24.9118 12.572 24.9258 12.544V12.523C24.9258 12.509 24.8488 12.397 24.6948 12.187C24.4428 11.921 24.0928 11.788 23.6448 11.788C23.0288 11.788 22.3358 12.033 21.5658 12.523C20.9778 12.901 20.4458 13.349 19.9698 13.867C19.4938 14.371 19.2558 14.742 19.2558 14.98C19.2558 15.022 19.2838 15.071 19.3398 15.127ZM32.4097 10.318C32.2557 10.43 32.1227 10.486 32.0107 10.486C31.8987 10.486 31.7797 10.416 31.6537 10.276C31.5277 10.122 31.4647 9.989 31.4647 9.877C31.4647 9.737 31.5277 9.583 31.6537 9.415C31.7097 9.317 31.7867 9.247 31.8847 9.205C31.9967 9.149 32.1017 9.121 32.1997 9.121C32.3117 9.121 32.4097 9.149 32.4937 9.205C32.5917 9.247 32.6547 9.317 32.6827 9.415C32.7247 9.513 32.7457 9.618 32.7457 9.73C32.7457 9.982 32.6337 10.178 32.4097 10.318ZM29.1757 16.786C28.9797 16.66 28.8117 16.471 28.6717 16.219C28.5317 15.953 28.4617 15.708 28.4617 15.484C28.4617 15.232 28.5737 14.819 28.7977 14.245C29.0217 13.657 29.2737 13.111 29.5537 12.607C29.8757 12.061 30.1487 11.662 30.3727 11.41C30.5967 11.144 30.7997 11.011 30.9817 11.011C31.1357 11.011 31.2757 11.109 31.4017 11.305C31.4717 11.417 31.5067 11.508 31.5067 11.578C31.5067 11.662 31.4507 11.802 31.3387 11.998C31.2407 12.194 31.0937 12.446 30.8977 12.754C30.5757 13.286 30.2957 13.818 30.0577 14.35C29.8197 14.882 29.7007 15.239 29.7007 15.421C29.7007 15.687 29.8967 15.82 30.2887 15.82C30.8207 15.82 31.6327 15.589 32.7247 15.127C33.8307 14.651 35.0697 14 36.4417 13.174C36.8617 12.922 37.1837 12.747 37.4077 12.649C37.6317 12.537 37.8067 12.481 37.9327 12.481C38.0867 12.481 38.2197 12.579 38.3317 12.775C38.3597 12.817 38.3737 12.887 38.3737 12.985C38.3737 13.139 38.2687 13.314 38.0587 13.51C37.8487 13.706 37.5057 13.951 37.0297 14.245C36.4557 14.609 35.6157 15.071 34.5097 15.631C33.4037 16.177 32.6127 16.534 32.1367 16.702C31.5627 16.884 30.9467 16.975 30.2887 16.975C29.7287 16.975 29.3577 16.912 29.1757 16.786ZM40.6507 18.319C40.3147 18.165 40.0907 17.983 39.9787 17.773C39.8667 17.563 39.8177 17.255 39.8317 16.849C39.8457 16.653 40.0487 16.324 40.4407 15.862C40.8327 15.4 41.1967 15.064 41.5327 14.854C41.8127 14.672 41.9527 14.553 41.9527 14.497C41.9527 14.427 41.6587 14.322 41.0707 14.182C40.4827 14.042 39.7897 13.916 38.9917 13.804C38.1377 13.678 37.5497 13.524 37.2277 13.342C36.8917 13.146 36.7237 12.866 36.7237 12.502C36.7237 12.292 36.9127 12.026 37.2907 11.704C37.6547 11.368 38.0957 11.067 38.6137 10.801C39.1317 10.535 39.6007 10.367 40.0207 10.297C40.0767 10.283 40.1607 10.276 40.2727 10.276C40.5527 10.276 40.7767 10.339 40.9447 10.465C41.1267 10.577 41.2177 10.724 41.2177 10.906C41.2177 11.298 40.9797 11.494 40.5037 11.494C40.2657 11.494 39.9507 11.564 39.5587 11.704C39.2507 11.83 38.9497 11.977 38.6557 12.145C38.3617 12.313 38.2287 12.411 38.2567 12.439C38.3407 12.467 38.5017 12.502 38.7397 12.544C38.9917 12.586 39.2997 12.635 39.6637 12.691C40.5317 12.817 41.1477 12.929 41.5117 13.027C41.8757 13.111 42.2817 13.251 42.7297 13.447L43.4437 13.762L44.6617 13.342C45.9217 12.894 46.7477 12.67 47.1397 12.67C47.3497 12.67 47.4967 12.719 47.5807 12.817C47.6647 12.915 47.7067 13.069 47.7067 13.279C47.7067 13.433 47.6787 13.545 47.6227 13.615C47.5667 13.671 47.3847 13.755 47.0767 13.867C46.7687 13.965 46.3557 14.091 45.8377 14.245C45.4877 14.343 45.1867 14.441 44.9347 14.539C44.6827 14.623 44.5147 14.686 44.4307 14.728C44.4167 14.742 44.4097 14.777 44.4097 14.833C44.4097 14.987 44.4377 15.148 44.4937 15.316C44.5357 15.484 44.5567 15.645 44.5567 15.799C44.5567 16.345 44.3187 16.856 43.8427 17.332C43.5067 17.668 43.1007 17.934 42.6247 18.13C42.1627 18.34 41.7217 18.445 41.3017 18.445C41.0637 18.445 40.8467 18.403 40.6507 18.319ZM41.0917 17.038C41.0917 17.164 41.1967 17.227 41.4067 17.227C41.6447 17.227 41.9387 17.143 42.2887 16.975C42.4427 16.905 42.5967 16.814 42.7507 16.702C42.9047 16.59 43.0167 16.485 43.0867 16.387C43.2547 16.177 43.3387 15.953 43.3387 15.715C43.3387 15.505 43.2687 15.4 43.1287 15.4C42.9747 15.4 42.7297 15.512 42.3937 15.736C42.0717 15.946 41.7707 16.184 41.4907 16.45C41.2247 16.716 41.0917 16.912 41.0917 17.038ZM46.8879 18.088C46.7199 17.962 46.6359 17.801 46.6359 17.605C46.6359 17.465 46.6779 17.311 46.7619 17.143C47.0279 16.639 47.7279 15.449 48.8619 13.573C50.0099 11.683 50.8149 10.388 51.2769 9.688C52.8309 7.378 54.2939 5.474 55.6659 3.976C57.0519 2.478 58.2559 1.491 59.2779 1.015C59.7119 0.818999 60.0549 0.720999 60.3069 0.720999C60.5869 0.720999 60.8389 0.818999 61.0629 1.015C61.2869 1.197 61.3989 1.449 61.3989 1.771C61.3989 2.387 61.0069 3.178 60.2229 4.144C59.7329 4.746 58.9419 5.572 57.8499 6.622C56.7579 7.672 55.6449 8.68 54.5109 9.646C53.3769 10.598 52.5229 11.249 51.9489 11.599C51.5849 11.823 51.2489 12.131 50.9409 12.523C50.6329 12.915 50.2969 13.461 49.9329 14.161C49.8629 14.301 49.8279 14.385 49.8279 14.413C49.8279 14.455 49.9049 14.427 50.0589 14.329C50.2129 14.231 50.4299 14.084 50.7099 13.888C51.6899 13.216 52.5719 12.705 53.3559 12.355C54.1399 11.991 54.7909 11.809 55.3089 11.809C55.6589 11.809 55.9389 11.893 56.1489 12.061C56.4149 12.271 56.5829 12.502 56.6529 12.754C56.7369 12.992 56.7999 13.461 56.8419 14.161C56.8699 14.679 56.9049 15.036 56.9469 15.232C56.9889 15.428 57.0449 15.547 57.1149 15.589C57.1569 15.617 57.2269 15.631 57.3249 15.631C57.7449 15.631 58.4939 15.155 59.5719 14.203C59.9639 13.853 60.2719 13.601 60.4959 13.447C60.7199 13.293 60.9019 13.216 61.0419 13.216C61.1819 13.216 61.2939 13.293 61.3779 13.447C61.4199 13.503 61.4409 13.608 61.4409 13.762C61.4409 13.846 61.4339 13.909 61.4199 13.951C61.3639 14.147 60.9859 14.56 60.2859 15.19C59.5999 15.82 59.0399 16.247 58.6059 16.471C58.1859 16.709 57.7309 16.828 57.2409 16.828C56.9189 16.828 56.6529 16.765 56.4429 16.639C56.1349 16.443 55.9319 16.205 55.8339 15.925C55.7359 15.645 55.6659 15.148 55.6239 14.434L55.5399 13.111L55.0149 13.132C54.6369 13.146 54.0699 13.349 53.3139 13.741C52.5579 14.119 51.7459 14.623 50.8779 15.253C50.0239 15.869 49.2399 16.52 48.5259 17.206C48.0919 17.612 47.7909 17.878 47.6229 18.004C47.4549 18.144 47.3149 18.214 47.2029 18.214C47.0909 18.214 46.9859 18.172 46.8879 18.088ZM53.1669 9.058C53.0829 9.198 53.1459 9.198 53.3559 9.058C53.5659 8.904 54.0069 8.533 54.6789 7.945C55.5049 7.231 56.3379 6.454 57.1779 5.614C58.0319 4.76 58.7319 4.004 59.2779 3.346C59.8239 2.674 60.0969 2.247 60.0969 2.065C60.0969 1.953 59.8449 2.051 59.3409 2.359C58.8509 2.667 58.3819 3.024 57.9339 3.43C56.7999 4.452 55.5889 5.81 54.3009 7.504C53.6289 8.4 53.2509 8.918 53.1669 9.058ZM59.4017 17.689C59.1777 17.605 58.9957 17.465 58.8557 17.269C58.7157 17.073 58.6457 16.856 58.6457 16.618C58.6457 16.254 58.7647 15.876 59.0027 15.484C59.2407 15.092 59.6607 14.602 60.2627 14.014C60.9067 13.37 61.5787 12.873 62.2787 12.523C62.9927 12.173 63.6927 11.998 64.3787 11.998C64.9667 11.998 65.5197 12.131 66.0377 12.397L66.7727 12.775L67.3397 12.439L68.2007 11.914C68.3267 11.83 68.4317 11.788 68.5157 11.788C68.5717 11.788 68.6347 11.809 68.7047 11.851C68.9567 12.019 69.0827 12.194 69.0827 12.376C69.0827 12.516 69.0197 12.712 68.8937 12.964C68.7537 13.258 68.6417 13.58 68.5577 13.93C68.4737 14.28 68.4317 14.609 68.4317 14.917C68.4317 15.197 68.4597 15.421 68.5157 15.589C68.6557 16.051 68.8587 16.282 69.1247 16.282C69.3347 16.282 69.5937 16.163 69.9017 15.925C70.2237 15.673 70.6507 15.274 71.1827 14.728C71.5607 14.35 71.9037 14.021 72.2117 13.741C72.5197 13.447 72.7087 13.286 72.7787 13.258C72.9467 13.188 73.1077 13.237 73.2617 13.405C73.4297 13.559 73.4927 13.734 73.4507 13.93C73.3947 14.154 72.9607 14.693 72.1487 15.547C71.3367 16.387 70.7487 16.912 70.3847 17.122C69.9927 17.346 69.5657 17.458 69.1037 17.458C68.7257 17.458 68.4107 17.374 68.1587 17.206C67.5567 16.758 67.2557 16.002 67.2557 14.938C67.2557 14.7 67.2487 14.49 67.2347 14.308C67.2207 14.126 67.1997 14.035 67.1717 14.035C67.0597 14.077 66.8497 14.189 66.5417 14.371C66.2477 14.539 65.8907 14.756 65.4707 15.022C63.4407 16.226 62.0407 16.996 61.2707 17.332C60.6547 17.598 60.1157 17.731 59.6537 17.731C59.5697 17.731 59.4857 17.717 59.4017 17.689ZM59.8847 16.429C59.8847 16.513 59.9897 16.52 60.1997 16.45C60.4237 16.38 60.7947 16.219 61.3127 15.967C61.8867 15.687 62.7267 15.225 63.8327 14.581C64.9527 13.923 65.5127 13.566 65.5127 13.51C65.5127 13.426 65.3097 13.349 64.9037 13.279C64.5117 13.195 64.1967 13.174 63.9587 13.216C63.3567 13.314 62.7337 13.58 62.0897 14.014C61.4597 14.434 60.9137 14.952 60.4517 15.568C60.2977 15.764 60.1647 15.953 60.0527 16.135C59.9407 16.303 59.8847 16.401 59.8847 16.429ZM78.6855 19.915C78.6295 19.859 78.5875 19.789 78.5595 19.705C78.5175 19.635 78.4965 19.572 78.4965 19.516C78.4965 19.446 78.9515 18.522 79.8615 16.744C80.7715 14.952 81.3595 13.832 81.6255 13.384C83.1095 10.864 84.1595 9.163 84.7755 8.281C85.0275 7.931 85.2445 7.616 85.4265 7.336C85.6085 7.042 85.6855 6.895 85.6575 6.895C85.5875 6.895 85.4195 6.979 85.1535 7.147C84.9715 7.273 84.8175 7.336 84.6915 7.336C84.6075 7.336 84.5165 7.315 84.4185 7.273C84.2085 7.189 84.1035 7.028 84.1035 6.79C84.1035 6.538 84.2155 6.328 84.4395 6.16C84.8595 5.852 85.5315 5.586 86.4555 5.362C87.3795 5.138 88.2895 5.026 89.1855 5.026C90.0955 5.026 90.8655 5.131 91.4955 5.341C92.1255 5.537 92.6575 5.852 93.0915 6.286C93.5815 6.776 93.8265 7.308 93.8265 7.882C93.8265 8.582 93.4625 9.289 92.7345 10.003C92.0205 10.717 90.9915 11.389 89.6475 12.019C88.9195 12.355 87.9815 12.712 86.8335 13.09C85.6995 13.468 84.7405 13.734 83.9565 13.888L82.6125 14.161L81.1635 16.912C80.1835 18.76 79.6375 19.754 79.5255 19.894C79.3995 20.034 79.2595 20.104 79.1055 20.104C78.9515 20.104 78.8115 20.041 78.6855 19.915ZM83.4945 12.691C83.4945 12.719 83.6065 12.712 83.8305 12.67C84.0545 12.628 84.4045 12.544 84.8805 12.418C85.5245 12.264 86.2875 12.026 87.1695 11.704C88.0655 11.368 88.8705 11.025 89.5845 10.675C90.5365 10.213 91.2715 9.737 91.7895 9.247C92.3215 8.743 92.5875 8.281 92.5875 7.861C92.5875 7.693 92.5315 7.518 92.4195 7.336C92.2095 7.014 91.7755 6.741 91.1175 6.517C90.4595 6.293 89.7805 6.181 89.0805 6.181C88.8285 6.181 88.6395 6.188 88.5135 6.202L87.7365 6.286L86.9385 7.378C86.3225 8.218 85.5945 9.289 84.7545 10.591C83.9145 11.879 83.4945 12.579 83.4945 12.691ZM90.3981 17.689C90.1741 17.605 89.9921 17.465 89.8521 17.269C89.7121 17.073 89.6421 16.856 89.6421 16.618C89.6421 16.254 89.7611 15.876 89.9991 15.484C90.2371 15.092 90.6571 14.602 91.2591 14.014C91.9031 13.37 92.5751 12.873 93.2751 12.523C93.9891 12.173 94.6891 11.998 95.3751 11.998C95.9631 11.998 96.5161 12.131 97.0341 12.397L97.7691 12.775L98.3361 12.439L99.1971 11.914C99.3231 11.83 99.4281 11.788 99.5121 11.788C99.5681 11.788 99.6311 11.809 99.7011 11.851C99.9531 12.019 100.079 12.194 100.079 12.376C100.079 12.516 100.016 12.712 99.8901 12.964C99.7501 13.258 99.6381 13.58 99.5541 13.93C99.4701 14.28 99.4281 14.609 99.4281 14.917C99.4281 15.197 99.4561 15.421 99.5121 15.589C99.6521 16.051 99.8551 16.282 100.121 16.282C100.331 16.282 100.59 16.163 100.898 15.925C101.22 15.673 101.647 15.274 102.179 14.728C102.557 14.35 102.9 14.021 103.208 13.741C103.516 13.447 103.705 13.286 103.775 13.258C103.943 13.188 104.104 13.237 104.258 13.405C104.426 13.559 104.489 13.734 104.447 13.93C104.391 14.154 103.957 14.693 103.145 15.547C102.333 16.387 101.745 16.912 101.381 17.122C100.989 17.346 100.562 17.458 100.1 17.458C99.7221 17.458 99.4071 17.374 99.1551 17.206C98.5531 16.758 98.2521 16.002 98.2521 14.938C98.2521 14.7 98.2451 14.49 98.2311 14.308C98.2171 14.126 98.1961 14.035 98.1681 14.035C98.0561 14.077 97.8461 14.189 97.5381 14.371C97.2441 14.539 96.8871 14.756 96.4671 15.022C94.4371 16.226 93.0371 16.996 92.2671 17.332C91.6511 17.598 91.1121 17.731 90.6501 17.731C90.5661 17.731 90.4821 17.717 90.3981 17.689ZM90.8811 16.429C90.8811 16.513 90.9861 16.52 91.1961 16.45C91.4201 16.38 91.7911 16.219 92.3091 15.967C92.8831 15.687 93.7231 15.225 94.8291 14.581C95.9491 13.923 96.5091 13.566 96.5091 13.51C96.5091 13.426 96.3061 13.349 95.9001 13.279C95.5081 13.195 95.1931 13.174 94.9551 13.216C94.3531 13.314 93.7301 13.58 93.0861 14.014C92.4561 14.434 91.9101 14.952 91.4481 15.568C91.2941 15.764 91.1611 15.953 91.0491 16.135C90.9371 16.303 90.8811 16.401 90.8811 16.429ZM104.503 19.369C104.391 19.341 104.251 19.271 104.083 19.159C103.915 19.061 103.775 18.956 103.663 18.844C103.215 18.396 102.991 17.815 102.991 17.101C102.991 16.555 103.131 15.897 103.411 15.127C103.565 14.707 103.642 14.434 103.642 14.308C103.642 14.224 103.607 14.161 103.537 14.119C103.481 14.091 103.432 14.035 103.39 13.951C103.348 13.853 103.327 13.748 103.327 13.636C103.327 13.482 103.362 13.37 103.432 13.3C103.502 13.216 103.649 13.125 103.873 13.027C104.111 12.929 104.293 12.803 104.419 12.649C104.559 12.495 104.776 12.159 105.07 11.641C105.966 10.059 106.953 8.582 108.031 7.21C109.109 5.838 110.166 4.69 111.202 3.766C112.252 2.842 113.169 2.24 113.953 1.96C114.205 1.876 114.429 1.834 114.625 1.834C114.975 1.834 115.255 1.946 115.465 2.17C115.675 2.394 115.78 2.695 115.78 3.073C115.78 3.451 115.682 3.836 115.486 4.228C115.108 4.984 114.289 6.083 113.029 7.525C111.783 8.953 110.537 10.213 109.291 11.305L108.325 12.145H109.249C109.655 12.145 109.935 12.159 110.089 12.187C110.243 12.215 110.362 12.285 110.446 12.397C110.614 12.593 110.698 12.719 110.698 12.775C110.698 12.859 110.614 12.985 110.446 13.153C110.334 13.265 110.194 13.335 110.026 13.363C109.872 13.391 109.564 13.405 109.102 13.405C108.024 13.405 107.121 13.489 106.393 13.657C105.679 13.825 105.231 14.049 105.049 14.329C104.881 14.595 104.699 15.064 104.503 15.736C104.307 16.394 104.209 16.87 104.209 17.164C104.209 17.514 104.314 17.787 104.524 17.983C104.748 18.179 105.063 18.277 105.469 18.277C105.889 18.277 106.393 18.172 106.981 17.962C107.597 17.738 108.199 17.451 108.787 17.101C109.375 16.751 110.152 16.205 111.118 15.463C111.79 14.945 112.259 14.602 112.525 14.434C112.805 14.266 113.029 14.182 113.197 14.182C113.379 14.182 113.491 14.21 113.533 14.266C113.589 14.308 113.631 14.42 113.659 14.602C113.687 14.756 113.659 14.889 113.575 15.001C113.505 15.113 113.267 15.337 112.861 15.673C112.455 15.995 111.902 16.415 111.202 16.933C110.096 17.759 109.039 18.389 108.031 18.823C107.037 19.257 106.148 19.474 105.364 19.474C105.098 19.474 104.811 19.439 104.503 19.369ZM106.267 12.145C106.295 12.145 106.407 12.075 106.603 11.935C106.813 11.795 107.03 11.634 107.254 11.452C108.304 10.584 109.536 9.415 110.95 7.945C112.378 6.475 113.351 5.348 113.869 4.564C114.135 4.172 114.331 3.822 114.457 3.514C114.583 3.206 114.597 3.052 114.499 3.052C114.429 3.052 114.156 3.178 113.68 3.43C113.05 3.766 112.273 4.389 111.349 5.299C110.439 6.195 109.564 7.203 108.724 8.323C108.136 9.093 107.555 9.926 106.981 10.822C106.421 11.704 106.183 12.145 106.267 12.145ZM113.787 17.122C113.465 16.982 113.213 16.765 113.031 16.471C112.849 16.163 112.758 15.827 112.758 15.463C112.758 15.155 112.821 14.854 112.947 14.56C113.087 14.238 113.458 13.79 114.06 13.216C114.676 12.642 115.264 12.187 115.824 11.851C116.86 11.235 117.763 10.927 118.533 10.927C118.911 10.927 119.205 11.011 119.415 11.179C119.639 11.347 119.751 11.585 119.751 11.893C119.751 12.173 119.667 12.446 119.499 12.712C119.345 12.964 119.093 13.23 118.743 13.51C118.281 13.86 117.623 14.245 116.769 14.665C115.915 15.071 115.257 15.316 114.795 15.4C114.515 15.456 114.319 15.512 114.207 15.568C114.095 15.61 114.039 15.666 114.039 15.736C114.039 15.876 114.2 15.995 114.522 16.093C114.858 16.177 115.208 16.205 115.572 16.177C116.412 16.079 117.308 15.848 118.26 15.484C119.226 15.106 120.43 14.511 121.872 13.699C122.376 13.419 122.845 13.174 123.279 12.964C123.713 12.74 123.958 12.628 124.014 12.628C124.168 12.628 124.301 12.726 124.413 12.922C124.525 13.104 124.553 13.272 124.497 13.426C124.441 13.566 124.042 13.86 123.3 14.308C122.558 14.742 121.564 15.267 120.318 15.883C119.324 16.373 118.386 16.744 117.504 16.996C116.636 17.248 115.866 17.374 115.194 17.374C114.634 17.374 114.165 17.29 113.787 17.122ZM115.131 14.077C115.439 13.965 115.838 13.79 116.328 13.552C116.79 13.314 117.252 13.041 117.714 12.733C118.19 12.411 118.4 12.222 118.344 12.166C118.274 12.096 118.001 12.166 117.525 12.376C117.049 12.586 116.552 12.852 116.034 13.174C115.516 13.482 115.173 13.734 115.005 13.93C114.935 14.028 114.9 14.084 114.9 14.098C114.9 14.112 114.907 14.119 114.921 14.119L115.131 14.077ZM123.661 19.054C122.933 18.704 122.569 18.081 122.569 17.185C122.569 16.499 122.779 15.708 123.199 14.812C123.479 14.224 123.969 13.398 124.669 12.334C125.383 11.27 126.097 10.29 126.811 9.394C128.421 7.406 129.954 5.754 131.41 4.438C132.88 3.108 134.119 2.261 135.127 1.897C135.491 1.771 135.75 1.708 135.904 1.708C136.044 1.708 136.198 1.736 136.366 1.792C136.618 1.862 136.814 1.995 136.954 2.191C137.094 2.387 137.164 2.625 137.164 2.905C137.164 3.339 137.01 3.815 136.702 4.333C136.212 5.159 135.302 6.202 133.972 7.462C132.642 8.722 131.235 9.884 129.751 10.948C128.281 11.998 127.098 12.67 126.202 12.964C125.88 13.062 125.656 13.167 125.53 13.279C125.418 13.377 125.264 13.587 125.068 13.909C124.214 15.337 123.787 16.408 123.787 17.122C123.787 17.374 123.836 17.57 123.934 17.71C124.018 17.836 124.095 17.913 124.165 17.941C124.235 17.983 124.347 18.004 124.501 18.004C124.907 18.004 125.264 17.969 125.572 17.899C125.88 17.829 126.23 17.696 126.622 17.5C127.154 17.248 127.973 16.758 129.079 16.03C130.199 15.302 131.144 14.637 131.914 14.035C132.558 13.531 133.013 13.279 133.279 13.279C133.405 13.279 133.51 13.328 133.594 13.426C133.692 13.552 133.741 13.664 133.741 13.762C133.741 13.986 133.566 14.252 133.216 14.56C132.81 14.896 132.005 15.491 130.801 16.345C129.597 17.185 128.722 17.759 128.176 18.067C126.776 18.865 125.6 19.264 124.648 19.264C124.256 19.264 123.927 19.194 123.661 19.054ZM127.042 11.242C127.21 11.172 127.651 10.892 128.365 10.402C129.443 9.66 130.57 8.778 131.746 7.756C132.922 6.734 133.902 5.789 134.686 4.921C135.47 4.053 135.862 3.458 135.862 3.136C135.862 3.01 135.82 2.947 135.736 2.947L135.568 2.989C135.134 3.101 134.553 3.43 133.825 3.976C133.111 4.508 132.341 5.173 131.515 5.971C130.969 6.503 130.304 7.21 129.52 8.092C128.736 8.96 128.085 9.716 127.567 10.36C127.063 11.004 126.888 11.298 127.042 11.242Z" fill="#47463A"/>
</svg>
