<svg width="52" height="20" viewBox="0 0 52 20" fill="none" xmlns="http://www.w3.org/2000/svg">
<path d="M0.239 19.461C0.169 19.405 0.12 19.342 0.092 19.272C0.064 19.216 0.05 19.132 0.05 19.02C0.05 18.978 0.064 18.761 0.092 18.369C0.134 17.795 0.26 16.885 0.47 15.639C0.68 14.393 0.897 13.28 1.121 12.3C1.415 10.97 1.821 9.514 2.339 7.932C2.871 6.336 3.263 5.37 3.515 5.034C3.599 4.922 3.697 4.838 3.809 4.782C3.921 4.712 4.033 4.677 4.145 4.677C4.257 4.677 4.369 4.719 4.481 4.803C4.593 4.887 4.649 5.006 4.649 5.16C4.649 5.37 4.551 5.678 4.355 6.084C3.977 6.924 3.592 7.967 3.2 9.213C2.822 10.445 2.5 11.677 2.234 12.909C2.094 13.567 1.919 14.449 1.709 15.555C1.513 16.647 1.415 17.27 1.415 17.424C1.415 17.592 1.919 17.116 2.927 15.996C3.935 14.862 4.866 13.728 5.72 12.594C6.742 11.25 7.666 9.871 8.492 8.457C9.318 7.043 9.773 6.049 9.857 5.475C9.899 5.181 9.983 4.957 10.109 4.803C10.235 4.635 10.396 4.551 10.592 4.551C10.788 4.551 10.921 4.6 10.991 4.698C11.061 4.796 11.096 4.992 11.096 5.286C11.096 5.524 11.089 5.72 11.075 5.874C11.047 6.238 11.033 6.455 11.033 6.525C11.033 6.721 11.054 6.91 11.096 7.092C11.138 7.274 11.215 7.533 11.327 7.869C11.523 8.429 11.621 8.835 11.621 9.087C11.621 9.409 11.453 9.549 11.117 9.507C10.935 9.493 10.802 9.451 10.718 9.381C10.648 9.297 10.543 9.115 10.403 8.835L10.088 8.184L9.605 9.024C8.975 10.13 8.163 11.348 7.169 12.678C6.175 14.008 5.132 15.296 4.04 16.542C3.312 17.368 2.801 17.928 2.507 18.222C2.213 18.516 1.835 18.838 1.373 19.188C0.995 19.468 0.736 19.608 0.596 19.608C0.512 19.608 0.393 19.559 0.239 19.461ZM14.2406 9.318C14.0866 9.43 13.9536 9.486 13.8416 9.486C13.7296 9.486 13.6106 9.416 13.4846 9.276C13.3586 9.122 13.2956 8.989 13.2956 8.877C13.2956 8.737 13.3586 8.583 13.4846 8.415C13.5406 8.317 13.6176 8.247 13.7156 8.205C13.8276 8.149 13.9326 8.121 14.0306 8.121C14.1426 8.121 14.2406 8.149 14.3246 8.205C14.4226 8.247 14.4856 8.317 14.5136 8.415C14.5556 8.513 14.5766 8.618 14.5766 8.73C14.5766 8.982 14.4646 9.178 14.2406 9.318ZM11.0066 15.786C10.8106 15.66 10.6426 15.471 10.5026 15.219C10.3626 14.953 10.2926 14.708 10.2926 14.484C10.2926 14.232 10.4046 13.819 10.6286 13.245C10.8526 12.657 11.1046 12.111 11.3846 11.607C11.7066 11.061 11.9796 10.662 12.2036 10.41C12.4276 10.144 12.6306 10.011 12.8126 10.011C12.9666 10.011 13.1066 10.109 13.2326 10.305C13.3026 10.417 13.3376 10.508 13.3376 10.578C13.3376 10.662 13.2816 10.802 13.1696 10.998C13.0716 11.194 12.9246 11.446 12.7286 11.754C12.4066 12.286 12.1266 12.818 11.8886 13.35C11.6506 13.882 11.5316 14.239 11.5316 14.421C11.5316 14.687 11.7276 14.82 12.1196 14.82C12.6516 14.82 13.4636 14.589 14.5556 14.127C15.6616 13.651 16.9006 13 18.2726 12.174C18.6926 11.922 19.0146 11.747 19.2386 11.649C19.4626 11.537 19.6376 11.481 19.7636 11.481C19.9176 11.481 20.0506 11.579 20.1626 11.775C20.1906 11.817 20.2046 11.887 20.2046 11.985C20.2046 12.139 20.0996 12.314 19.8896 12.51C19.6796 12.706 19.3366 12.951 18.8606 13.245C18.2866 13.609 17.4466 14.071 16.3406 14.631C15.2346 15.177 14.4436 15.534 13.9676 15.702C13.3936 15.884 12.7776 15.975 12.1196 15.975C11.5596 15.975 11.1886 15.912 11.0066 15.786ZM14.8302 18.411C14.6482 18.341 14.5572 18.236 14.5572 18.096C14.5572 17.9 14.7182 17.543 15.0402 17.025C15.3482 16.507 15.9152 15.674 16.7412 14.526C19.0092 11.334 20.6822 9.059 21.7602 7.701C22.8382 6.329 23.9932 5.041 25.2252 3.837C27.7872 1.345 29.7472 0.0989996 31.1052 0.0989996C31.5532 0.0989996 31.8752 0.197 32.0712 0.393C32.2812 0.575 32.3862 0.883 32.3862 1.317C32.3862 1.751 32.2322 2.206 31.9242 2.682C31.6162 3.158 31.0772 3.795 30.3072 4.593C28.9212 6.021 27.3042 7.4 25.4562 8.73C23.6222 10.06 22.0962 10.97 20.8782 11.46C20.5562 11.586 20.3252 11.712 20.1852 11.838C20.0592 11.964 19.8632 12.223 19.5972 12.615L19.3452 12.993L19.9122 12.615C20.6402 12.139 21.4032 11.747 22.2012 11.439C23.0132 11.117 23.6922 10.956 24.2382 10.956C24.7982 10.956 25.2462 11.096 25.5822 11.376C25.9322 11.642 26.1072 11.978 26.1072 12.384C26.1072 12.692 26.0232 12.965 25.8552 13.203C25.3232 14.015 24.4202 14.421 23.1462 14.421H22.2852C22.0332 14.421 21.9072 14.428 21.9072 14.442C21.9072 14.512 22.0052 14.645 22.2012 14.841C22.3972 15.023 22.5792 15.156 22.7472 15.24C23.1112 15.436 23.4822 15.534 23.8602 15.534C24.0842 15.534 24.3922 15.485 24.7842 15.387C25.2882 15.247 25.8132 15.03 26.3592 14.736C26.9192 14.428 27.6332 13.966 28.5012 13.35C28.8932 13.07 29.2572 12.832 29.5932 12.636C29.9432 12.426 30.1532 12.321 30.2232 12.321C30.3632 12.321 30.4822 12.377 30.5802 12.489C30.6782 12.601 30.7272 12.734 30.7272 12.888C30.7272 12.972 30.7202 13.035 30.7062 13.077C30.6502 13.217 30.2092 13.595 29.3832 14.211C28.5712 14.813 27.8432 15.303 27.1992 15.681C26.0232 16.353 24.8962 16.689 23.8182 16.689C23.2302 16.689 22.7332 16.591 22.3272 16.395C21.9492 16.213 21.5852 15.933 21.2352 15.555C20.8992 15.177 20.6682 14.799 20.5422 14.421C20.4022 14.029 20.3322 13.833 20.3322 13.833C20.2902 13.791 19.9822 14.008 19.4082 14.484C18.8342 14.96 18.2602 15.464 17.6862 15.996C17.4062 16.262 17.1122 16.563 16.8042 16.899C16.4822 17.235 16.2442 17.501 16.0902 17.697C15.8802 17.977 15.7052 18.173 15.5652 18.285C15.4112 18.411 15.2642 18.474 15.1242 18.474C15.0262 18.474 14.9282 18.453 14.8302 18.411ZM21.7812 9.654C21.7812 9.71 21.9982 9.612 22.4322 9.36C22.8662 9.108 23.3422 8.8 23.8602 8.436C24.6442 7.89 25.5822 7.169 26.6742 6.273C27.7662 5.363 28.6272 4.593 29.2572 3.963C29.8312 3.389 30.3142 2.836 30.7062 2.304C31.0982 1.772 31.2592 1.45 31.1892 1.338C31.1472 1.268 31.0002 1.275 30.7482 1.359C30.4962 1.429 30.1812 1.562 29.8032 1.758C28.9632 2.192 27.9202 2.99 26.6742 4.152C25.4422 5.3 24.2382 6.581 23.0622 7.995C22.7262 8.401 22.4252 8.772 22.1592 9.108C21.9072 9.444 21.7812 9.626 21.7812 9.654ZM22.1592 13.161C22.3832 13.217 22.6632 13.245 22.9992 13.245C23.5452 13.245 23.9722 13.168 24.2802 13.014C24.6722 12.804 24.8682 12.622 24.8682 12.468C24.8682 12.3 24.6512 12.216 24.2172 12.216C23.6292 12.216 23.0202 12.363 22.3902 12.657L21.5922 13.035L22.1592 13.161ZM28.8566 16.689C28.6326 16.605 28.4506 16.465 28.3106 16.269C28.1706 16.073 28.1006 15.856 28.1006 15.618C28.1006 15.254 28.2196 14.876 28.4576 14.484C28.6956 14.092 29.1156 13.602 29.7176 13.014C30.3616 12.37 31.0336 11.873 31.7336 11.523C32.4476 11.173 33.1476 10.998 33.8336 10.998C34.4216 10.998 34.9746 11.131 35.4926 11.397L36.2276 11.775L36.7946 11.439L37.6556 10.914C37.7816 10.83 37.8866 10.788 37.9706 10.788C38.0266 10.788 38.0896 10.809 38.1596 10.851C38.4116 11.019 38.5376 11.194 38.5376 11.376C38.5376 11.516 38.4746 11.712 38.3486 11.964C38.2086 12.258 38.0966 12.58 38.0126 12.93C37.9286 13.28 37.8866 13.609 37.8866 13.917C37.8866 14.197 37.9146 14.421 37.9706 14.589C38.1106 15.051 38.3136 15.282 38.5796 15.282C38.7896 15.282 39.0486 15.163 39.3566 14.925C39.6786 14.673 40.1056 14.274 40.6376 13.728C41.0156 13.35 41.3586 13.021 41.6666 12.741C41.9746 12.447 42.1636 12.286 42.2336 12.258C42.4016 12.188 42.5626 12.237 42.7166 12.405C42.8846 12.559 42.9476 12.734 42.9056 12.93C42.8496 13.154 42.4156 13.693 41.6036 14.547C40.7916 15.387 40.2036 15.912 39.8396 16.122C39.4476 16.346 39.0206 16.458 38.5586 16.458C38.1806 16.458 37.8656 16.374 37.6136 16.206C37.0116 15.758 36.7106 15.002 36.7106 13.938C36.7106 13.7 36.7036 13.49 36.6896 13.308C36.6756 13.126 36.6546 13.035 36.6266 13.035C36.5146 13.077 36.3046 13.189 35.9966 13.371C35.7026 13.539 35.3456 13.756 34.9256 14.022C32.8956 15.226 31.4956 15.996 30.7256 16.332C30.1096 16.598 29.5706 16.731 29.1086 16.731C29.0246 16.731 28.9406 16.717 28.8566 16.689ZM29.3396 15.429C29.3396 15.513 29.4446 15.52 29.6546 15.45C29.8786 15.38 30.2496 15.219 30.7676 14.967C31.3416 14.687 32.1816 14.225 33.2876 13.581C34.4076 12.923 34.9676 12.566 34.9676 12.51C34.9676 12.426 34.7646 12.349 34.3586 12.279C33.9666 12.195 33.6516 12.174 33.4136 12.216C32.8116 12.314 32.1886 12.58 31.5446 13.014C30.9146 13.434 30.3686 13.952 29.9066 14.568C29.7526 14.764 29.6196 14.953 29.5076 15.135C29.3956 15.303 29.3396 15.401 29.3396 15.429ZM44.1165 17.319C43.7805 17.165 43.5565 16.983 43.4445 16.773C43.3325 16.563 43.2835 16.255 43.2975 15.849C43.3115 15.653 43.5145 15.324 43.9065 14.862C44.2985 14.4 44.6625 14.064 44.9985 13.854C45.2785 13.672 45.4185 13.553 45.4185 13.497C45.4185 13.427 45.1245 13.322 44.5365 13.182C43.9485 13.042 43.2555 12.916 42.4575 12.804C41.6035 12.678 41.0155 12.524 40.6935 12.342C40.3575 12.146 40.1895 11.866 40.1895 11.502C40.1895 11.292 40.3785 11.026 40.7565 10.704C41.1205 10.368 41.5615 10.067 42.0795 9.801C42.5975 9.535 43.0665 9.367 43.4865 9.297C43.5425 9.283 43.6265 9.276 43.7385 9.276C44.0185 9.276 44.2425 9.339 44.4105 9.465C44.5925 9.577 44.6835 9.724 44.6835 9.906C44.6835 10.298 44.4455 10.494 43.9695 10.494C43.7315 10.494 43.4165 10.564 43.0245 10.704C42.7165 10.83 42.4155 10.977 42.1215 11.145C41.8275 11.313 41.6945 11.411 41.7225 11.439C41.8065 11.467 41.9675 11.502 42.2055 11.544C42.4575 11.586 42.7655 11.635 43.1295 11.691C43.9975 11.817 44.6135 11.929 44.9775 12.027C45.3415 12.111 45.7475 12.251 46.1955 12.447L46.9095 12.762L48.1275 12.342C49.3875 11.894 50.2135 11.67 50.6055 11.67C50.8155 11.67 50.9625 11.719 51.0465 11.817C51.1305 11.915 51.1725 12.069 51.1725 12.279C51.1725 12.433 51.1445 12.545 51.0885 12.615C51.0325 12.671 50.8505 12.755 50.5425 12.867C50.2345 12.965 49.8215 13.091 49.3035 13.245C48.9535 13.343 48.6525 13.441 48.4005 13.539C48.1485 13.623 47.9805 13.686 47.8965 13.728C47.8825 13.742 47.8755 13.777 47.8755 13.833C47.8755 13.987 47.9035 14.148 47.9595 14.316C48.0015 14.484 48.0225 14.645 48.0225 14.799C48.0225 15.345 47.7845 15.856 47.3085 16.332C46.9725 16.668 46.5665 16.934 46.0905 17.13C45.6285 17.34 45.1875 17.445 44.7675 17.445C44.5295 17.445 44.3125 17.403 44.1165 17.319ZM44.5575 16.038C44.5575 16.164 44.6625 16.227 44.8725 16.227C45.1105 16.227 45.4045 16.143 45.7545 15.975C45.9085 15.905 46.0625 15.814 46.2165 15.702C46.3705 15.59 46.4825 15.485 46.5525 15.387C46.7205 15.177 46.8045 14.953 46.8045 14.715C46.8045 14.505 46.7345 14.4 46.5945 14.4C46.4405 14.4 46.1955 14.512 45.8595 14.736C45.5375 14.946 45.2365 15.184 44.9565 15.45C44.6905 15.716 44.5575 15.912 44.5575 16.038Z" fill="#47463A"/>
</svg>
